<?xml version="1.0" encoding="UTF-8"?>
<svg version="1.1" xmlns="http://www.w3.org/2000/svg" width="512" height="512">
<path d="M0 0 C0.66576789 -0.00155999 1.33153579 -0.00311998 2.01747847 -0.00472724 C4.26464472 -0.00873912 6.51174429 -0.00554689 8.75891113 -0.00241089 C10.36332743 -0.00376485 11.96774342 -0.00554475 13.57215881 -0.00772095 C17.9418698 -0.01229593 22.31155728 -0.01050546 26.68126869 -0.00734186 C31.24389334 -0.00481859 35.80651591 -0.0071557 40.36914062 -0.00872803 C48.03275923 -0.01054982 55.69636821 -0.00814316 63.35998535 -0.00338745 C72.23330376 0.00205519 81.1065992 0.00029254 89.97991705 -0.00521386 C97.58413818 -0.00974471 105.18835237 -0.01039567 112.79257441 -0.00777519 C117.34047478 -0.00621226 121.88836435 -0.00601908 126.43626404 -0.00931168 C130.71089191 -0.01218999 134.98549003 -0.01021544 139.26011467 -0.00441742 C140.8335509 -0.0030896 142.40698962 -0.0034843 143.98042488 -0.00568008 C146.11922714 -0.00839077 148.25793252 -0.00501151 150.39672852 0 C151.59652596 0.00037703 152.79632339 0.00075405 154.03247833 0.0011425 C156.69836426 0.12698364 156.69836426 0.12698364 157.69836426 1.12698364 C158.16201423 4.41023702 157.99424607 5.72929534 155.98999023 8.423172 C155.19057007 9.2054567 154.3911499 9.98774139 153.56750488 10.79373169 C152.66657104 11.68783249 151.76563721 12.58193329 150.83740234 13.50312805 C149.84325431 14.46510467 148.84898881 15.42695992 147.85461426 16.38870239 C146.84447558 17.38443229 145.83558027 18.381425 144.82788086 19.37962341 C142.17513631 22.00196764 139.50861003 24.60981052 136.83807373 27.21401978 C132.5601273 31.38957575 128.30152108 35.58478025 124.04655457 39.78373146 C122.55579835 41.25024087 121.05807159 42.70934054 119.55932617 44.16767883 C118.65839233 45.05232315 117.7574585 45.93696747 116.82922363 46.84841919 C116.02980347 47.62831711 115.2303833 48.40821503 114.40673828 49.21174622 C112.47647895 50.94799456 112.47647895 50.94799456 112.69836426 53.12698364 C114.66550455 54.75909535 116.64852391 56.29204132 118.69836426 57.81448364 C148.15759809 80.28798706 172.33662366 110.26920768 190.66271973 142.32034302 C191.71431912 144.15481626 192.78544023 145.97688281 193.85852051 147.79885864 C230.74554074 211.09446792 246.06144245 285.06224148 250.88586426 357.43948364 C250.96997559 358.69680298 251.05408691 359.95412231 251.14074707 361.24954224 C252.77821563 387.94878603 252.77821563 387.94878603 245.38586426 396.93948364 C238.9075524 402.21252818 233.04923458 402.57594215 224.97961426 402.52542114 C223.96290649 402.52829132 222.94619873 402.5311615 221.89868164 402.53411865 C219.75719646 402.53615272 217.61569241 402.53066903 215.47424316 402.51809692 C212.20868118 402.50203439 208.9443568 402.51796852 205.67883301 402.53713989 C203.59159071 402.53515734 201.50434918 402.53131343 199.41711426 402.52542114 C198.44713501 402.53149384 197.47715576 402.53756653 196.4777832 402.54382324 C189.37831521 402.47067862 184.47220057 401.52256955 178.94836426 396.75198364 C174.81031037 391.92425411 173.2931366 388.30454848 172.59680176 381.95120239 C172.51876312 381.2547612 172.44072449 380.55832001 172.36032104 379.84077454 C171.55232284 372.35641951 171.02353619 364.84845526 170.49536133 357.34024048 C164.41236495 272.43300851 140.42674762 184.52305167 75.69836426 125.12698364 C70.1619187 120.35069079 64.41265407 116.01631139 57.9942627 112.48831177 C57.18841736 112.04427002 56.38257202 111.60022827 55.55230713 111.14273071 C54.94050598 110.80753418 54.32870483 110.47233765 53.69836426 110.12698364 C53.02042313 110.81602783 52.34248199 111.50507202 51.64399719 112.21499634 C45.25715181 118.70314738 38.8571843 125.17809556 32.44409657 131.64031219 C29.14737617 134.96313934 25.85547264 138.29046191 22.57409668 141.62844849 C19.40791015 144.84891435 16.22970656 148.05705375 13.04276085 151.25697327 C11.8283254 152.48065577 10.61830358 153.70873474 9.4127903 154.94120789 C7.72490079 156.66533177 6.02206682 158.37322854 4.31481934 160.07815552 C3.8185051 160.59244614 3.32219086 161.10673676 2.81083679 161.63661194 C0.51528044 163.89857298 -0.84881953 165.06559357 -4.09016418 165.5050354 C-6.30163574 165.12698364 -6.30163574 165.12698364 -7.30163574 164.12698364 C-7.40070022 162.0283488 -7.42795917 159.92631947 -7.42861938 157.8253479 C-7.43095937 156.82669606 -7.43095937 156.82669606 -7.43334663 155.80786943 C-7.43735851 153.56070318 -7.43416628 151.31360361 -7.43103027 149.06643677 C-7.43238423 147.46202047 -7.43416413 145.85760448 -7.43634033 144.25318909 C-7.44091532 139.88347811 -7.43912484 135.51379062 -7.43596125 131.14407921 C-7.43343798 126.58145456 -7.43577509 122.018832 -7.43734741 117.45620728 C-7.43916921 109.79258867 -7.43676254 102.12897969 -7.43200684 94.46536255 C-7.4265642 85.59204414 -7.42832685 76.7187487 -7.43383324 67.84543085 C-7.43836409 60.24120972 -7.43901506 52.63699553 -7.43639457 45.03277349 C-7.43483164 40.48487312 -7.43463846 35.93698355 -7.43793106 31.38908386 C-7.44080937 27.11445599 -7.43883483 22.83985787 -7.4330368 18.56523323 C-7.43170899 16.991797 -7.43210368 15.41835828 -7.43429947 13.84492302 C-7.43701015 11.70612076 -7.43363089 9.56741538 -7.42861938 7.42861938 C-7.42824236 6.22882195 -7.42786533 5.02902451 -7.42747688 3.79286957 C-7.19068953 -1.22336022 -4.40936317 0.0013856 0 0 Z " fill="#0051CC" transform="translate(44.3016357421875,54.873016357421875)"/>
<path d="M0 0 C0.66576789 -0.00155999 1.33153579 -0.00311998 2.01747847 -0.00472724 C4.26464472 -0.00873912 6.51174429 -0.00554689 8.75891113 -0.00241089 C10.36332743 -0.00376485 11.96774342 -0.00554475 13.57215881 -0.00772095 C17.9418698 -0.01229593 22.31155728 -0.01050546 26.68126869 -0.00734186 C31.24389334 -0.00481859 35.80651591 -0.0071557 40.36914062 -0.00872803 C48.03275923 -0.01054982 55.69636821 -0.00814316 63.35998535 -0.00338745 C72.23330376 0.00205519 81.1065992 0.00029254 89.97991705 -0.00521386 C97.58413818 -0.00974471 105.18835237 -0.01039567 112.79257441 -0.00777519 C117.34047478 -0.00621226 121.88836435 -0.00601908 126.43626404 -0.00931168 C130.71089191 -0.01218999 134.98549003 -0.01021544 139.26011467 -0.00441742 C140.8335509 -0.0030896 142.40698962 -0.0034843 143.98042488 -0.00568008 C146.11922714 -0.00839077 148.25793252 -0.00501151 150.39672852 0 C151.59652596 0.00037703 152.79632339 0.00075405 154.03247833 0.0011425 C156.69836426 0.12698364 156.69836426 0.12698364 157.69836426 1.12698364 C157.79742874 3.22561849 157.82468769 5.32764781 157.8253479 7.42861938 C157.82690789 8.09438728 157.82846788 8.76015517 157.83007514 9.44609785 C157.83408702 11.69326411 157.83089479 13.94036367 157.82775879 16.18753052 C157.82911275 17.79194682 157.83089265 19.3963628 157.83306885 21.0007782 C157.83764383 25.37048918 157.83585336 29.74017666 157.83268976 34.10988808 C157.83016649 38.67251272 157.83250361 43.23513529 157.83407593 47.79776001 C157.83589772 55.46137861 157.83349106 63.12498759 157.82873535 70.78860474 C157.82329271 79.66192315 157.82505536 88.53521858 157.83056176 97.40853643 C157.83509261 105.01275756 157.83574357 112.61697175 157.83312309 120.22119379 C157.83156016 124.76909417 157.83136698 129.31698373 157.83465958 133.86488342 C157.83753789 138.1395113 157.83556334 142.41410941 157.82976532 146.68873405 C157.82843751 148.26217029 157.8288322 149.835609 157.83102798 151.40904427 C157.83373867 153.54784653 157.83035941 155.6865519 157.8253479 157.8253479 C157.82478236 159.62504406 157.82478236 159.62504406 157.8242054 161.46109772 C157.69836426 164.12698364 157.69836426 164.12698364 156.69836426 165.12698364 C154.4868927 165.5050354 154.4868927 165.5050354 151.69836426 165.12698364 C149.60770091 163.5037525 147.90335056 161.96556905 146.08190918 160.07815552 C145.54473267 159.54170914 145.00755615 159.00526276 144.45410156 158.45256042 C142.68356776 156.67854646 140.93139497 154.88748957 139.17883301 153.09573364 C137.95395942 151.86153352 136.72797635 150.62843359 135.50093079 149.39639282 C132.27582117 146.15220116 129.06600784 142.89327534 125.85913086 139.631073 C122.58351337 136.30428982 119.29367898 132.99163262 116.00500488 129.67776489 C109.55544899 123.17459998 103.12196131 116.65578389 96.69836426 110.12698364 C95.27015051 110.90645274 93.84364313 111.68904885 92.41784668 112.47293091 C91.6232756 112.90839737 90.82870453 113.34386383 90.01005554 113.79252625 C86.80608983 115.64206203 83.90993447 117.77520084 81.01086426 120.06448364 C80.1768811 120.71199585 80.1768811 120.71199585 79.3260498 121.37258911 C76.38600447 123.68568438 73.61403156 126.06587228 71.01086426 128.75198364 C69.86617676 129.92760864 69.86617676 129.92760864 68.69836426 131.12698364 C68.03836426 131.12698364 67.37836426 131.12698364 66.69836426 131.12698364 C66.69836426 131.78698364 66.69836426 132.44698364 66.69836426 133.12698364 C66.03836426 133.12698364 65.37836426 133.12698364 64.69836426 133.12698364 C64.44699707 133.71092896 64.19562988 134.29487427 63.93664551 134.89651489 C62.54036988 137.41157288 61.00679722 138.87455794 58.88586426 140.81448364 C24.17217324 174.80264736 5.56289638 224.50912975 -7.30163574 270.12698364 C-7.96163574 269.79698364 -8.62163574 269.46698364 -9.30163574 269.12698364 C-9.93517777 266.97978067 -10.45664972 264.79934452 -10.93054199 262.61135864 C-11.24114358 261.21542877 -11.55219919 259.81959986 -11.86364746 258.42385864 C-12.02604919 257.68329224 -12.18845093 256.94272583 -12.35577393 256.17971802 C-19.4056522 224.24577544 -29.39215147 193.06805559 -44.07458496 163.77615356 C-44.52591797 162.84391968 -44.97725098 161.91168579 -45.44226074 160.95120239 C-45.84992676 160.13740112 -46.25759277 159.32359985 -46.6776123 158.48513794 C-48.30112809 152.34995056 -41.87176552 144.7188931 -38.85241699 139.44729614 C-19.40484691 106.13618526 7.02039295 76.36928813 37.69836426 53.12698364 C36.20845517 49.63985569 34.2295151 47.44088321 31.52404785 44.80496216 C30.66330658 43.96051041 29.80256531 43.11605865 28.91574097 42.24601746 C27.98549103 41.34177536 27.05524109 40.43753326 26.09680176 39.50588989 C25.13479542 38.56032168 24.1735946 37.61393329 23.21316528 36.66676331 C19.14008036 32.65162272 15.05742696 28.64642317 10.96008301 24.65603638 C8.45081078 22.21120492 5.95388044 19.75432907 3.46431351 17.28944206 C2.05299692 15.8993045 0.62811299 14.52298473 -0.79690552 13.14689636 C-2.07856094 11.87549049 -2.07856094 11.87549049 -3.3861084 10.57839966 C-4.14396637 9.83767715 -4.90182434 9.09695465 -5.68264771 8.33378601 C-7.61831282 5.69532899 -7.73233372 4.32936663 -7.30163574 1.12698364 C-5.45848435 -0.71616775 -2.46721574 0.0007753 0 0 Z " fill="#0051CC" transform="translate(317.3016357421875,54.873016357421875)"/>
</svg>
