<?xml version="1.0" encoding="UTF-8"?>
<svg version="1.1" xmlns="http://www.w3.org/2000/svg" width="512" height="512">
<path d="M0 0 C32.34 0 64.68 0 98 0 C102.393125 21.223125 102.393125 21.223125 106.875 42.875 C107.79651855 47.32597168 108.71803711 51.77694336 109.66748047 56.36279297 C110.80102539 61.84008789 110.80102539 61.84008789 111.33328247 64.41238403 C111.70140545 66.1911366 112.06965874 67.96986219 112.4380188 69.74856567 C112.9991945 72.45845166 113.55994349 75.16842565 114.12060547 77.87841797 C114.28203978 78.65748442 114.44347408 79.43655087 114.60980034 80.23922539 C114.91741135 81.72692977 115.22349536 83.21495082 115.52795029 84.70330429 C115.86702588 86.35303195 116.21220482 88.00150957 116.56131363 89.64914322 C116.74484264 90.53055859 116.92837166 91.41197395 117.11746216 92.32009888 C117.28612856 93.1195096 117.45479496 93.91892033 117.62857246 94.74255562 C118 97 118 97 118 101 C72.13 101 26.26 101 -21 101 C-1.24 3.72 -1.24 3.72 0 0 Z " fill="#0051CC" transform="translate(295,205)"/>
<path d="M0 0 C1.35513954 0.00539291 1.35513954 0.00539291 2.73765564 0.01089478 C3.68389801 0.01074875 4.63014038 0.01060272 5.60505676 0.01045227 C8.74880729 0.0111518 11.89249938 0.01894608 15.03623962 0.02676392 C17.20957405 0.02862795 19.3829089 0.03005192 21.5562439 0.03105164 C27.28884533 0.03487795 33.0214216 0.0447092 38.75401306 0.05575562 C44.59873616 0.0659673 50.44346331 0.07054873 56.28819275 0.07559204 C67.76541737 0.08633137 79.24262328 0.10340915 90.71983337 0.12442017 C92.50833099 5.08637899 93.63763832 10.04994485 94.69102478 15.20327759 C94.96943962 16.54335625 94.96943962 16.54335625 95.253479 17.9105072 C95.86307648 20.8495641 96.46738514 23.78967921 97.07139587 26.72988892 C97.494289 28.77683752 97.91741864 30.82373727 98.34077454 32.87059021 C99.22564467 37.15288386 100.107949 41.43569577 100.98838806 45.71890259 C102.11822082 51.21454041 103.25397585 56.70893402 104.39158058 62.20296764 C105.26536345 66.42574556 106.13626036 70.64911453 107.00625229 74.87267494 C107.42406434 76.89949112 107.84272492 78.92613258 108.26224136 80.95259666 C108.84687283 83.77905876 109.42767684 86.6062804 110.00743103 89.43374634 C110.18195297 90.27380219 110.35647491 91.11385803 110.5362854 91.97937012 C111.16841739 95.07826668 111.71983337 97.9526569 111.71983337 101.12442017 C65.84983337 101.12442017 19.97983337 101.12442017 -27.28016663 101.12442017 C-26.08355072 93.94472471 -24.87685022 86.8214545 -23.41664124 79.69985962 C-23.2423912 78.84139938 -23.06814117 77.98293915 -22.88861084 77.09846497 C-22.32215011 74.31108235 -21.75252611 71.52435904 -21.18251038 68.73770142 C-20.7841211 66.78428225 -20.38581211 64.83084671 -19.98757935 62.87739563 C-19.15782682 58.81009419 -18.32635686 54.74314829 -17.49378967 50.67642212 C-16.42484555 45.45383142 -15.36143163 40.23013119 -14.29939938 35.00613117 C-13.48105913 30.98489579 -12.65925753 26.96437375 -11.83644295 22.94405174 C-11.4424959 21.0164883 -11.04977688 19.08867346 -10.65829277 17.16060829 C-10.11390341 14.48153213 -9.56473769 11.80347937 -9.01429749 9.12564087 C-8.77193359 7.92501511 -8.77193359 7.92501511 -8.52467346 6.70013428 C-7.14647956 0.04095426 -6.82592201 0.01147744 0 0 Z " fill="#0051CC" transform="translate(214.28016662597656,73.87557983398438)"/>
<path d="M0 0 C32.34 0 64.68 0 98 0 C104.90484551 31.07180478 104.90484551 31.07180478 107.8671875 45.82421875 C108.15870047 47.26620151 108.4504506 48.70813635 108.74243164 50.15002441 C109.78945103 55.32861158 110.83199196 60.50810342 111.875 65.6875 C115.401875 83.1671875 115.401875 83.1671875 119 101 C73.13 101 27.26 101 -20 101 C-19.31712928 94.85416354 -18.50264159 88.98488562 -17.25 82.96362305 C-17.075896 82.11041977 -16.90179199 81.25721649 -16.72241211 80.37815857 C-16.15214565 77.58853606 -15.57615883 74.80012968 -15 72.01171875 C-14.59993198 70.06125 -14.2001977 68.11071276 -13.80078125 66.16011047 C-12.96597278 62.08727482 -12.12858312 58.01498217 -11.2890625 53.94311523 C-10.21300059 48.72394962 -9.14120196 43.50392093 -8.07104492 38.28354168 C-7.04867634 33.29683089 -6.02452341 28.31048721 -5 23.32421875 C-4.70730225 21.89904214 -4.70730225 21.89904214 -4.40869141 20.44507408 C-3.85676096 17.75965066 -3.30360024 15.07448392 -2.75 12.3894043 C-2.58685303 11.59505981 -2.42370605 10.80071533 -2.25561523 9.9822998 C-1.56418514 6.63469171 -0.82925572 3.31702289 0 0 Z " fill="#0051CC" transform="translate(120,205)"/>
<path d="M0 0 C1.35513954 0.00539291 1.35513954 0.00539291 2.73765564 0.01089478 C3.68389801 0.01074875 4.63014038 0.01060272 5.60505676 0.01045227 C8.74880729 0.0111518 11.89249938 0.01894608 15.03623962 0.02676392 C17.20957405 0.02862795 19.3829089 0.03005192 21.5562439 0.03105164 C27.28884533 0.03487795 33.0214216 0.0447092 38.75401306 0.05575562 C44.59873616 0.0659673 50.44346331 0.07054873 56.28819275 0.07559204 C67.76541737 0.08633137 79.24262328 0.10340915 90.71983337 0.12442017 C92.50833099 5.08637899 93.63763832 10.04994485 94.69102478 15.20327759 C94.96943962 16.54335625 94.96943962 16.54335625 95.253479 17.9105072 C95.86307648 20.8495641 96.46738514 23.78967921 97.07139587 26.72988892 C97.494289 28.77683752 97.91741864 30.82373727 98.34077454 32.87059021 C99.22564467 37.15288386 100.107949 41.43569577 100.98838806 45.71890259 C102.11822082 51.21454041 103.25397585 56.70893402 104.39158058 62.20296764 C105.26536345 66.42574556 106.13626036 70.64911453 107.00625229 74.87267494 C107.42406434 76.89949112 107.84272492 78.92613258 108.26224136 80.95259666 C108.84687283 83.77905876 109.42767684 86.6062804 110.00743103 89.43374634 C110.18195297 90.27380219 110.35647491 91.11385803 110.5362854 91.97937012 C111.16841739 95.07826668 111.71983337 97.9526569 111.71983337 101.12442017 C65.84983337 101.12442017 19.97983337 101.12442017 -27.28016663 101.12442017 C-26.08355072 93.94472471 -24.87685022 86.8214545 -23.41664124 79.69985962 C-23.2423912 78.84139938 -23.06814117 77.98293915 -22.88861084 77.09846497 C-22.32215011 74.31108235 -21.75252611 71.52435904 -21.18251038 68.73770142 C-20.7841211 66.78428225 -20.38581211 64.83084671 -19.98757935 62.87739563 C-19.15782682 58.81009419 -18.32635686 54.74314829 -17.49378967 50.67642212 C-16.42484555 45.45383142 -15.36143163 40.23013119 -14.29939938 35.00613117 C-13.48105913 30.98489579 -12.65925753 26.96437375 -11.83644295 22.94405174 C-11.4424959 21.0164883 -11.04977688 19.08867346 -10.65829277 17.16060829 C-10.11390341 14.48153213 -9.56473769 11.80347937 -9.01429749 9.12564087 C-8.77193359 7.92501511 -8.77193359 7.92501511 -8.52467346 6.70013428 C-7.14647956 0.04095426 -6.82592201 0.01147744 0 0 Z " fill="#0051CC" transform="translate(214.28016662597656,335.8755798339844)"/>
<path d="M0 0 C32.34 0 64.68 0 98 0 C102.00919314 18.99810839 106.01316258 37.99720623 110 57 C110.23017822 58.09616638 110.46035645 59.19233276 110.69750977 60.32171631 C111.88300849 65.96915956 113.06369652 71.61755145 114.23461914 77.26803589 C114.57647316 78.9143318 114.92004312 80.56027239 115.26538086 82.20584106 C115.73895563 84.46439943 116.20628418 86.72415938 116.671875 88.984375 C116.9306543 90.22928711 117.18943359 91.47419922 117.45605469 92.75683594 C118 96 118 96 118 101 C72.46 101 26.92 101 -20 101 C-19.34619216 94.46192165 -18.59847965 88.31683207 -17.25 81.94189453 C-17.075896 81.0982988 -16.90179199 80.25470306 -16.72241211 79.38554382 C-16.15317533 76.63359041 -15.5766935 73.88321204 -15 71.1328125 C-14.5998347 69.20621427 -14.20010218 67.2795261 -13.80078125 65.35275269 C-12.75362248 60.30640729 -11.70017553 55.26139434 -10.64550781 50.21661377 C-9.78429624 46.09190217 -8.92755504 41.96626811 -8.07104492 37.84057808 C-7.04879935 32.91685733 -6.02472978 27.99351678 -5 23.0703125 C-4.80486816 22.13278263 -4.60973633 21.19525276 -4.40869141 20.2293129 C-3.85676057 17.57991855 -3.30361774 14.93078059 -2.75 12.28173828 C-2.58685303 11.49831558 -2.42370605 10.71489288 -2.25561523 9.9077301 C-1.56028922 6.5865446 -0.82315398 3.29261593 0 0 Z " fill="#0051CC" transform="translate(368,336)"/>
<path d="M0 0 C32.34 0 64.68 0 98 0 C108.73762329 50.1089087 108.73762329 50.1089087 112.37866211 67.96508789 C113.09054343 71.44977366 113.81000268 74.93285322 114.52929688 78.41601562 C114.99003546 80.66917843 115.4503414 82.92242975 115.91015625 85.17578125 C116.12253433 86.19940262 116.33491241 87.22302399 116.5537262 88.27766418 C116.74490524 89.22284409 116.93608429 90.16802399 117.13305664 91.1418457 C117.30132462 91.96336624 117.46959259 92.78488678 117.64295959 93.63130188 C118 96 118 96 118 101 C72.46 101 26.92 101 -20 101 C-19.34619216 94.46192165 -18.59847965 88.31683207 -17.25 81.94189453 C-17.075896 81.0982988 -16.90179199 80.25470306 -16.72241211 79.38554382 C-16.15317533 76.63359041 -15.5766935 73.88321204 -15 71.1328125 C-14.5998347 69.20621427 -14.20010218 67.2795261 -13.80078125 65.35275269 C-12.75362248 60.30640729 -11.70017553 55.26139434 -10.64550781 50.21661377 C-9.78429624 46.09190217 -8.92755504 41.96626811 -8.07104492 37.84057808 C-7.04879935 32.91685733 -6.02472978 27.99351678 -5 23.0703125 C-4.80486816 22.13278263 -4.60973633 21.19525276 -4.40869141 20.2293129 C-3.85676057 17.57991855 -3.30361774 14.93078059 -2.75 12.28173828 C-2.58685303 11.49831558 -2.42370605 10.71489288 -2.25561523 9.9077301 C-1.56028922 6.5865446 -0.82315398 3.29261593 0 0 Z " fill="#0051CC" transform="translate(47,336)"/>
</svg>
