<?xml version="1.0" encoding="UTF-8"?>
<svg version="1.1" xmlns="http://www.w3.org/2000/svg" width="512" height="512">
<path d="M0 0 C1.1348584 0.19867676 2.2697168 0.39735352 3.43896484 0.60205078 C21.04470259 3.75902323 38.06080844 8.27905627 55 14 C55.75490723 14.25217285 56.50981445 14.5043457 57.28759766 14.76416016 C82.32781998 23.2504452 106.40087398 35.79061543 128 51 C129.12482622 51.77499187 130.24983561 52.54971793 131.375 53.32421875 C139.66979768 59.08630618 147.43149021 65.31750076 155 72 C155.91652344 72.804375 156.83304687 73.60875 157.77734375 74.4375 C160.90103924 77.24137814 163.96255898 80.10354387 167 83 C167.78987305 83.75055664 168.57974609 84.50111328 169.39355469 85.27441406 C172.09131643 87.85396715 174.76641536 90.45535026 177.4375 93.0625 C178.73506226 94.30277954 178.73506226 94.30277954 180.05883789 95.56811523 C186.21131992 101.64007841 191.05610471 107.66574964 192.59375 116.35546875 C192.2808851 125.80659593 189.93085959 132.42675233 183 139 C177.42395718 142.80184738 171.01420563 143.56999294 164.4140625 142.6328125 C153.73430286 139.97108779 147.57890751 131.51621279 140.40844727 123.75732422 C125.90059769 108.13230293 108.9837598 95.37085586 91 84 C90.37254883 83.59716797 89.74509766 83.19433594 89.09863281 82.77929688 C31.77261873 46.2596453 -43.0235795 35.73251897 -109 50 C-148.2323704 59.11521322 -185.39610816 75.96515104 -217 101 C-218.43859375 102.11955078 -218.43859375 102.11955078 -219.90625 103.26171875 C-231.362624 112.37627512 -241.9691229 122.48825501 -251.6328125 133.4765625 C-257.20775913 139.4194924 -262.78423556 143.10072562 -271 143.375 C-278.61481409 143.08743149 -283.7736538 139.95065917 -289.26953125 134.890625 C-293.37679043 130.40323573 -294.68901119 125.01245026 -295 119 C-293.7933148 104.72963591 -280.98650759 93.03876096 -270.6875 84.125 C-269.74390625 83.33609375 -269.74390625 83.33609375 -268.78125 82.53125 C-266.97565261 80.97906979 -265.3391951 79.33902322 -263.6875 77.625 C-259.12486427 73.01132807 -254.08558095 69.016403 -249 65 C-248.08299316 64.26837646 -248.08299316 64.26837646 -247.14746094 63.52197266 C-204.99757367 30.0007844 -154.93567652 9.07610444 -102 0 C-101.06349609 -0.16661133 -100.12699219 -0.33322266 -99.16210938 -0.50488281 C-67.5345662 -5.88758308 -31.56114036 -5.70715666 0 0 Z " fill="#0051CC" transform="translate(307,87)"/>
<path d="M0 0 C0.78486786 0.00182281 1.56973572 0.00364563 2.37838745 0.00552368 C14.88440965 0.05425071 27.05370772 0.64188106 39.3125 3.3125 C40.10285645 3.48410645 40.89321289 3.65571289 41.70751953 3.83251953 C75.0971168 11.36689326 105.99379334 27.12815141 130.76513672 50.83251953 C131.80881659 51.83075042 132.85745364 52.82382069 133.91064453 53.81201172 C140.46903029 59.98008777 146.45644031 66.41106215 151.9375 73.5625 C152.68290039 74.51805786 152.68290039 74.51805786 153.44335938 75.49291992 C158.21409983 81.92200549 161.30878312 89.19990886 160.3125 97.3125 C158.35624363 104.90375899 155.02330701 110.14279031 148.3125 114.3125 C142.15001554 117.18038729 135.90637076 118.27777418 129.3125 116.3125 C122.70411612 113.83689434 119.05777101 110.26127648 114.875 104.6875 C113.74256064 103.24217545 112.60844563 101.79816222 111.47265625 100.35546875 C110.65885498 99.31011963 110.65885498 99.31011963 109.82861328 98.24365234 C88.05706886 70.51210382 54.15391837 53.13302677 19.421875 48.56640625 C-1.93375897 45.99582068 -23.20339557 47.64799246 -43.6875 54.3125 C-44.3774707 54.53421875 -45.06744141 54.7559375 -45.77832031 54.984375 C-62.11074681 60.35821978 -80.23613906 68.67533708 -92.4453125 81.1015625 C-93.6875 82.3125 -93.6875 82.3125 -95.6875 82.3125 C-95.6875 82.9725 -95.6875 83.6325 -95.6875 84.3125 C-97.0859375 85.6171875 -97.0859375 85.6171875 -99.0625 87.1875 C-106.1951278 93.2470776 -111.8439756 100.7636941 -117.3125 108.3125 C-121.55199739 113.78026298 -126.3036876 116.09576619 -133.0625 117.25 C-140.2227641 117.73063735 -146.43533792 115.66612163 -152.0625 111.25 C-157.14389009 106.38462042 -159.27868418 100.64142886 -160.125 93.75 C-158.1938839 78.5769449 -146.86705353 67.92147223 -136.6875 57.3125 C-136.17670898 56.77447754 -135.66591797 56.23645508 -135.13964844 55.68212891 C-110.54979025 29.88777674 -78.34032529 12.82058839 -43.8125 4.4375 C-43.03044189 4.24647705 -42.24838379 4.0554541 -41.44262695 3.85864258 C-27.71633424 0.7438463 -14.0171381 -0.06804345 0 0 Z " fill="#0051CC" transform="translate(255.6875,200.6875)"/>
<path d="M0 0 C11.89934713 8.92451035 19.3986763 20.66113335 21.6875 35.375 C23.0651735 46.94745737 20.78592917 59.97904623 13.85351562 69.58935547 C4.28917868 81.54477665 -6.9683977 89.03708846 -22 92 C-37.68527935 93.67394464 -52.38685572 90.87284637 -65 81 C-76.30738796 71.19203166 -82.37201948 60.14014651 -83.9375 45.125 C-84.57729282 30.61769779 -80.03677694 18.63578067 -70.6875 7.6875 C-51.96797403 -11.96489272 -22.6672544 -14.05982401 0 0 Z " fill="#0051CC" transform="translate(287,336)"/>
</svg>
