<?xml version="1.0" encoding="UTF-8"?>
<svg version="1.1" xmlns="http://www.w3.org/2000/svg" width="512" height="512">
<path d="M0 0 C1.56358329 1.20693123 3.12610124 2.41524399 4.6875 3.625 C7.40786352 5.34256285 9.88062808 6.46364187 12.86254883 7.62963867 C13.76370926 7.98386398 14.66486969 8.33808929 15.59333801 8.70304871 C16.28054428 8.96990982 16.96775055 9.23677094 17.67578125 9.51171875 C19.59748913 27.04610298 21.51872902 44.58053842 23.43942833 62.11503315 C24.33147154 70.2585974 25.22366162 78.4021455 26.11621094 86.5456543 C26.8951474 93.65257714 27.67379457 100.7595316 28.45210993 107.86652249 C28.86332863 111.62137296 29.27468156 115.3762086 29.68638229 119.13100624 C30.56305558 127.12715965 31.43738312 135.1235596 32.30669403 143.12051773 C32.54310802 145.29270722 32.78030442 147.46481178 33.01850128 149.63680649 C33.31257876 152.32034565 33.60340684 155.00421341 33.89306641 157.68823242 C34.0162452 158.80238132 34.0162452 158.80238132 34.14191246 159.93903828 C34.93127331 167.3308907 34.93127331 167.3308907 34.67578125 170.51171875 C32.734375 172.25 32.734375 172.25 30.11328125 173.82421875 C23.98398262 177.79739531 19.70933513 182.46138793 15.67578125 188.51171875 C4.69501306 187.96576228 -5.99429992 185.94115678 -16.7890625 183.984375 C-18.75527541 183.63153657 -20.72154951 183.27903899 -22.68788147 182.92686462 C-26.78582827 182.19159989 -30.8830313 181.45235649 -34.97973633 180.71020508 C-40.22609545 179.76010199 -45.47417104 178.81989207 -50.72283077 177.8825922 C-54.77356233 177.15813123 -58.82336198 176.42856822 -62.87289619 175.69744682 C-64.80828548 175.34863747 -66.74395698 175.00139015 -68.67991447 174.65574837 C-71.3799409 174.17288453 -74.07863966 173.68318244 -76.77709961 173.19165039 C-77.97017982 172.98037506 -77.97017982 172.98037506 -79.18736267 172.76483154 C-83.08226463 172.04781792 -86.79712107 171.35913292 -90.32421875 169.51171875 C-91.4765625 166.75390625 -91.4765625 166.75390625 -92.26171875 163.38671875 C-94.76466559 154.30602762 -99.54985275 147.86456092 -107.32421875 142.51171875 C-112.03042116 139.84252932 -116.27485727 138.46291107 -121.63671875 137.82421875 C-125.95981425 137.02388411 -125.95981425 137.02388411 -127.48298645 134.88308716 C-127.75519516 134.18319672 -128.02740387 133.48330627 -128.30786133 132.76220703 C-128.63267487 131.94713684 -128.9574884 131.13206665 -129.29214478 130.29229736 C-129.63272919 129.37470642 -129.9733136 128.45711548 -130.32421875 127.51171875 C-130.70291107 126.52081238 -131.08160339 125.52990601 -131.47177124 124.50897217 C-132.76484912 121.07879362 -134.02294105 117.63732984 -135.2734375 114.19140625 C-135.73606513 112.92063353 -136.19877938 111.64989234 -136.66157532 110.37918091 C-137.62444941 107.73263005 -138.58464318 105.08512443 -139.54321289 102.43701172 C-140.76692663 99.05782354 -141.99988006 95.68208744 -143.23515606 92.30711174 C-144.19123296 89.69042945 -145.14109896 87.07152406 -146.08927345 84.45196915 C-146.75926992 82.60545225 -147.43543969 80.76117902 -148.11174011 78.91696167 C-152.07127368 67.91999172 -152.07127368 67.91999172 -152.32421875 62.51171875 C-150.99609375 60.10546875 -150.99609375 60.10546875 -149.07421875 58.01171875 C-145.05381212 53.29593363 -142.59524107 49.41364067 -142.00390625 43.08203125 C-140.04556028 38.91940749 -139.41862011 38.73692489 -135.2890625 37.16796875 C-132.95607001 36.41909636 -130.61235021 35.70323561 -128.26171875 35.01171875 C-126.95381986 34.60410636 -125.64671404 34.19394223 -124.34033203 33.78149414 C-120.5516124 32.5946092 -116.75173611 31.44730701 -112.94952393 30.30450439 C-108.0984368 28.83958052 -103.25714345 27.34269557 -98.4140625 25.8515625 C-90.96954615 23.56267843 -83.52170545 21.28512498 -76.07012939 19.01933289 C-65.98199737 15.95058504 -55.91659329 12.82855027 -45.88671875 9.57421875 C-44.82428955 9.23076416 -43.76186035 8.88730957 -42.66723633 8.53344727 C-38.35840126 7.14049183 -34.04974466 5.74700039 -29.7421875 4.35009766 C-26.12744368 3.18351257 -22.50783915 2.03333574 -18.88671875 0.88671875 C-17.79496338 0.53101807 -16.70320801 0.17531738 -15.57836914 -0.19116211 C-14.56766357 -0.50835205 -13.55695801 -0.82554199 -12.515625 -1.15234375 C-11.18833374 -1.57700928 -11.18833374 -1.57700928 -9.83422852 -2.01025391 C-5.94880378 -2.75022683 -3.30565723 -2.11673178 0 0 Z " fill="#0051CC" transform="translate(345.32421875,101.48828125)"/>
<path d="M0 0 C0.87289169 0.15716492 1.74578339 0.31432983 2.64512634 0.47625732 C4.14713593 0.73389359 4.14713593 0.73389359 5.67948914 0.99673462 C6.77408447 1.20235016 7.86867981 1.4079657 8.9964447 1.61981201 C10.14526123 1.82131866 11.29407776 2.02282532 12.47770691 2.23043823 C16.26733274 2.89969699 20.05179845 3.59400843 23.83628845 4.29168701 C27.10911679 4.88616925 30.38223557 5.47901474 33.65551472 6.07100868 C34.3136727 6.19006758 34.97183069 6.30912647 35.64993286 6.43179321 C36.31065481 6.55129208 36.97137676 6.67079094 37.65212059 6.79391098 C39.6765079 7.16106805 41.70035509 7.53110516 43.72418213 7.90133667 C51.46440992 9.31059706 59.21076487 10.60275296 66.99291992 11.76470947 C71.6052625 12.45414818 76.21111684 13.18225943 80.81697083 13.91363525 C82.98680532 14.24750892 85.15957129 14.56288473 87.33485413 14.85919189 C104.23443609 17.17747186 104.23443609 17.17747186 108.05625916 21.80584717 C109.30253308 24.87676063 110.05681064 27.81349923 110.77378845 31.04168701 C112.09723382 33.28585347 113.50889009 34.76619271 115.33628845 36.66668701 C116.08007751 37.46332764 116.82386658 38.25996826 117.5901947 39.08074951 C119.61983664 40.90343333 121.33426593 41.89303721 123.77378845 43.04168701 C121.96082129 52.97585018 119.36149713 62.69844675 116.82847595 72.46746826 C116.3346634 74.37906061 115.84102468 76.29069787 115.34754944 78.20237732 C114.31202451 82.21136389 113.27456961 86.21984455 112.23570251 90.22796631 C111.18620658 94.27750717 110.13894662 98.32761374 109.09410095 102.37835693 C106.35416857 112.99991593 103.5967265 123.61643561 100.80605698 134.2247858 C99.5151595 139.14895349 98.26150848 144.07964074 97.05797386 149.02588177 C96.54656176 151.11673693 96.02232474 153.20387096 95.49256897 155.29014587 C94.87577029 157.72816466 94.28180282 160.1721387 93.71687317 162.62269592 C92.38200879 167.77222693 91.42121084 171.20763188 86.83262634 174.18719482 C83.97762526 175.59129237 81.23842855 176.65084107 78.0745697 177.10418701 C74.11872475 177.77726429 70.31131465 178.66075759 66.4417572 179.72918701 C62.26605402 180.86673423 58.0890649 181.97047785 53.8792572 182.97528076 C53.01453796 183.18209473 52.14981873 183.38890869 51.25889587 183.60198975 C48.71186637 184.05264307 46.35476464 184.12056382 43.77378845 184.04168701 C37.48781824 165.61386908 31.55976736 147.08917378 25.80601501 128.48895264 C21.98800662 116.14976622 18.14144521 103.81995877 14.26597595 91.49871826 C13.90499062 90.35096231 13.90499062 90.35096231 13.53671265 89.18001938 C11.35262078 82.23641083 9.16716493 75.29323202 6.98020935 68.3505249 C4.52754383 60.56382752 2.07811075 52.77614582 -0.36161804 44.98538399 C-1.39144197 41.6981652 -2.42438536 38.41199398 -3.46461487 35.12805176 C-4.61271891 31.50092534 -5.7523631 27.87124048 -6.89027405 24.24090576 C-7.23101959 23.17266068 -7.57176514 22.10441559 -7.9228363 21.00379944 C-8.38165695 19.53114876 -8.38165695 19.53114876 -8.8497467 18.02874756 C-9.11727753 17.18088181 -9.38480835 16.33301605 -9.66044617 15.4594574 C-10.27147528 12.8482547 -10.48798139 10.71248435 -10.22621155 8.04168701 C-7.91371155 5.41668701 -7.91371155 5.41668701 -5.22621155 3.04168701 C-4.7762532 2.48873962 -4.32629486 1.93579224 -3.86270142 1.36608887 C-2.22621155 0.04168701 -2.22621155 0.04168701 0 0 Z " fill="#0051CC" transform="translate(252.22621154785156,294.95831298828125)"/>
<path d="M0 0 C18.97022827 0.63997913 37.92154879 1.50446123 56.875 2.5234375 C57.54584499 2.55947224 58.21668999 2.59550698 58.90786362 2.63263369 C65.25740717 2.97389109 71.60684993 3.31696796 77.95603943 3.66475487 C85.98982117 4.10470358 94.02400107 4.53491834 102.05896759 4.95268762 C107.76876674 5.25034788 113.47792526 5.55873537 119.18671417 5.87517416 C122.57701403 6.06281105 125.9674124 6.24572809 129.35858154 6.41700363 C133.11100391 6.60910906 136.86205364 6.81870447 140.61328125 7.03271484 C141.72891953 7.08581314 142.8445578 7.13891144 143.9940033 7.19361877 C145.51931419 7.28598564 145.51931419 7.28598564 147.07543945 7.38021851 C147.95939896 7.42777472 148.84335846 7.47533092 149.75410461 7.52432823 C153.81881861 8.38521859 155.57921622 11.61109308 157.75 14.9375 C158.19859375 15.60652344 158.6471875 16.27554687 159.109375 16.96484375 C160.22779416 19.52052963 159.85259052 20.38729113 159 23 C158.06713867 24.80493164 158.06713867 24.80493164 156.91796875 26.66015625 C156.48693848 27.36116455 156.0559082 28.06217285 155.61181641 28.78442383 C154.90677979 29.91207153 154.90677979 29.91207153 154.1875 31.0625 C153.69685059 31.85615967 153.20620117 32.64981934 152.70068359 33.4675293 C148.71347754 39.90076936 144.66962115 46.29862383 140.6171875 52.69091797 C136.93648486 58.50026226 133.30166953 64.33656416 129.6875 70.1875 C128.60939473 71.92969971 127.53126933 73.67188696 126.453125 75.4140625 C124.64204778 78.34151387 122.83353923 81.27047813 121.02929688 84.20214844 C119.00370041 87.49204986 116.97107788 90.77752767 114.9375 94.0625 C114.30610107 95.09205811 113.67470215 96.12161621 113.02416992 97.18237305 C112.42709229 98.1444165 111.83001465 99.10645996 111.21484375 100.09765625 C110.69011475 100.94851807 110.16538574 101.79937988 109.62475586 102.67602539 C107.93024451 105.09977498 106.2510542 107.07974488 104 109 C101.3125 108.75 101.3125 108.75 98 108 C88.55891654 106.91064422 78.81636113 109.57304478 71.125 115.125 C66.48653663 119.06040608 63.20827199 123.87295441 60 129 C40.46877017 121.52678295 24.91327511 84.42785606 17 67 C8.3421938 46.60402466 -0.13547858 22.43104791 0 0 Z " fill="#0051CC" transform="translate(31,281)"/>
<path d="M0 0 C0.7425 0.598125 1.485 1.19625 2.25 1.8125 C7.85197471 6.26861624 13.15646448 7.99394212 20.25 8.5 C23.17602539 8.97094727 23.17602539 8.97094727 26 10 C27.37402344 11.98266602 27.37402344 11.98266602 28.359375 14.69140625 C28.76510742 15.77631348 29.17083984 16.8612207 29.58886719 17.97900391 C30.05997507 19.31907943 30.53027947 20.65943755 31 22 C31.60195174 23.66499901 32.20523489 25.32951704 32.80957031 26.99365234 C34.90500359 32.79708468 36.95409559 38.61645965 39 44.4375 C40.39353127 48.39534675 41.78954536 52.35230732 43.1875 56.30859375 C43.68503784 57.71979996 43.68503784 57.71979996 44.19262695 59.15951538 C46.39576389 65.38048199 48.71114239 71.53840422 51.1875 77.65649414 C52 80 52 80 52 83 C50.84886922 84.15113078 49.69165804 85.29685044 48.50390625 86.41015625 C44.51363886 90.62843892 41.55063755 95.81517539 39 101 C30.33149005 101.07993733 21.72607843 100.86673115 13.07226562 100.37329102 C11.85254562 100.30662231 10.63282562 100.23995361 9.37614441 100.17126465 C6.07227098 99.98993796 2.76860384 99.80546579 -0.53500557 99.61942792 C-4.01876749 99.4239447 -7.50274437 99.23236505 -10.98669434 99.04026794 C-16.83355062 98.7173256 -22.68025152 98.39168627 -28.52685547 98.06420898 C-35.25283445 97.68749167 -41.97899675 97.31420898 -48.70527983 96.94296318 C-55.91509654 96.54501927 -63.12479216 96.14491644 -70.33444405 95.74399829 C-72.390607 95.62977524 -74.44678926 95.51590519 -76.50297546 95.40210152 C-80.35950266 95.18849567 -84.21589002 94.97242952 -88.07226562 94.75610352 C-89.19264725 94.69424362 -90.31302887 94.63238373 -91.46736145 94.56864929 C-98.98674011 94.14415823 -106.49293945 93.60379322 -114 93 C-114.38083999 79.20512936 -113.69629349 65.98354469 -111.38378906 52.3671875 C-111.04786678 50.2952394 -110.79432635 48.21027838 -110.5546875 46.125 C-110.06643864 42.96300737 -109.52571629 40.80218609 -108 38 C-105.76245117 36.64160156 -105.76245117 36.64160156 -102.91796875 35.578125 C-101.83249756 35.16296631 -100.74702637 34.74780762 -99.62866211 34.32006836 C-98.43120361 33.8844458 -97.23374512 33.44882324 -96 33 C-94.7424605 32.52930178 -93.48539153 32.05734482 -92.22875977 31.58422852 C-88.69016268 30.25933657 -85.14265217 28.95994495 -81.59249878 27.66638184 C-77.46155553 26.16058066 -73.33424258 24.64490084 -69.20703125 23.12890625 C-67.88506493 22.64343826 -67.88506493 22.64343826 -66.53639221 22.14816284 C-54.98447798 17.89958239 -43.4612738 13.57418939 -31.9375 9.25 C-30.87704468 8.85237457 -29.81658936 8.45474915 -28.72399902 8.04507446 C-25.6998354 6.91099842 -22.67600861 5.77603011 -19.65234375 4.640625 C-18.74876633 4.30163681 -17.8451889 3.96264862 -16.91423035 3.61338806 C-16.0749147 3.29785477 -15.23559906 2.98232147 -14.37084961 2.65722656 C-13.60151093 2.36835571 -12.83217224 2.07948486 -12.03952026 1.78186035 C-10.36529375 1.1400372 -8.70660379 0.45782579 -7.05297852 -0.23535156 C-4.25560769 -1.27725493 -2.80463918 -0.98162371 0 0 Z " fill="#0051CC" transform="translate(144,164)"/>
<path d="M0 0 C1.2065625 0.0309375 1.2065625 0.0309375 2.4375 0.0625 C5.50622079 6.70864365 7.63091845 13.63055994 9.83203125 20.6015625 C10.260084 21.94847258 10.68842006 23.29529264 11.11701965 24.64202881 C12.26197909 28.24312037 13.40236605 31.84564398 14.54163361 35.44853973 C15.49087233 38.44883422 16.44257006 41.44834653 17.39416885 44.44789314 C26.24543437 72.35179395 35.02111464 100.27954742 43.55859375 128.28125 C43.93528198 129.51640854 43.93528198 129.51640854 44.31958008 130.77651978 C45.48391663 134.59646348 46.64557846 138.41717766 47.80126953 142.23974609 C50.23360271 150.26218876 52.79818899 158.2225582 55.51733398 166.15283203 C56.4375 169.0625 56.4375 169.0625 56.4375 171.0625 C12.11242666 171.89303611 -27.99502406 164.93325654 -67.5625 144.0625 C-66.13482226 140.90172093 -64.3610997 138.51504029 -62.125 135.875 C-55.53764679 127.39378275 -54.49128912 118.5698891 -55.26855469 108.03417969 C-55.88718506 103.8846291 -57.70498339 100.27748476 -59.6640625 96.61328125 C-60.84156846 93.27018825 -60.03248142 92.21960238 -58.5625 89.0625 C-57.76101162 87.62915479 -56.92208692 86.21622757 -56.05078125 84.82421875 C-55.29692139 83.61318481 -55.29692139 83.61318481 -54.52783203 82.37768555 C-53.98239746 81.51054932 -53.43696289 80.64341309 -52.875 79.75 C-52.01430908 78.37098511 -52.01430908 78.37098511 -51.13623047 76.96411133 C-49.9094888 74.99970488 -48.68091885 73.03643918 -47.45068359 71.07421875 C-45.59495196 68.11426201 -43.74399431 65.15137678 -41.89453125 62.1875 C-39.39690438 58.18601103 -36.89684081 54.18606235 -34.39453125 50.1875 C-31.82706662 46.08480301 -29.26199562 41.98062687 -26.69921875 37.875 C-20.71065026 28.28203141 -14.71519227 18.69344737 -8.6875 9.125 C-8.18130127 8.31957764 -7.67510254 7.51415527 -7.15356445 6.68432617 C-6.69296631 5.9544751 -6.23236816 5.22462402 -5.7578125 4.47265625 C-5.35578613 3.83465088 -4.95375977 3.19664551 -4.53955078 2.53930664 C-2.90645325 0.0708891 -2.90645325 0.0708891 0 0 Z " fill="#0051CC" transform="translate(215.5625,311.9375)"/>
<path d="M0 0 C20.1253222 8.91917688 35.89205184 36.0222775 47 54 C47.58563721 54.93223389 47.58563721 54.93223389 48.18310547 55.88330078 C66.51012261 85.32579296 76.67778479 121.42663236 78 156 C65.49188738 163.83083954 52.97517742 171.64674817 40.42236328 179.40576172 C32.59804768 184.2436281 24.79529263 189.115538 17 194 C16.02417969 193.43410156 15.04835938 192.86820313 14.04296875 192.28515625 C12.75789475 191.54412818 11.47273396 190.80325061 10.1875 190.0625 C9.54490234 189.68931641 8.90230469 189.31613281 8.24023438 188.93164062 C5.51683576 187.36533365 2.98891878 185.99630626 0 185 C-2.91044363 158.94208727 -5.80537327 132.88247275 -8.68782806 106.82144928 C-8.99553619 104.04034449 -9.3035402 101.25927262 -9.6116333 98.47821045 C-10.66846356 88.93638122 -11.72155787 79.3941613 -12.76464272 69.85081863 C-13.205084 65.82140777 -13.64724655 61.79220577 -14.09399414 57.76348877 C-14.51312652 53.98286942 -14.92704776 50.20171504 -15.33701897 46.42009163 C-15.55781651 44.3951818 -15.78387561 42.37084781 -16.01014709 40.34654236 C-16.58440492 35.00662435 -17.11489648 29.66901442 -17.31616211 24.30053711 C-17.34528183 23.53785019 -17.37440155 22.77516327 -17.40440369 21.98936462 C-16.84928301 19.2585848 -15.59934563 18.46506898 -13.375 16.875 C-12.64667969 16.41867188 -11.91835938 15.96234375 -11.16796875 15.4921875 C-5.84687499 11.82974098 -2.60057353 5.7790523 0 0 Z " fill="#0051CC" transform="translate(404,86)"/>
<path d="M0 0 C0.86832458 -0.00067474 1.73664917 -0.00134949 2.63128662 -0.00204468 C16.38745847 0.0149093 29.77833232 0.58822796 43.3125 3.25 C44.17327148 3.41628906 45.03404297 3.58257812 45.92089844 3.75390625 C60.15387738 6.60366844 73.71152049 11.23950597 87.3125 16.25 C87.3125 20.06057673 86.07331495 21.37909489 83.9375 24.5 C80.18197411 30.26957808 78.50546203 35.14938724 77.7734375 41.9609375 C77.68626465 42.7657959 77.5990918 43.5706543 77.50927734 44.39990234 C77.41187256 45.31570068 77.41187256 45.31570068 77.3125 46.25 C59.78802954 52.18956459 42.16864341 57.8024661 24.50050354 63.29602432 C22.40969458 63.94614589 20.3190235 64.59670904 18.22839355 65.24740601 C17.52754387 65.46553672 16.82669418 65.68366743 16.10460663 65.90840816 C15.05074139 66.23641336 15.05074139 66.23641336 13.97558594 66.57104492 C9.74953851 67.88631708 5.5234024 69.20130081 1.296875 70.51502991 C-6.11795822 72.82070748 -13.5277221 75.14130237 -20.93008423 77.48680115 C-24.86603655 78.73356855 -28.80420358 79.97323596 -32.74273682 81.21182251 C-34.5271902 81.77513521 -36.310538 82.34196327 -38.0927124 82.91244507 C-40.51214498 83.68650308 -42.93512387 84.44822582 -45.359375 85.20703125 C-46.05416962 85.43303009 -46.74896423 85.65902893 -47.46481323 85.89187622 C-53.38636918 87.72068985 -53.38636918 87.72068985 -56.6875 86.25 C-58.46875 84.5078125 -58.46875 84.5078125 -60.1875 82.375 C-61.98207824 80.1644059 -63.39826114 78.43569122 -65.80224609 76.89233398 C-67.6875 75.25 -67.6875 75.25 -67.96142578 73.28100586 C-67.8529834 72.51667236 -67.74454102 71.75233887 -67.6328125 70.96484375 C-67.51526611 70.06113037 -67.39771973 69.15741699 -67.27661133 68.22631836 C-67.12345459 67.2235083 -66.97029785 66.22069824 -66.8125 65.1875 C-66.66901123 64.13506104 -66.52552246 63.08262207 -66.37768555 61.99829102 C-65.94176248 58.84197889 -65.4842701 55.68943793 -65.02056885 52.53710938 C-64.37592053 48.11045341 -63.75931698 43.67980046 -63.13671875 39.25 C-61.67931609 28.91291836 -60.19037854 18.58055812 -58.6875 8.25 C-54.28163382 6.53533835 -50.11232053 4.94923256 -45.4453125 4.1171875 C-44.52363281 3.95089844 -43.60195312 3.78460938 -42.65234375 3.61328125 C-41.71519531 3.45214844 -40.77804688 3.29101562 -39.8125 3.125 C-38.41837891 2.87169922 -38.41837891 2.87169922 -36.99609375 2.61328125 C-24.62942809 0.42281188 -12.5309071 0.0087467 0 0 Z " fill="#0051CC" transform="translate(254.6875,29.75)"/>
<path d="M0 0 C-0.76113403 41.93156543 -17.42042888 84.4108352 -42 118 C-42.68320312 118.969375 -43.36640625 119.93875 -44.0703125 120.9375 C-50.33787288 129.63345094 -57.56510738 137.30176998 -65 145 C-65.90234375 145.94359375 -66.8046875 146.8871875 -67.734375 147.859375 C-79.8820566 160.31655167 -94.42674309 172.07676403 -110 180 C-108.38076574 169.1383659 -105.40555642 158.58306395 -102.625 147.9765625 C-102.0943022 145.94166774 -101.56387043 143.90670358 -101.03369141 141.87167358 C-99.92674828 137.62649419 -98.81697091 133.38206919 -97.70507812 129.13818359 C-96.28107867 123.70231988 -94.86366267 118.2647654 -93.44827271 112.82665443 C-92.35604372 108.63273146 -91.26064105 104.4396426 -90.16424561 100.2468071 C-89.64024777 98.24159906 -89.11716868 96.23615071 -88.59503174 94.23045731 C-87.86601411 91.43225396 -87.13279877 88.6351839 -86.3984375 85.83837891 C-86.18435242 85.01336884 -85.97026733 84.18835876 -85.74969482 83.33834839 C-83.63768357 75.33108745 -83.63768357 75.33108745 -82 72 C-79.71484375 70.84765625 -79.71484375 70.84765625 -76.9375 70.0625 C-66.60930501 66.66933646 -59.96530353 61.29514176 -54.78125 51.7578125 C-52.3550059 46.47206642 -52.07281974 42.91424884 -52.5 37.125 C-52.33102345 33.40751595 -52.0790287 31.02592075 -49.31347656 28.39648438 C-44.4422846 24.91295137 -39.11869278 22.2271213 -33.80273438 19.49414062 C-29.33764404 17.1137963 -25.12051683 14.37227484 -20.875 11.625 C-19.31221511 10.6312111 -17.74845351 9.63895601 -16.18359375 8.6484375 C-15.4654248 8.19307617 -14.74725586 7.73771484 -14.00732422 7.26855469 C-11.32916858 5.57605935 -8.64071611 3.90218086 -5.9375 2.25 C-4.83728516 1.57710938 -4.83728516 1.57710938 -3.71484375 0.890625 C-2 0 -2 0 0 0 Z " fill="#0051CC" transform="translate(482,271)"/>
<path d="M0 0 C-0.92322371 7.3714477 -1.86723249 14.7400157 -2.82592773 22.10693359 C-3.14976695 24.61477831 -3.46879474 27.12324913 -3.78295898 29.63232422 C-4.23466787 33.23319093 -4.70348133 36.83147123 -5.17578125 40.4296875 C-5.31341385 41.55680145 -5.45104645 42.68391541 -5.59284973 43.84518433 C-5.80272774 45.40657639 -5.80272774 45.40657639 -6.0168457 46.99951172 C-6.13453812 47.91884491 -6.25223053 48.8381781 -6.37348938 49.78536987 C-7 52 -7 52 -10 54 C-11.36465119 54.4494032 -12.74131187 54.86316246 -14.125 55.25 C-23.9401291 58.4419119 -31.54813243 64.82016333 -36.25 74 C-38.89416584 80.33498066 -39.28393694 87.23803959 -40 94 C-54.3177032 99.82258504 -68.73914421 105.30403445 -83.25 110.625 C-86.2235914 111.71823213 -89.1968868 112.8122647 -92.17004395 113.90667725 C-94.08790663 114.6122604 -96.00611231 115.31691206 -97.92468262 116.02056885 C-102.25154101 117.60930298 -106.57212759 119.21079901 -110.87695312 120.85839844 C-111.98958527 121.28286758 -111.98958527 121.28286758 -113.12469482 121.71591187 C-114.48676906 122.23727519 -115.84729008 122.76272315 -117.20587158 123.29312134 C-119.97836351 124.35351235 -121.99878616 125 -125 125 C-123.03400268 118.56661201 -120.57686484 112.57325493 -117.5625 106.5625 C-117.13074463 105.70140625 -116.69898926 104.8403125 -116.25415039 103.953125 C-111.5527797 94.80650244 -105.95101343 86.37155209 -100 78 C-99.5992627 77.42813965 -99.19852539 76.8562793 -98.78564453 76.26708984 C-93.66005419 68.98452656 -87.911567 62.45477999 -81.796875 56.0078125 C-79.90417744 54.00632799 -78.1138014 51.95742506 -76.37109375 49.82421875 C-74.4378433 47.52151682 -72.60251507 45.60992046 -70.3125 43.6875 C-68.1147589 41.82348995 -65.95398692 39.95650589 -63.859375 37.9765625 C-48.40308518 23.41400372 -29.59447332 12.39923257 -10.5 3.3125 C-9.78779297 2.9731543 -9.07558594 2.63380859 -8.34179688 2.28417969 C-5.38819679 0.92286743 -3.29079622 0 0 0 Z " fill="#0051CC" transform="translate(171,47)"/>
<path d="M0 0 C4.1416864 4.04927555 5.93817362 8.26674932 6.5625 14 C6.370117 20.8352548 3.39453374 26.25703601 -1.4375 31 C-6.66067739 34.15361654 -11.48423401 34.74151 -17.4375 34 C-23.85107521 32.23073787 -27.76525575 28.40463066 -31.4375 23 C-33.36414411 17.33143438 -33.30118697 11.20239303 -30.8125 5.75 C-27.95670678 0.73738393 -24.22609715 -2.66202228 -18.6875 -4.4375 C-11.77708567 -5.78265699 -5.5501579 -4.30773723 0 0 Z " fill="#0051CC" transform="translate(407.4375,292)"/>
<path d="M0 0 C5.12424805 2.69697266 9.07215508 6.81021525 10.90625 12.3125 C11.6319297 19.31012569 11.59237867 24.89687567 7.33984375 30.69140625 C3.88704969 34.5957919 0.7687852 37.03040849 -4.51171875 37.55078125 C-10.89056672 37.72172358 -15.94167152 37.33135487 -21.09375 33.3125 C-25.96996623 27.9620383 -27.45891506 23.13444602 -27.375 15.94921875 C-26.79745447 10.53472943 -24.50944634 6.69189644 -20.65625 2.9375 C-14.36947004 -1.04923851 -7.21388375 -2.36873795 0 0 Z " fill="#0051CC" transform="translate(176.09375,118.6875)"/>
<path d="M0 0 C4.80482897 3.16681909 7.15055775 6.47808174 8.5078125 12.10546875 C9.40750409 17.66632847 9.00898499 22.16202414 6 27 C1.75587105 32.15793661 -2.7641782 35.01220669 -9.390625 36 C-13.88368744 36 -17.8563518 34.63982673 -22 33 C-22 32.34 -22 31.68 -22 31 C-22.99 30.67 -23.98 30.34 -25 30 C-28.96261739 24.27373881 -31.0011807 18.89702263 -30 12 C-28.03629 6.10887 -25.10163322 2.46911059 -20 -1 C-12.80859191 -4.21318234 -6.9142218 -3.58515205 0 0 Z " fill="#0051CC" transform="translate(229,259)"/>
<path d="M0 0 C4.76288464 1.96495689 8.91440591 4.64957474 13.234375 7.4375 C14.09675781 7.9840625 14.95914062 8.530625 15.84765625 9.09375 C22.19054383 13.14366883 22.19054383 13.14366883 24.484375 15.4375 C25.21141515 21.46154693 24.24504515 24.68071206 20.87109375 29.67578125 C17.47105495 33.99526717 14.46152372 36.05478731 8.87109375 36.7734375 C2.5836802 36.86442757 -2.44144686 36.39558907 -7.515625 32.4375 C-12.39184123 27.0870383 -13.88079006 22.25944602 -13.796875 15.07421875 C-13.20931455 9.56583957 -10.90144899 5.72433656 -6.890625 2 C-2.87386717 -0.64260384 -2.87386717 -0.64260384 0 0 Z " fill="#0051CC" transform="translate(363.515625,56.5625)"/>
<path d="M0 0 C4.66360382 2.66088686 7.57749 6.38105037 9.625 11.3125 C10.30969154 17.69702627 10.56119072 23.97959645 6.625 29.3125 C1.26562308 35.02916871 1.26562308 35.02916871 -2.75 35.72265625 C-7.93158781 34.91303316 -11.76282295 30.80235511 -15.75244141 27.58691406 C-17.34736131 26.33420839 -18.97833863 25.15910314 -20.63671875 23.9921875 C-27.98727251 18.5898599 -27.98727251 18.5898599 -29.01171875 15.21484375 C-28.67333617 10.19711353 -25.90034282 5.77645625 -22.375 2.3125 C-15.6941993 -2.72036986 -7.59645816 -3.45935362 0 0 Z " fill="#0051CC" transform="translate(133.375,408.6875)"/>
</svg>
