<?xml version="1.0" encoding="UTF-8"?>
<svg version="1.1" xmlns="http://www.w3.org/2000/svg" width="512" height="512">
<path d="M0 0 C0.86860657 -0.00100708 1.73721313 -0.00201416 2.63214111 -0.00305176 C16.04585823 0.00746177 29.06653733 0.57736813 42.25 3.25 C43.3632666 3.4668042 43.3632666 3.4668042 44.49902344 3.68798828 C61.45599897 7.0681536 77.62997041 12.90509775 93.25 20.25 C94.23564941 20.70995361 94.23564941 20.70995361 95.24121094 21.17919922 C129.86318214 37.47636429 129.86318214 37.47636429 134.25 46.25 C135.10610544 52.32648751 132.42934342 56.35530129 129.5 61.4375 C129.00483887 62.31390137 128.50967773 63.19030273 127.99951172 64.09326172 C113.91693034 88.76764322 97.57199864 112.04845472 78.328125 132.98828125 C76.96687794 134.46978886 75.62230245 135.96683061 74.296875 137.48046875 C69.29856082 143.17511296 64.03479095 148.5711446 58.6875 153.9375 C57.97916016 154.65043213 57.27082031 155.36336426 56.54101562 156.09790039 C51.93988463 160.68570559 47.18656363 165.02693679 42.25 169.25 C41.24081923 170.12752805 40.23169934 171.00512613 39.22265625 171.8828125 C30.49326242 179.35845446 21.45963321 186.37701913 12.25 193.25 C11.51587891 193.79978516 10.78175781 194.34957031 10.02539062 194.91601562 C-0.22877751 202.56395347 -10.73918539 209.51562361 -21.73681641 216.04492188 C-24.60065852 217.75919845 -27.42269506 219.53878297 -30.25 221.3125 C-44.18431759 229.86468742 -58.56040077 237.26465036 -73.3828125 244.14648438 C-75.4285771 245.10016177 -77.46625748 246.06791341 -79.5 247.046875 C-111.18554698 262.16952242 -144.09241541 273.47551594 -177.75 283.25 C-178.90580566 283.58612305 -180.06161133 283.92224609 -181.25244141 284.26855469 C-184.31057545 285.15066479 -187.37229728 286.01781341 -190.4375 286.875 C-191.30938965 287.12282227 -192.1812793 287.37064453 -193.07958984 287.62597656 C-201.41235593 289.89778872 -201.41235593 289.89778872 -205.75 289.25 C-208.98756812 286.55814529 -210.33951973 284.40672211 -211.34765625 280.34765625 C-211.71177612 278.90495361 -211.71177612 278.90495361 -212.08325195 277.43310547 C-212.44422974 275.88840576 -212.44422974 275.88840576 -212.8125 274.3125 C-213.19764771 272.70592529 -213.19764771 272.70592529 -213.59057617 271.06689453 C-226.97700929 213.51670986 -217.80800077 153.07065822 -186.5859375 102.68359375 C-184.70860443 99.81523825 -182.7656726 97.0225617 -180.75 94.25 C-180.06679687 93.29480469 -179.38359375 92.33960938 -178.6796875 91.35546875 C-166.60671691 74.84708781 -152.935877 59.79577171 -136.75 47.25 C-135.82832031 46.52296875 -134.90664062 45.7959375 -133.95703125 45.046875 C-125.91937214 38.84236621 -117.48044047 33.42143869 -108.75 28.25 C-108.16444336 27.9008252 -107.57888672 27.55165039 -106.97558594 27.19189453 C-83.17651159 13.20328198 -55.98537865 5.05474134 -28.75 1.25 C-28.07630371 1.1557373 -27.40260742 1.06147461 -26.70849609 0.96435547 C-17.84751656 -0.10247364 -8.91154577 0.00715736 0 0 Z " fill="#0051CC" transform="translate(255.75,36.75)"/>
<path d="M0 0 C2.87109375 0.31640625 2.87109375 0.31640625 4.74609375 1.37890625 C6.89531305 5.0803395 6.10237336 9.32821156 5.15942383 13.35717773 C4.82322021 14.37368408 4.4870166 15.39019043 4.140625 16.4375 C3.56465576 18.18691895 3.56465576 18.18691895 2.97705078 19.97167969 C2.55020996 21.21981445 2.12336914 22.46794922 1.68359375 23.75390625 C1.3538858 24.72873962 1.3538858 24.72873962 1.01751709 25.7232666 C-10.06940622 58.42944235 -23.9694566 90.34482288 -41.12890625 120.31640625 C-41.62028076 121.17576782 -41.62028076 121.17576782 -42.12158203 122.05249023 C-44.66952874 126.50456044 -47.2384738 130.94414482 -49.81640625 135.37890625 C-50.16440277 135.98038483 -50.51239929 136.5818634 -50.87094116 137.2015686 C-55.90073193 145.87643703 -61.32699689 154.13631947 -67.12890625 162.31640625 C-68.18079518 163.82605171 -69.23172101 165.33636917 -70.28125 166.84765625 C-82.2847125 183.99336094 -95.01207559 200.74423049 -109.171875 216.1796875 C-110.9240211 218.09270929 -112.62591391 220.03655908 -114.31640625 222.00390625 C-125.15101127 234.42222383 -136.5024497 246.8107081 -149.046875 257.515625 C-151.56044203 259.68964827 -153.99666854 261.94031113 -156.44140625 264.19140625 C-161.13508423 268.47864843 -165.95929421 272.52303072 -170.9140625 276.50390625 C-173.15644192 278.27766982 -173.15644192 278.27766982 -175.12890625 280.31640625 C-209.87206162 278.2118793 -244.13309284 249.21545811 -268.12890625 226.31640625 C-268.85335937 225.64480469 -269.5778125 224.97320312 -270.32421875 224.28125 C-280.71037034 214.37866417 -289.03449679 202.10547647 -297.12890625 190.31640625 C-297.78632813 189.3625 -298.44375 188.40859375 -299.12109375 187.42578125 C-303.09267211 181.31284496 -303.09267211 181.31284496 -303.25390625 176.87890625 C-301.92036086 173.84138619 -300.92127135 173.06280671 -298.12890625 171.31640625 C-295.21679687 170.34008789 -295.21679687 170.34008789 -291.78515625 169.4765625 C-290.48117799 169.13915711 -289.17730949 168.80132732 -287.87353516 168.46313477 C-286.83873016 168.19957687 -286.83873016 168.19957687 -285.78302002 167.93069458 C-266.57569741 163.01063111 -247.83725342 156.85658641 -229.12890625 150.31640625 C-227.26032959 149.66454346 -227.26032959 149.66454346 -225.35400391 148.99951172 C-209.23033248 143.32328731 -193.58298727 136.79421714 -178.05224609 129.65917969 C-175.5163507 128.49437054 -172.97462419 127.34407726 -170.4296875 126.19921875 C-139.36427688 112.08153098 -109.37642419 93.83478008 -82.12890625 73.31640625 C-81.50161621 72.8462207 -80.87432617 72.37603516 -80.22802734 71.89160156 C-67.19720964 62.10705774 -54.76727215 51.86751289 -42.8203125 40.7890625 C-40.66600769 38.80985358 -38.48523916 36.89414368 -36.25390625 35.00390625 C-26.45160946 26.49625244 -17.24472981 16.97626416 -9.1484375 6.8359375 C-8.46136719 6.00449219 -7.77429688 5.17304688 -7.06640625 4.31640625 C-6.45667969 3.55328125 -5.84695313 2.79015625 -5.21875 2.00390625 C-3.12890625 0.31640625 -3.12890625 0.31640625 0 0 Z " fill="#0051CC" transform="translate(368.12890625,184.68359375)"/>
<path d="M0 0 C4.80236805 1.59377604 6.13166396 3.89365932 8.62890625 8.12109375 C9.0580835 8.80913086 9.48726074 9.49716797 9.92944336 10.20605469 C10.78061048 11.57704919 11.62214257 12.9540804 12.453125 14.33740234 C13.34760473 15.82074789 14.27934846 17.28159201 15.22265625 18.734375 C24.36168415 33.02679918 30.44411886 49.09717997 35.56640625 65.18359375 C35.9219458 66.27027344 35.9219458 66.27027344 36.28466797 67.37890625 C53.31752879 120.09445552 46.88488802 180.43103981 22.03515625 229.515625 C11.04592691 250.55398945 -3.19880557 268.93102833 -19.43359375 286.18359375 C-20.04976562 286.84230469 -20.6659375 287.50101562 -21.30078125 288.1796875 C-34.51040359 301.86333935 -50.96456428 312.8257933 -67.43359375 322.18359375 C-68.00980469 322.51955566 -68.58601563 322.85551758 -69.1796875 323.20166016 C-92.78956042 336.92724104 -118.69668279 343.82783557 -145.43359375 348.18359375 C-146.52285156 348.37050781 -147.61210937 348.55742187 -148.734375 348.75 C-154.45429415 349.42044459 -160.18139169 349.63890045 -165.93359375 349.87109375 C-167.13113281 349.93103516 -168.32867187 349.99097656 -169.5625 350.05273438 C-175.59990847 350.29677137 -180.79633187 350.50342202 -186.43359375 348.18359375 C-188.43359375 346.18359375 -188.43359375 346.18359375 -189.00805664 343.54248047 C-188.12773885 338.39525895 -184.93145122 335.95634142 -181.2421875 332.44140625 C-180.50412369 331.7142038 -179.76605988 330.98700134 -179.00563049 330.23776245 C-176.64119251 327.91349685 -174.25713965 325.61065276 -171.87109375 323.30859375 C-169.51437991 321.00958451 -167.16192362 318.70632661 -164.8115387 316.40084839 C-163.3491255 314.9691557 -161.88237129 313.54187839 -160.4105072 312.11990356 C-155.8322186 307.67247744 -151.57231626 303.04104386 -147.43359375 298.18359375 C-146.48395581 297.0890771 -145.53358765 295.99519293 -144.58203125 294.90234375 C-132.94524496 281.42740581 -121.76623277 267.68745644 -111.43359375 253.18359375 C-110.89089844 252.425625 -110.34820312 251.66765625 -109.7890625 250.88671875 C-59.6732871 180.74725883 -21.30354847 96.66731371 -8.85009766 10.82910156 C-8.27335447 7.20122373 -7.73912496 4.66646125 -5.7578125 1.53515625 C-3.43359375 0.18359375 -3.43359375 0.18359375 0 0 Z " fill="#0051CC" transform="translate(430.43359375,125.81640625)"/>
</svg>
