<?xml version="1.0" encoding="UTF-8"?>
<svg version="1.1" xmlns="http://www.w3.org/2000/svg" width="512" height="512">
<path d="M0 0 C5.08426243 2.88786106 8.89559685 6.64851737 12.75 11 C13.28753906 11.60585937 13.82507813 12.21171875 14.37890625 12.8359375 C15.50127799 14.11787534 16.61811079 15.40467595 17.73046875 16.6953125 C24.01862244 23.87134862 30.61149971 30.78889999 37.13061523 37.75463867 C38.91701093 39.66558243 40.69907867 41.58048424 42.48046875 43.49609375 C44.44623069 45.60961461 46.42584765 47.70347354 48.42578125 49.78515625 C57.80782657 59.73485474 62.21469711 68.71027348 62.00390625 82.35546875 C61.12988326 94.90106025 53.29697266 103.55539801 45.75 113 C32.99065627 127.34985309 32.99065627 127.34985309 27.75 145 C28.91392728 150.65001885 30.65724719 155.39952903 33.3125 160.5 C33.66183594 161.18288086 34.01117188 161.86576172 34.37109375 162.56933594 C57.4481401 207.50618317 57.4481401 207.50618317 93.75 241 C93.75 241.66 93.75 242.32 93.75 243 C94.28238281 243.22816406 94.81476563 243.45632813 95.36328125 243.69140625 C98.51490018 245.41938062 101.16692494 247.67077296 103.9375 249.9375 C111.82224218 256.24865297 120.13807505 261.73704127 128.75 267 C129.6778833 267.57403564 129.6778833 267.57403564 130.62451172 268.15966797 C139.07513477 273.4373518 139.07513477 273.4373518 148.72265625 274.53125 C157.40314231 272.25659469 163.75809223 264.578515 170.07861328 258.58300781 C194.68120802 235.28133906 194.68120802 235.28133906 207.25 234.5625 C221.40747639 235.15342075 230.52566727 247.68922627 239.3515625 257.28125 C244.20906778 262.58718169 249.01764613 267.93519242 253.8046875 273.3046875 C254.50851562 274.09101563 255.21234375 274.87734375 255.9375 275.6875 C257.03384766 276.91533203 257.03384766 276.91533203 258.15234375 278.16796875 C260.15649948 280.35295056 262.18597438 282.48998307 264.25390625 284.61328125 C274.70172958 295.40972993 281.0376321 303.96297411 281.06689453 319.45092773 C280.96424076 325.42829195 280.0724751 329.93217405 276.75 335 C276.20085937 335.90105469 276.20085937 335.90105469 275.640625 336.8203125 C271.7134756 342.61406995 266.50169013 347.38657922 261.51220703 352.25268555 C260.9139209 352.83703369 260.31563477 353.42138184 259.69921875 354.0234375 C258.88457153 354.81113525 258.88457153 354.81113525 258.0534668 355.61474609 C256.63638456 356.98786647 256.63638456 356.98786647 255.75 359 C255.09 359 254.43 359 253.75 359 C253.54004395 359.53375244 253.33008789 360.06750488 253.11376953 360.61743164 C251.21637127 363.93227404 248.61229433 366.44289086 245.9296875 369.12109375 C245.35219757 369.7028688 244.77470764 370.28464386 244.17971802 370.88404846 C242.95667482 372.11282664 241.73101299 373.3390032 240.50292969 374.56274414 C238.64366296 376.41886858 236.79806842 378.28785474 234.953125 380.15820312 C233.75862503 381.3549782 232.56333665 382.55096699 231.3671875 383.74609375 C230.82415985 384.29833115 230.2811322 384.85056854 229.72164917 385.41954041 C221.45675262 393.58794165 212.12129382 398.30599824 200.4074707 398.46826172 C199.55113037 398.45811035 198.69479004 398.44795898 197.8125 398.4375 C196.90008545 398.42992676 195.9876709 398.42235352 195.04760742 398.41455078 C185.92133236 398.19754138 177.49523493 396.5162346 168.75 394 C167.67468018 393.70246826 167.67468018 393.70246826 166.57763672 393.39892578 C134.24434565 384.27592985 105.59277134 363.85823681 79.75 343 C78.77289063 342.21753906 77.79578125 341.43507813 76.7890625 340.62890625 C71.49256519 336.34868363 66.35809636 331.93069404 61.33203125 327.3359375 C59.22125319 325.42633798 57.08958884 323.55056637 54.94140625 321.68359375 C38.68280816 307.48364648 21.97749603 292.45643592 8.66796875 275.4140625 C6.7135763 272.9541551 4.64093329 270.67352443 2.5 268.375 C-14.02556512 250.15964573 -28.08461606 229.15991848 -39.82519531 207.61035156 C-41.21697867 205.06049762 -42.63499259 202.52657638 -44.0546875 199.9921875 C-59.4122197 172.12502084 -69.6701116 141.47330557 -74.25 110 C-74.3523999 109.30543701 -74.4547998 108.61087402 -74.56030273 107.89526367 C-75.49383043 100.68621559 -75.50856646 93.44695494 -75.5625 86.1875 C-75.59150391 84.89779297 -75.62050781 83.60808594 -75.65039062 82.27929688 C-75.7652078 64.81825471 -68.78657598 53.18921058 -57.83203125 40.14453125 C-54.69965016 36.38049237 -51.76726443 32.46631841 -48.8125 28.5625 C-44.14661675 22.41254334 -39.36067903 16.40552331 -34.37109375 10.515625 C-32.94176781 8.82043916 -31.56026403 7.08390281 -30.2265625 5.3125 C-28.27036584 3.02382723 -26.89341181 1.98043389 -24.1875 0.75 C-23.18009766 0.27820313 -23.18009766 0.27820313 -22.15234375 -0.203125 C-14.99171592 -3.20264877 -7.08275962 -3.27234476 0 0 Z " fill="#0051CC" transform="translate(129.25,80)"/>
<path d="M0 0 C6.47715128 -0.3643967 12.28765833 0.97072745 18.5625 2.5 C20.20883423 2.90049561 20.20883423 2.90049561 21.88842773 3.30908203 C38.77931993 7.56553339 54.70880844 13.68156076 70 22 C70.67788574 22.3623877 71.35577148 22.72477539 72.05419922 23.09814453 C80.84869112 27.81159923 89.14239646 32.81332696 97 39 C97.60312012 39.47453613 98.20624023 39.94907227 98.82763672 40.43798828 C150.7141224 81.45350703 187.77458202 140.98326639 198 207 C198.01750547 208.99992339 198.01973588 211.00009738 198 213 C194.0681511 213.85843909 190.13544553 214.71282476 186.2019043 215.56347656 C184.86409782 215.85338057 183.52652992 216.14438784 182.18920898 216.43652344 C180.26609487 216.85642359 178.3420424 217.2720188 176.41796875 217.6875 C174.68196411 218.06455078 174.68196411 218.06455078 172.91088867 218.44921875 C170 219 170 219 167 219 C166.45735093 216.97943025 165.91598977 214.95851465 165.375 212.9375 C165.19533691 212.27411621 165.01567383 211.61073242 164.83056641 210.92724609 C163.74289496 206.8848406 162.7142947 202.83541743 161.75 198.76171875 C156.78485868 178.16544273 149.06454129 158.63784698 139 140 C138.40058594 138.86175781 137.80117188 137.72351563 137.18359375 136.55078125 C129.51039727 122.50194343 119.97424275 109.63138304 109 98 C107.93371819 96.73233809 106.87114244 95.46154859 105.8125 94.1875 C96.51646907 83.58488407 85.7198044 74.7637789 74 67 C73.39494629 66.59185059 72.78989258 66.18370117 72.16650391 65.76318359 C48.92787085 50.17547972 24.18560714 41.70354191 -3 36 C-3.20162981 28.21204855 -2.4122122 20.66664936 -1.5 12.9375 C-1.35691406 11.69033203 -1.21382813 10.44316406 -1.06640625 9.15820312 C-0.71545379 6.10491668 -0.3598759 3.05224532 0 0 Z " fill="#0051CC" transform="translate(259,34)"/>
<path d="M0 0 C33.30567416 3.46554112 63.72514879 27.25300469 84.69140625 51.99609375 C88.03136848 56.17318207 91.07597865 60.52416387 94 65 C94.3909082 65.59458008 94.78181641 66.18916016 95.18457031 66.80175781 C99.98816997 74.2101546 104.06803073 81.9122839 107.875 89.875 C108.24447754 90.6474707 108.61395508 91.41994141 108.99462891 92.21582031 C115 105.11173926 115 105.11173926 115 112 C111.12944902 113.65643802 107.25285597 115.29824485 103.375 116.9375 C102.28058594 117.40607422 101.18617188 117.87464844 100.05859375 118.35742188 C98.46337891 119.0293457 98.46337891 119.0293457 96.8359375 119.71484375 C95.37486572 120.33540649 95.37486572 120.33540649 93.88427734 120.96850586 C90.92081532 122.02831854 88.11318592 122.57804419 85 123 C84.73896484 122.37134033 84.47792969 121.74268066 84.20898438 121.0949707 C72.15484051 90.08409416 72.15484051 90.08409416 50 67 C50 66.34 50 65.68 50 65 C49.43410156 64.75121094 48.86820312 64.50242187 48.28515625 64.24609375 C45.6448572 62.80634093 43.68740927 61.05961048 41.4375 59.0625 C27.55425085 47.64329772 12.16810429 40.94088814 -5 36 C-4.43902934 27.65005939 -3.37718967 19.4913331 -1.9375 11.25 C-1.75123047 10.15945312 -1.56496094 9.06890625 -1.37304688 7.9453125 C-0.91988563 5.29606214 -0.46215796 2.64769297 0 0 Z " fill="#0051CC" transform="translate(258,124)"/>
</svg>
