<?xml version="1.0" encoding="UTF-8"?>
<svg version="1.1" xmlns="http://www.w3.org/2000/svg" width="512" height="512">
<path d="M0 0 C2.20926502 -0.00217614 4.41802071 -0.02036592 6.62719727 -0.03930664 C19.42703497 -0.09119039 31.86041817 1.15877468 44.29321289 4.37280273 C45.13118408 4.58855957 45.96915527 4.80431641 46.83251953 5.02661133 C92.01060469 17.05885929 129.21011813 45.88214672 153.11303711 86.02441406 C174.35389238 122.88354526 182.23259467 166.92929379 171.19140625 208.19799805 C161.91180007 241.17176587 145.79454488 273.04470608 127.81518555 302.12133789 C126.40441899 304.41051649 125.01096234 306.70981262 123.61743164 309.00952148 C115.68484135 322.03600665 107.24559485 334.66265715 98.54321289 347.18530273 C98.02404297 347.93763184 97.50487305 348.68996094 96.9699707 349.46508789 C89.10681211 360.85552363 80.7884961 371.87396057 72.34545898 382.83959961 C70.78485046 384.87080073 69.23323098 386.9082168 67.68774414 388.95092773 C62.71780891 395.50504786 57.53340184 401.83163037 52.18383789 408.07592773 C49.80602908 410.85745084 47.51471838 413.70106623 45.23071289 416.56030273 C39.35316864 423.76133656 32.9810521 430.48712155 26.54321289 437.18530273 C25.85646484 437.90073242 25.1697168 438.61616211 24.4621582 439.35327148 C22.35431542 441.53746438 20.23286452 443.70742245 18.10571289 445.87280273 C17.45594482 446.54400146 16.80617676 447.2152002 16.13671875 447.90673828 C12.2303133 451.84021932 8.64016526 454.92595192 3.54321289 457.18530273 C-7.88410887 456.90170497 -20.03722949 439.90629717 -27.37280273 432.38061523 C-30.51086924 429.07491069 -33.49918743 425.65235645 -36.45678711 422.18530273 C-36.90723389 421.66194336 -37.35768066 421.13858398 -37.82177734 420.59936523 C-49.31651595 407.21207868 -60.39398084 393.52398129 -70.8737793 379.32739258 C-72.5545308 377.05303822 -74.24364652 374.78504429 -75.93334961 372.51733398 C-83.33709501 362.55767812 -90.56378836 352.50559716 -97.45678711 342.18530273 C-98.27735596 340.9574707 -98.27735596 340.9574707 -99.11450195 339.70483398 C-136.90182151 282.93475833 -182.8658434 212.84207257 -168.93505859 141.33642578 C-168.48146256 139.27437572 -167.97777338 137.23133237 -167.45678711 135.18530273 C-167.25811035 134.36884277 -167.05943359 133.55238281 -166.85473633 132.71118164 C-163.68353722 119.90998914 -159.28111711 108.00624731 -153.45678711 96.18530273 C-153.13452148 95.52304688 -152.81225586 94.86079102 -152.48022461 94.1784668 C-133.43828931 55.45599471 -98.02926429 24.07912882 -57.33984375 9.77392578 C-38.2010421 3.37809344 -20.17193878 -0.00221402 0 0 Z M-40.45678711 84.18530273 C-41.36944336 84.63776367 -42.28209961 85.09022461 -43.22241211 85.55639648 C-49.98028098 89.03915293 -55.66094609 93.29377733 -61.45678711 98.18530273 C-62.46741211 98.94842773 -63.47803711 99.71155273 -64.51928711 100.49780273 C-81.45754978 115.99451113 -93.18995161 139.21407301 -94.58105469 162.24243164 C-95.63080174 191.32985009 -87.11891445 216.52025374 -67.56225586 238.29467773 C-52.00028185 254.64901295 -30.64335609 264.24491407 -8.45678711 267.18530273 C-4.82678711 267.18530273 -1.19678711 267.18530273 2.54321289 267.18530273 C2.54321289 288.30530273 2.54321289 309.42530273 2.54321289 331.18530273 C5.01821289 328.71030273 5.01821289 328.71030273 7.54321289 326.18530273 C8.39399414 325.35772461 9.24477539 324.53014648 10.12133789 323.67749023 C15.56936865 318.34096888 20.55337371 312.89382841 25.30883789 306.91577148 C27.55853743 304.16657572 29.9248553 301.58736281 32.35571289 298.99780273 C38.0803378 292.76806386 43.05912013 286.04643278 48.04956055 279.22290039 C49.48935642 277.25877218 50.94176632 275.30472218 52.39868164 273.35327148 C70.812208 248.62220111 90.45677996 219.84714411 96.54321289 189.18530273 C96.73270508 188.28553711 96.92219727 187.38577148 97.11743164 186.45874023 C100.43996417 160.91486627 94.8803558 134.22910241 79.16821289 113.49780273 C77.97331219 112.04911781 76.76448296 110.61182827 75.54321289 109.18530273 C74.56094727 107.98647461 74.56094727 107.98647461 73.55883789 106.76342773 C56.62080841 86.85815222 32.29842753 76.28712902 6.54321289 74.18530273 C-10.03054086 73.79685538 -25.65655183 76.49366531 -40.45678711 84.18530273 Z " fill="#0051CC" transform="translate(253.456787109375,27.814697265625)"/>
</svg>
