<?xml version="1.0" encoding="UTF-8"?>
<svg version="1.1" xmlns="http://www.w3.org/2000/svg" width="512" height="512">
<path d="M0 0 C2.20011372 0.00113177 4.40022894 0.00048822 6.6003418 -0.00177002 C12.50193921 -0.00290525 18.40320322 0.02040865 24.30472398 0.04852581 C30.49859766 0.07374059 36.69248122 0.07589715 42.88639832 0.08062744 C54.58366568 0.09299873 66.2807813 0.12574031 77.97798222 0.1660254 C87.32630098 0.19751361 96.67459101 0.21954478 106.02294922 0.234375 C106.68353204 0.23542589 107.34411486 0.23647679 108.02471534 0.23755953 C111.33947971 0.24278061 114.65424431 0.24782614 117.96900904 0.25280714 C145.3611971 0.29447886 172.75317749 0.3677572 200.14526367 0.45410156 C200.14526367 30.15410156 200.14526367 59.85410156 200.14526367 90.45410156 C190.73482544 90.48383057 190.73482544 90.48383057 181.13427734 90.51416016 C160.41099837 90.58105354 139.68776935 90.65859425 118.96454906 90.74162865 C106.39955546 90.79171429 93.83456825 90.83815769 81.26953125 90.87597656 C70.31569386 90.90895526 59.36190667 90.94881895 48.40812474 90.99689162 C42.61016618 91.02209814 36.81224067 91.04389666 31.01424217 91.05744553 C25.55188589 91.07031896 20.08964329 91.09243007 14.62734985 91.12148476 C12.62757411 91.13051933 10.62778008 91.13624109 8.627985 91.1383152 C-13.25366373 90.89963012 -13.25366373 90.89963012 -31.89379883 101.30957031 C-38.63170973 108.49189661 -41.99127674 116.57767831 -41.85473633 126.45410156 C-39.99979262 145.26037699 -24.57132578 156.88418213 -11.97583008 169.43066406 C-10.55357761 170.85104744 -9.13154873 172.27165474 -7.70973206 173.69247437 C-3.99830298 177.40011691 -0.28387897 181.1047444 3.43121338 184.80871582 C7.23422272 188.60142719 11.03434147 192.39703244 14.8347168 196.19238281 C22.26876663 203.61576361 29.70598904 211.03595701 37.14526367 218.45410156 C37.76401367 217.95910156 38.38276367 217.46410156 39.02026367 216.95410156 C41.14526367 215.45410156 41.14526367 215.45410156 43.14526367 215.45410156 C43.37213867 214.89722656 43.59901367 214.34035156 43.83276367 213.76660156 C45.52076403 210.79250569 47.61202884 208.73401291 50.14526367 206.45410156 C50.80526367 206.45410156 51.46526367 206.45410156 52.14526367 206.45410156 C52.41338867 205.81472656 52.68151367 205.17535156 52.95776367 204.51660156 C54.14526367 202.45410156 54.14526367 202.45410156 57.14526367 201.45410156 C57.47526367 200.79410156 57.80526367 200.13410156 58.14526367 199.45410156 C59.14526367 197.45410156 59.14526367 197.45410156 62.14526367 196.45410156 C62.84484186 195.13773817 63.50723506 193.80137351 64.14526367 192.45410156 C65.25353288 191.15356585 66.41556482 189.89786211 67.61352539 188.67944336 C68.32121063 187.95577072 69.02889587 187.23209808 69.75802612 186.48649597 C70.52261139 185.716548 71.28719666 184.94660004 72.07495117 184.15332031 C72.8616922 183.35755081 73.64843323 182.56178131 74.45901489 181.74189758 C76.12235851 180.06405866 77.78851788 178.38900716 79.45727539 176.71655273 C82.01587474 174.14601098 84.55523378 171.55741375 87.09448242 168.96777344 C88.71182047 167.34097675 90.33027269 165.71528683 91.94995117 164.09082031 C92.71048798 163.31075119 93.47102478 162.53068207 94.25460815 161.72697449 C94.96859772 161.01906265 95.68258728 160.31115082 96.41821289 159.58178711 C97.04283417 158.95209518 97.66745544 158.32240326 98.31100464 157.67362976 C100.14526367 156.45410156 100.14526367 156.45410156 102.05651188 156.69871807 C104.44035762 157.56082037 105.60875154 158.53804139 107.39955139 160.32070923 C108.02021484 160.93146805 108.6408783 161.54222687 109.28034973 162.17149353 C109.94999252 162.84563797 110.61963531 163.51978241 111.30957031 164.21435547 C112.02400299 164.9219249 112.73843567 165.62949432 113.47451782 166.35850525 C115.84258517 168.7082257 118.19934718 171.06892083 120.55541992 173.43066406 C122.20450423 175.07518538 123.85395953 176.71933475 125.50376892 178.36312866 C128.96965638 181.82006579 132.42978183 185.28264976 135.88623047 188.74902344 C140.28311314 193.15730797 144.695483 197.54969901 149.11271 201.93758583 C152.53025159 205.33662029 155.93825852 208.74509507 159.34371758 212.15623093 C160.96429 213.77695528 162.58791015 215.39463884 164.21479988 217.00902176 C176.00935239 228.72574135 187.34092934 240.81097673 194.95776367 255.76660156 C195.31757324 256.46188965 195.67738281 257.15717773 196.0480957 257.87353516 C202.29594198 270.36643725 205.92301763 283.70602719 208.14526367 297.45410156 C208.27674805 298.22367187 208.40823242 298.99324219 208.54370117 299.78613281 C212.92056369 330.71990438 203.97169303 363.6642057 185.5222168 388.6484375 C163.94903203 416.93837979 135.2483882 434.18027587 100.14526367 439.45410156 C89.56870227 440.87720663 78.89839019 440.58762643 68.25195312 440.56762695 C66.14198305 440.56734454 64.03201287 440.56750388 61.92204285 440.56806946 C56.22038805 440.56835531 50.51875447 440.56249285 44.81710458 440.5554955 C38.84870783 440.54922667 32.88031054 440.54865538 26.91191101 440.54747009 C15.6216623 440.54436717 4.33142332 440.53616781 -6.95882112 440.5261206 C-19.81735505 440.51492718 -32.67588945 440.50944088 -45.53442705 440.50442517 C-71.97453677 440.4939843 -98.41463316 440.47565176 -124.85473633 440.45410156 C-124.85473633 410.42410156 -124.85473633 380.39410156 -124.85473633 349.45410156 C-115.29226929 349.42437256 -115.29226929 349.42437256 -105.53662109 349.39404297 C-84.49002596 349.32718103 -63.44348022 349.24964042 -42.39694309 349.16657448 C-29.63459533 349.11646576 -16.87225394 349.07002257 -4.10986328 349.03222656 C7.01461955 348.99927192 18.13905273 348.95942141 29.26348072 348.91131151 C35.15303743 348.88608115 41.04256134 348.86428956 46.93215752 348.8507576 C52.47822614 348.83790593 58.02418209 348.81581787 63.57018852 348.78671837 C65.60305562 348.7776669 67.63594086 348.77195805 69.66882706 348.76988792 C72.45088945 348.76654821 75.23263568 348.75102465 78.01463318 348.73257446 C78.81329864 348.7345092 79.61196411 348.73644393 80.43483156 348.73843729 C91.0973438 348.63320068 100.40641315 346.08343203 108.19213867 338.44628906 C114.327352 331.13122701 117.93395813 322.551437 117.46166992 312.92285156 C115.91310484 300.84022027 109.52888533 292.35247003 101.03833008 284.0065918 C100.35470398 283.32252762 99.67107788 282.63846344 98.96673584 281.93367004 C96.73381147 279.70281456 94.49049511 277.48273958 92.24682617 275.26269531 C90.68532785 273.70679969 89.12449609 272.15023484 87.56430054 270.59303284 C83.47746194 266.51758983 79.38169179 262.45124126 75.28393555 258.38677979 C71.09551467 254.22917407 66.91568677 250.0629488 62.73510742 245.89746094 C54.54683593 237.74126025 46.34909397 229.59465034 38.14526367 221.45410156 C33.61006061 225.25108665 29.2851237 229.1712151 25.11816406 233.36767578 C24.2827005 234.2029203 24.2827005 234.2029203 23.43035889 235.05503845 C21.61549468 236.87059156 19.80418456 238.6896455 17.99291992 240.50878906 C16.72518993 241.77838687 15.45723694 243.04776205 14.18907166 244.31692505 C10.87101591 247.6387773 7.55597578 250.9636229 4.24157715 254.28912354 C0.85128012 257.68969665 -2.54189139 261.08739893 -5.93481445 264.48535156 C-12.57758794 271.13881176 -19.21717579 277.79544115 -25.85473633 284.45410156 C-30.72981382 280.38667224 -35.33219414 276.12946645 -39.82470703 271.64526367 C-40.48266266 270.99227295 -41.14061829 270.33928223 -41.81851196 269.66650391 C-43.97527423 267.52423924 -46.12822229 265.37819729 -48.28051758 263.23144531 C-49.02286337 262.4919269 -49.76520916 261.75240849 -50.53005028 260.99048042 C-54.46057508 257.07489977 -58.3882482 253.1564856 -62.31347656 249.2355957 C-66.33764764 245.21689445 -70.37100391 241.20754894 -74.40665913 237.20038509 C-77.53558763 234.09021956 -80.65765283 230.97323065 -83.77797508 227.85443306 C-85.26041401 226.3749917 -86.74531828 224.8980159 -88.23287392 223.42371941 C-117.69706828 194.20343571 -133.70323056 161.94480026 -133.92114258 119.95410156 C-133.31190752 87.56247348 -117.74571042 56.6827386 -95.01928711 34.19873047 C-68.45442645 8.83541178 -36.05401895 -0.2645262 0 0 Z " fill="#0051CC" transform="translate(191.854736328125,35.5458984375)"/>
</svg>
