<?xml version="1.0" encoding="UTF-8"?>
<svg version="1.1" xmlns="http://www.w3.org/2000/svg" width="512" height="512">
<path d="M0 0 C1.34137024 0.00031723 1.34137024 0.00031723 2.70983887 0.00064087 C18.18959961 0.03698885 32.98970294 1.26067619 48.1875 4.375 C49.10257324 4.55160156 50.01764648 4.72820313 50.96044922 4.91015625 C93.45198071 13.2342727 131.06313289 35.82090616 162.1875 65.375 C162.72165527 65.88047363 163.25581055 66.38594727 163.80615234 66.90673828 C207.45458346 108.50570369 230.36952651 167.69501859 232.1875 227.375 C232.49852482 251.54756969 229.19337548 275.24353183 222.1875 298.375 C221.95804687 299.13361328 221.72859375 299.89222656 221.4921875 300.67382812 C211.07999785 334.51344447 192.67263627 364.85969641 168.1875 390.375 C167.60226562 390.9927832 167.01703125 391.61056641 166.4140625 392.24707031 C156.74436234 402.41329553 146.60022785 411.22384666 135.1875 419.375 C134.60274902 419.80441895 134.01799805 420.23383789 133.41552734 420.67626953 C86.17629577 455.26726872 23.32591347 468.64377858 -34.22363281 459.85400391 C-41.47064325 458.58836756 -48.65253263 457.06183294 -55.8125 455.375 C-56.5019873 455.21273926 -57.19147461 455.05047852 -57.90185547 454.88330078 C-61.93970172 453.89912334 -65.87034369 452.68763151 -69.8125 451.375 C-70.59061035 451.11912109 -71.3687207 450.86324219 -72.17041016 450.59960938 C-106.17304136 439.280304 -134.99277304 421.03231088 -160.8125 396.375 C-161.3070166 395.90771484 -161.8015332 395.44042969 -162.31103516 394.95898438 C-170.31811136 387.36061607 -177.20646699 379.20752052 -183.8125 370.375 C-184.53308594 369.42625 -185.25367188 368.4775 -185.99609375 367.5 C-209.24943482 336.31423264 -224.12142901 298.96780296 -228.8125 260.375 C-228.89828812 259.70303589 -228.98407623 259.03107178 -229.07246399 258.33874512 C-229.74325695 252.79772035 -230.00025025 247.32879074 -230.05078125 241.75 C-230.0605751 240.85351242 -230.07036896 239.95702484 -230.08045959 239.03337097 C-230.24740373 219.79594221 -230.24266881 201.1998915 -225.8125 182.375 C-225.58755859 181.38822266 -225.36261719 180.40144531 -225.13085938 179.38476562 C-222.26150568 167.01413606 -218.6255997 155.12049529 -213.8125 143.375 C-213.39871094 142.2921875 -212.98492187 141.209375 -212.55859375 140.09375 C-205.56406817 122.5552381 -195.49138005 106.1610185 -183.8125 91.375 C-182.75095703 89.99828125 -182.75095703 89.99828125 -181.66796875 88.59375 C-143.37406934 39.65006791 -87.91361002 8.789102 -26.30801392 1.01255798 C-17.5592277 0.01837484 -8.79568834 -0.01932377 0 0 Z M-86.8125 105.375 C-87.37501465 105.77525391 -87.9375293 106.17550781 -88.51708984 106.58789062 C-123.53886339 131.9385047 -144.46645716 168.41758346 -151.36108398 210.74267578 C-152.14305517 217.03481604 -152.05716523 223.35575662 -152.0625 229.6875 C-152.06317474 230.40464172 -152.06384949 231.12178345 -152.06454468 231.86065674 C-152.04795246 242.96193844 -151.46193008 253.56344771 -148.8125 264.375 C-148.64621094 265.09719727 -148.47992188 265.81939453 -148.30859375 266.56347656 C-142.3964316 291.86534088 -129.85904302 314.93043978 -112.109375 333.8671875 C-110.59106505 335.52493408 -109.12868045 337.23586852 -107.73046875 338.99609375 C-104.81186862 342.61610899 -101.39052797 345.42298335 -97.8125 348.375 C-96.89597656 349.14070313 -95.97945312 349.90640625 -95.03515625 350.6953125 C-86.24364056 357.76843609 -76.82769595 363.21083814 -66.8125 368.375 C-65.83539063 368.87902344 -64.85828125 369.38304687 -63.8515625 369.90234375 C-28.42693134 386.96066614 12.96817062 388.24858329 50.01171875 375.8828125 C68.59744608 369.35949144 85.12114461 360.00653325 100.1875 347.375 C101.05632812 346.64925781 101.92515625 345.92351562 102.8203125 345.17578125 C107.7456863 340.92660283 112.03257203 336.36994602 116.1875 331.375 C116.86296875 330.61058594 117.5384375 329.84617187 118.234375 329.05859375 C133.98707637 310.76423312 144.35779924 288.66543465 150.1875 265.375 C150.36684082 264.66891602 150.54618164 263.96283203 150.73095703 263.23535156 C159.71987377 225.94071984 151.11046634 184.26494288 131.875 151.625 C119.4470355 131.3996188 102.55833337 113.63373273 82.1875 101.375 C81.51976562 100.96958984 80.85203125 100.56417969 80.1640625 100.14648438 C65.62301007 91.41349599 50.68164475 85.29249317 34.1875 81.375 C33.5083252 81.20838867 32.82915039 81.04177734 32.12939453 80.87011719 C-8.20214842 71.36065405 -53.33022718 81.54048909 -86.8125 105.375 Z " fill="#0051CC" transform="translate(254.8125,24.625)"/>
<path d="M0 0 C1.32451172 1.12341797 1.32451172 1.12341797 2.67578125 2.26953125 C3.40410156 2.88441406 4.13242187 3.49929687 4.8828125 4.1328125 C18.15374004 16.35672406 26.23447718 34.60994866 27.01171875 52.53125 C27.36428684 73.54354144 22.26144439 92.71235208 8.140625 108.8125 C-6.79915388 123.70492618 -25.58379592 131.42180093 -46.44921875 131.51953125 C-48.06570312 131.55046875 -48.06570312 131.55046875 -49.71484375 131.58203125 C-68.8812811 131.67439962 -86.30125329 123.13310335 -100.07421875 110.08203125 C-115.51548817 93.95102213 -121.06227434 74.37432325 -120.6328125 52.6015625 C-119.75932801 32.29395417 -110.02994419 15.22808966 -95.38671875 1.45703125 C-68.60655915 -21.6563065 -27.54590781 -22.0002416 0 0 Z " fill="#0051CC" transform="translate(302.32421875,200.73046875)"/>
</svg>
