<?xml version="1.0" encoding="UTF-8"?>
<svg version="1.1" xmlns="http://www.w3.org/2000/svg" width="800" height="800">
<path d="M0 0 C3.64523698 0.01611208 7.28936587 0.00000862 10.93457031 -0.01904297 C32.31496413 -0.0383885 53.61476525 1.68654174 74.64550781 5.64111328 C75.78391113 5.8516333 76.92231445 6.06215332 78.09521484 6.27905273 C146.39401472 19.30240699 211.26614474 49.40865518 263.64550781 95.39111328 C264.37769531 96.02404297 265.10988281 96.65697266 265.86425781 97.30908203 C267.80310551 98.99018608 269.72473637 100.6894115 271.64550781 102.39111328 C272.33 102.98279297 273.01449219 103.57447266 273.71972656 104.18408203 C279.64652806 109.38638488 285.24855128 114.8878585 290.83300781 120.45361328 C291.59339355 121.20940674 292.3537793 121.9652002 293.13720703 122.74389648 C297.84517386 127.46469856 302.31137248 132.32660467 306.64550781 137.39111328 C307.50273438 138.36693359 308.35996094 139.34275391 309.24316406 140.34814453 C321.15530922 154.14810984 331.89617077 168.99047839 341.64550781 184.39111328 C342.09571289 185.10219238 342.54591797 185.81327148 343.00976562 186.54589844 C370.52886945 230.40859614 388.99966674 278.50419059 398.39550781 329.39111328 C398.58209961 330.38361084 398.76869141 331.3761084 398.9609375 332.39868164 C402.89290028 354.93334623 404.16941848 377.48696236 404.02050781 400.32861328 C404.01402725 402.22743256 404.01402725 402.22743256 404.00741577 404.16461182 C403.93446483 422.41846213 403.53326551 440.33694309 400.64550781 458.39111328 C400.39607422 460.05787109 400.39607422 460.05787109 400.14160156 461.75830078 C388.78956489 536.59765363 355.86392168 607.70804923 305.64550781 664.39111328 C304.8759375 665.26123047 304.10636719 666.13134766 303.31347656 667.02783203 C301.10663437 669.49710951 298.87893469 671.94586389 296.64550781 674.39111328 C295.66498036 675.47699778 294.68451535 676.56293866 293.70410156 677.64892578 C288.97507703 682.86127897 284.29211298 687.95159161 278.87988281 692.46923828 C276.45180367 694.55772593 274.1378874 696.74246043 271.81420898 698.94555664 C264.43281334 705.92307028 256.75379765 712.28168614 248.64550781 718.39111328 C247.93265625 718.93380859 247.21980469 719.47650391 246.48535156 720.03564453 C230.68802508 732.03944493 214.22493145 742.78169537 196.77685547 752.23291016 C195.30655419 753.03189175 193.8403017 753.83835371 192.37744141 754.65087891 C176.97172996 763.19729783 160.99376377 769.90435165 144.64550781 776.39111328 C143.83210937 776.71982422 143.01871094 777.04853516 142.18066406 777.38720703 C113.03155371 789.16627025 81.73571526 795.48939356 50.64550781 799.39111328 C49.37868164 799.56690918 48.11185547 799.74270508 46.80664062 799.92382812 C39.64381326 800.70328958 32.42826831 800.59768044 25.23144531 800.62939453 C24.43991688 800.63347006 23.64838844 800.63754559 22.8328743 800.64174461 C18.6214958 800.66254463 14.41014903 800.67685759 10.19873047 800.6862793 C6.78578222 800.69502921 3.37325586 800.71564544 -0.03955078 800.74780273 C-39.92257132 801.1150437 -77.17993207 795.48734413 -115.55566406 784.20947266 C-118.2392864 783.42479872 -120.92812673 782.66213332 -123.62011719 781.90673828 C-125.17753796 781.46448435 -126.7348386 781.02180703 -128.29199219 780.57861328 C-128.99026123 780.38388428 -129.68853027 780.18915527 -130.40795898 779.98852539 C-133.35940223 779.13238443 -135.14453893 778.60106654 -137.35449219 776.39111328 C-138.87743326 775.67546241 -140.42823246 775.01840058 -141.99121094 774.39501953 C-143.42823364 773.81324951 -143.42823364 773.81324951 -144.89428711 773.21972656 C-146.45240112 772.59300049 -146.45240112 772.59300049 -148.04199219 771.95361328 C-192.82493571 753.56751617 -232.97204476 727.94759789 -268.47167969 695.05126953 C-271.34204124 692.40260257 -274.25294454 689.80402364 -277.16699219 687.20361328 C-280.98157296 683.74476816 -284.44202355 680.18124185 -287.75292969 676.24267578 C-289.33231862 674.41674808 -290.99156189 672.75305754 -292.72949219 671.07861328 C-296.86330968 666.99966947 -300.43183218 662.51393146 -304.05615234 657.98388672 C-305.38208228 656.35726639 -306.74368933 654.76761349 -308.11621094 653.18017578 C-324.56555943 633.91425033 -338.51276593 611.73780011 -350.35449219 589.39111328 C-350.84320801 588.47265625 -351.33192383 587.55419922 -351.83544922 586.60791016 C-379.06136236 534.96683861 -396.33459563 475.23314561 -396.55761719 416.51611328 C-396.56331726 415.31212891 -396.56901733 414.10814453 -396.57489014 412.86767578 C-396.58428394 410.3263434 -396.59085157 407.78499914 -396.59472656 405.24365234 C-396.6043261 401.45663576 -396.63536066 397.67018804 -396.66699219 393.88330078 C-396.76125069 372.21302434 -395.11311819 350.70932198 -391.10449219 329.39111328 C-390.89397217 328.25270996 -390.68345215 327.11430664 -390.46655273 325.94140625 C-378.782557 264.66664778 -353.52956498 206.83012611 -315.35449219 157.39111328 C-314.60683594 156.42173828 -313.85917969 155.45236328 -313.08886719 154.45361328 C-311.20972976 152.07031703 -309.29553843 149.72421243 -307.35449219 147.39111328 C-306.52820313 146.39208984 -305.70191406 145.39306641 -304.85058594 144.36376953 C-295.60098863 133.25756832 -285.7999747 122.75825196 -275.60449219 112.51611328 C-274.90759277 111.81454102 -274.21069336 111.11296875 -273.49267578 110.39013672 C-268.94242815 105.85390976 -264.23053197 101.57315109 -259.35449219 97.39111328 C-258.37867188 96.53388672 -257.40285156 95.67666016 -256.39746094 94.79345703 C-242.59749563 82.88131188 -227.75512708 72.14045033 -212.35449219 62.39111328 C-211.64341309 61.9409082 -210.93233398 61.49070313 -210.19970703 61.02685547 C-166.33700933 33.50775164 -118.24141488 15.03695436 -67.35449219 5.64111328 C-66.36199463 5.45452148 -65.36949707 5.26792969 -64.34692383 5.07568359 C-43.02818285 1.35588135 -21.61950832 -0.11299395 0 0 Z " fill="#8CC63F" transform="translate(396.3544921875,-0.39111328125)"/>
<path d="M0 0 C1.15242188 0.16628906 2.30484375 0.33257812 3.4921875 0.50390625 C37.69860408 5.64629627 70.51154874 15.81813121 102 30 C102.78262207 30.34611328 103.56524414 30.69222656 104.37158203 31.04882812 C132.4048391 43.48707395 158.39046467 60.48524345 182 80 C182.969375 80.79535156 183.93875 81.59070313 184.9375 82.41015625 C198.31610771 93.49386295 211.54807526 105.34469568 222.87890625 118.54296875 C224.51528547 120.43851669 226.16902826 122.310978 227.83984375 124.17578125 C245.98828229 144.56535792 261.23231596 167.25627419 274.0612793 191.32446289 C274.96100417 192.93039574 275.97891081 194.46836622 277 196 C277 197.32 277 198.64 277 200 C277.66 200 278.32 200 279 200 C297.71278425 239.33320802 310.42748037 279.72938504 316 323 C316.11859375 323.88494141 316.2371875 324.76988281 316.359375 325.68164062 C325.39849083 396.00380959 311.22475809 471.14576887 279 534 C278.34 534 277.68 534 277 534 C276.91878906 534.82757812 276.83757813 535.65515625 276.75390625 536.5078125 C275.82490223 540.81107464 274.10059723 544.07168618 271.9375 547.875 C271.50703369 548.64021973 271.07656738 549.40543945 270.63305664 550.19384766 C259.48179876 569.60893258 246.33715641 587.83283392 232 605 C231.19949219 605.98742187 230.39898438 606.97484375 229.57421875 607.9921875 C222.9699979 616.02617545 215.76767859 623.44664499 208.4375 630.8125 C207.95480652 631.30036987 207.47211304 631.78823975 206.97479248 632.29089355 C201.06597656 638.24961205 194.97964584 643.83783078 188.40087891 649.05834961 C186.1545837 650.87498432 184.03954626 652.76982756 181.9375 654.75 C174.81376554 661.14734294 166.83218847 666.51729732 159 672 C158.35756348 672.45165527 157.71512695 672.90331055 157.05322266 673.36865234 C119.53865687 699.57939416 76.3429243 718.05075713 31.875 728.5 C30.79009277 728.75563721 29.70518555 729.01127441 28.58740234 729.2746582 C23.27623176 730.46567082 18.44400708 731.30844233 13 731 C11.0215163 711.9570944 10.61270393 691.6915076 15 673 C15.33724685 671.4573169 15.67316695 669.91434322 16.0078125 668.37109375 C20.52799675 648.14403797 26.96605409 628.6635366 36 610 C36.44311523 609.08347656 36.88623047 608.16695312 37.34277344 607.22265625 C38.77995692 604.26784626 40.22982554 601.31975235 41.6875 598.375 C42.13907471 597.46218262 42.59064941 596.54936523 43.0559082 595.60888672 C45.47549173 590.79457688 48.03025021 586.17933337 50.99536133 581.67822266 C52.16762076 579.85705139 52.16762076 579.85705139 53 577 C53.66 577 54.32 577 55 577 C55.23976563 576.32582031 55.47953125 575.65164063 55.7265625 574.95703125 C57.29155443 571.32298557 59.27686233 568.02981084 61.375 564.6875 C61.81126709 563.99108398 62.24753418 563.29466797 62.69702148 562.57714844 C67.28378464 555.37480644 72.38622174 548.59843717 77.59228516 541.83691406 C79.67375558 539.12082259 81.70922287 536.37179469 83.75 533.625 C90.69498133 524.37747109 98.04558542 515.49715462 105.55126953 506.703125 C106.97737312 505.02660012 108.3938283 503.34234708 109.80859375 501.65625 C123.69331159 485.1794999 138.89422461 469.93854005 154.13916016 454.73046875 C156.54707416 452.32832492 158.95036615 449.92161405 161.35243225 447.51362419 C163.69084932 445.17070216 166.03309202 442.83162017 168.375 440.4921875 C169.22408936 439.64107391 170.07317871 438.78996033 170.94799805 437.91305542 C175.24783834 433.62997623 179.60211861 429.4970069 184.24658203 425.58816528 C186.81890721 423.25827155 188.9762867 420.62056438 191.2109375 417.97265625 C193.06090323 415.93284688 195.01465828 414.204022 197.125 412.4375 C200.26060283 409.78845623 202.41445394 407.14289017 204.6640625 403.73828125 C206.20758159 401.72990115 207.9157018 400.29022094 209.875 398.6875 C214.5720084 394.72796581 217.63310156 390.09260998 221 385 C221.7852969 383.87886336 222.57455768 382.76049565 223.3671875 381.64453125 C223.77267822 381.07105957 224.17816895 380.49758789 224.59594727 379.90673828 C225.75793103 378.26461714 226.91997954 376.62254181 228.08203125 374.98046875 C229.77679153 372.34685959 230.97118737 369.94490812 232 367 C232.66 367 233.32 367 234 367 C234.18175781 366.3709375 234.36351562 365.741875 234.55078125 365.09375 C235.75454579 360.99477742 236.97560219 356.92997045 238.5 352.9375 C238.73041992 352.32938477 238.96083984 351.72126953 239.19824219 351.09472656 C239.71106506 349.75489092 240.23937768 348.42081735 240.78735352 347.0949707 C243.30453814 340.49002339 243.50147688 334.26562306 243.4375 327.25 C243.42992676 326.09491943 243.42235352 324.93983887 243.41455078 323.74975586 C243.16888136 311.05474371 240.13809862 300.68675336 233 290 C232.34 289.67 231.68 289.34 231 289 C230.731875 288.4225 230.46375 287.845 230.1875 287.25 C227.98125051 283.06973781 224.32210784 280.2339342 220.6875 277.3125 C219.800625 276.549375 218.91375 275.78625 218 275 C218 274.34 218 273.68 218 273 C217.01 272.67 216.02 272.34 215 272 C215 271.34 215 270.68 215 270 C214.17822266 269.59587891 214.17822266 269.59587891 213.33984375 269.18359375 C210.71945298 267.85808723 208.14090634 266.46792815 205.5625 265.0625 C204.63566406 264.55847656 203.70882812 264.05445313 202.75390625 263.53515625 C201.39072266 262.77525391 201.39072266 262.77525391 200 262 C199.06027344 261.48308594 198.12054687 260.96617187 197.15234375 260.43359375 C196.44207031 259.96050781 195.73179687 259.48742187 195 259 C195 258.34 195 257.68 195 257 C194.12859375 256.71898437 193.2571875 256.43796875 192.359375 256.1484375 C189.25703314 255.08786947 186.26708021 253.90522052 183.25 252.625 C165.2089087 245.04508203 146.66643731 237.86921285 127.5625 233.4375 C123.68448784 232.52209869 120.17140225 231.31248901 116.51953125 229.72265625 C109.81162077 226.87773518 102.99609938 224.41886887 96.125 222 C93.7734375 221.16666667 91.421875 220.33333333 89.0703125 219.5 C84.59381135 217.91598721 84.59381135 217.91598721 80.1156311 216.33673096 C78.24177357 215.6769317 76.36892479 215.01426981 74.49609375 214.3515625 C73.39450928 213.96307129 72.2929248 213.57458008 71.15795898 213.17431641 C66.32133738 211.3757737 61.60790983 209.32268625 57 207 C56.13890625 206.59007812 55.2778125 206.18015625 54.390625 205.7578125 C51.22084745 203.42709371 50.36038921 201.09715128 48.8125 197.5 C42.24929177 183.46379587 31.86366591 175.57777117 17.89453125 169.69140625 C-1.40538603 162.7311983 -25.3898557 162.51187062 -45.01879883 168.62915039 C-52.05306399 170.65209202 -58.03131374 169.24953966 -65.0625 167.6875 C-67.32375215 167.21002445 -69.58546207 166.73471101 -71.84765625 166.26171875 C-72.83773682 166.04475342 -73.82781738 165.82778809 -74.84790039 165.60424805 C-81.83281312 164.26526121 -88.60969144 163.82275999 -95.703125 163.76171875 C-96.62099792 163.753647 -97.53887085 163.74557526 -98.48455811 163.73725891 C-100.42425696 163.72349017 -102.36397931 163.71273612 -104.30371094 163.70483398 C-106.24649389 163.69340396 -108.18924773 163.67309778 -110.13183594 163.64331055 C-128.39368468 163.36430142 -145.08212624 166.03752249 -162.5 171.5625 C-163.57475586 171.89983154 -164.64951172 172.23716309 -165.75683594 172.5847168 C-215.73066262 188.64052129 -264.80013536 213.7216879 -290 262 C-290.33 262.99 -290.66 263.98 -291 265 C-291.66 265 -292.32 265 -293 265 C-293.10699219 265.68191406 -293.21398437 266.36382812 -293.32421875 267.06640625 C-294.12803175 270.555791 -295.42146353 273.63775021 -296.8125 276.9375 C-300.8139125 286.67792303 -303.96789792 296.47255883 -305 307 C-305.33 307.33 -305.66 307.66 -306 308 C-309.11528963 323.11821418 -310.21044127 338.57236974 -311.56100464 353.92385864 C-311.94386926 358.27414309 -312.33819039 362.62334536 -312.73461914 366.97241211 C-313.25882699 372.72913646 -313.78138722 378.48600324 -314.30078125 384.24316406 C-314.36160417 384.91713824 -314.42242708 385.59111242 -314.48509312 386.28551006 C-314.75390994 389.26574656 -315.02204337 392.24604231 -315.2890625 395.22644043 C-320.86024279 457.40590556 -330.629781 518.08489131 -355 576 C-357.4865818 575.6288338 -358.70061719 575.33689723 -360.39697266 573.42797852 C-360.8151123 572.75178467 -361.23325195 572.07559082 -361.6640625 571.37890625 C-362.14101563 570.61819824 -362.61796875 569.85749023 -363.109375 569.07373047 C-363.60953125 568.24502441 -364.1096875 567.41631836 -364.625 566.5625 C-365.15351563 565.70285645 -365.68203125 564.84321289 -366.2265625 563.95751953 C-367.83736763 561.31624442 -369.42390157 558.6621115 -371 556 C-371.44182617 555.25443848 -371.88365234 554.50887695 -372.33886719 553.74072266 C-405.41028698 497.32248615 -422.20901729 433.32920017 -422.25 368.0625 C-422.25067474 367.09223877 -422.25134949 366.12197754 -422.25204468 365.12231445 C-422.23349177 348.23674183 -421.42052329 331.73401142 -419 315 C-418.83371094 313.84757812 -418.66742188 312.69515625 -418.49609375 311.5078125 C-409.51152884 251.74381777 -385.93611018 192.45083496 -348.40429688 144.78955078 C-346.99694432 142.99610603 -345.61366489 141.18618055 -344.234375 139.37109375 C-338.3483225 131.67749681 -332.03456138 124.52510338 -325.38720703 117.484375 C-323.32242305 115.27496166 -321.31952584 113.01183086 -319.3125 110.75 C-313.3674668 104.12890706 -307.15367057 97.83393261 -300.38671875 92.05078125 C-298.51493741 90.4424585 -296.66970346 88.81458782 -294.83203125 87.16796875 C-285.02748809 78.4409813 -274.71263877 70.57820002 -264 63 C-263.35063477 62.53996582 -262.70126953 62.07993164 -262.03222656 61.60595703 C-251.93096662 54.51466849 -241.29333273 48.38359426 -230.51025391 42.39453125 C-228.94453415 41.52472078 -227.38125954 40.65047614 -225.82177734 39.76953125 C-186.18266969 17.40754128 -140.91453869 4.76656364 -96 -1 C-95.15856445 -1.11714355 -94.31712891 -1.23428711 -93.45019531 -1.35498047 C-62.998249 -5.50527611 -30.35310912 -4.39048389 0 0 Z " fill="#F9E887" transform="translate(452,33)"/>
<path d="M0 0 C15.75859228 15.75859228 22.74085677 33.38013769 22.7512207 55.54858398 C22.30379436 73.94106366 14.32397076 90.45132676 1.3125 103.3125 C0.55195313 104.09496094 -0.20859375 104.87742187 -0.9921875 105.68359375 C-7.49487435 112.00505818 -14.48834572 115.69580574 -22.6875 119.3125 C-23.80125 119.82103516 -23.80125 119.82103516 -24.9375 120.33984375 C-40.83909802 126.99863792 -59.80943215 125.82986099 -75.60839844 119.54882812 C-83.3751975 116.19086523 -90.38171307 111.96759597 -96.6875 106.3125 C-97.44675781 105.63445312 -98.20601563 104.95640625 -98.98828125 104.2578125 C-111.58211096 92.3624641 -120.24318963 75.5506096 -120.8671875 58.1171875 C-121.37854185 35.00592832 -114.95112355 17.27132873 -99.125 0.1875 C-71.69311551 -26.19576506 -27.50629664 -26.09571732 0 0 Z " fill="#FDFDFD" transform="translate(396.6875,256.6875)"/>
<path d="M0 0 C0.7317041 0.51965332 1.4634082 1.03930664 2.21728516 1.57470703 C11.51216542 8.2101188 20.53023472 15.0744052 29.16015625 22.5546875 C31.72970652 24.76725761 34.34013814 26.89764518 37 29 C41.45414234 32.53010632 45.79051606 36.18437127 50.11767578 39.86767578 C53.50368895 42.74603485 56.92107244 45.57798585 60.375 48.375 C81.93376067 65.96569892 103.99359642 84.87234989 121 107 C122.175625 108.46759766 122.175625 108.46759766 123.375 109.96484375 C170.14601508 168.71402627 194.66847884 247.24818684 186.77246094 322.15869141 C185.42937303 333.71188091 185.42937303 333.71188091 184 338 C183.34 338 182.68 338 182 338 C180.59600341 332.55540068 179.38637083 327.1163222 178.3359375 321.59375 C178.02037419 319.96301878 177.70418598 318.33240839 177.38745117 316.7019043 C177.22296478 315.85429535 177.05847839 315.0066864 176.88900757 314.13339233 C167.05630943 263.75796305 152.30637887 215.21380793 131.08935547 168.40917969 C130.07578682 166.16760742 129.08483358 163.91734549 128.09765625 161.6640625 C122.8679403 149.93287452 116.34742091 138.97241716 109.76513672 127.95849609 C108.10339682 125.1733005 106.45752841 122.37941029 104.81640625 119.58203125 C72.45211456 64.65544287 32.12429876 30.58828971 -27.125 7.5 C-28.53797363 6.94673538 -28.53797363 6.94673538 -29.97949219 6.3822937 C-36.3124926 3.90280999 -42.65397389 1.44592213 -49 -1 C-49.66849976 -1.25883972 -50.33699951 -1.51767944 -51.02575684 -1.78436279 C-84.62380533 -14.7913332 -120.40484716 -24.361268 -156 -30 C-156 -30.99 -156 -31.98 -156 -33 C-154.39717783 -33.31932434 -152.7926221 -33.62994514 -151.1875 -33.9375 C-149.84751953 -34.19853516 -149.84751953 -34.19853516 -148.48046875 -34.46484375 C-98.41724134 -42.16255661 -41.2349899 -29.50030354 0 0 Z " fill="#FEFEFE" transform="translate(563,87)"/>
<path d="M0 0 C5.70810625 4.56211934 9.25377802 10.15193268 12.85546875 16.4453125 C13.45359375 17.4765625 14.05171875 18.5078125 14.66796875 19.5703125 C20.08623867 32.68822916 18.82651261 47.01158941 13.859375 60.0625 C7.9071088 73.28518133 -3.38038882 82.56988841 -16.72265625 87.71875 C-30.1571396 91.749095 -44.81268093 90.46537579 -57.078125 83.8671875 C-70.35094093 75.87108129 -78.91054717 64.25188945 -82.73046875 49.125 C-85.25975142 32.75624611 -81.19310625 19.58793769 -71.58984375 6.29296875 C-53.38970699 -16.39189071 -22.16335014 -16.06741959 0 0 Z " fill="#58595B" transform="translate(380.14453125,270.5546875)"/>
<path d="M0 0 C0 3 0 3 -1.3190918 4.41943359 C-1.93953369 4.90750488 -2.55997559 5.39557617 -3.19921875 5.8984375 C-3.90232178 6.45337891 -4.6054248 7.00832031 -5.32983398 7.58007812 C-6.49687866 8.46856445 -6.49687866 8.46856445 -7.6875 9.375 C-8.49840088 9.99568359 -9.30930176 10.61636719 -10.14477539 11.25585938 C-52.37180759 43.00974941 -103.49452394 61.7934711 -154.875 72.3125 C-155.65286865 72.47210205 -156.4307373 72.6317041 -157.23217773 72.79614258 C-179.50743455 77.15397882 -205.1344466 77.22668282 -227 71 C-227.99821777 70.73509766 -227.99821777 70.73509766 -229.01660156 70.46484375 C-244.76550081 66.22747175 -259.03837938 58.14497739 -270 46 C-270 45.34 -270 44.68 -270 44 C-266.43280335 45.32495876 -263.13693442 46.96801188 -259.78710938 48.76708984 C-253.36837709 52.1653356 -246.99833249 54.90909015 -240 56.875 C-239.33846924 57.06553955 -238.67693848 57.2560791 -237.99536133 57.45239258 C-224.00031168 61.1234158 -209.75405442 61.29767576 -195.39086914 61.20581055 C-192.43822569 61.1875045 -189.48589765 61.18530214 -186.53320312 61.18554688 C-169.72416546 61.15858432 -153.73763813 60.08000396 -137.23022461 56.78125 C-134.57197796 56.25188744 -131.91048083 55.74220554 -129.24804688 55.234375 C-118.56201311 53.15627716 -108.32074885 50.44332994 -98 47 C-96.01720792 46.38032882 -94.03296839 45.76525726 -92.046875 45.15625 C-90.2811573 44.60446322 -88.51552948 44.05238872 -86.75 43.5 C-85.8734375 43.23058594 -84.996875 42.96117187 -84.09375 42.68359375 C-53.95397706 33.20983471 -26.09778706 17.48963457 0 0 Z " fill="#5C5F5C" transform="translate(675,413)"/>
<path d="M0 0 C7.41262091 5.9705752 13.22195814 14.2701557 17 23 C17 23.99 17 24.98 17 26 C13.81595857 24.74645415 10.68200864 23.42696694 7.5703125 22.00390625 C-13.58865937 12.47139495 -35.53780752 4.18327296 -58.06201172 -1.50585938 C-60.07973402 -2.02033027 -62.08883961 -2.56121206 -64.09765625 -3.109375 C-70.6992555 -4.90820863 -77.30370406 -6.59025349 -84 -8 C-81.29860566 -10.70139434 -79.03890797 -10.80613026 -75.3125 -11.5625 C-74.11238281 -11.81128906 -72.91226562 -12.06007812 -71.67578125 -12.31640625 C-46.96826841 -16.91132097 -21.11835266 -14.43383207 0 0 Z " fill="#049344" transform="translate(487,211)"/>
<path d="M0 0 C3.60138734 2.43915618 6.40396461 4.92685484 7.96484375 9.05859375 C8.89465404 15.88107679 8.13882865 20.56650836 3.96484375 26.05859375 C0.51686702 29.18582846 -2.02863792 30.30456832 -6.59765625 30.43359375 C-11.74376127 30.16637557 -14.76634443 29.15036206 -18.72265625 25.74609375 C-22.44667817 21.41817638 -23.50822907 17.88934539 -23.35546875 12.1171875 C-22.65991935 7.64701026 -20.32032057 4.2634353 -17.03515625 1.18359375 C-12.09975549 -1.59256918 -5.20442103 -2.40741933 0 0 Z " fill="#FDFDFB" transform="translate(611.03515625,365.94140625)"/>
<path d="M0 0 C0 3 0 3 -1.54125977 4.56225586 C-2.25080811 5.10760986 -2.96035645 5.65296387 -3.69140625 6.21484375 C-4.47193359 6.81876953 -5.25246094 7.42269531 -6.05664062 8.04492188 C-6.88357422 8.66947266 -7.71050781 9.29402344 -8.5625 9.9375 C-9.36236328 10.55818359 -10.16222656 11.17886719 -10.98632812 11.81835938 C-15.49352971 15.27326736 -19.99354239 18.31868915 -25 21 C-24.44933104 17.1453173 -22.82449713 15.58677373 -20 13 C-18.44153597 11.87883632 -16.85065538 10.80170216 -15.234375 9.765625 C-14.34492187 9.19199219 -13.45546875 8.61835938 -12.5390625 8.02734375 C-11.61867188 7.44082031 -10.69828125 6.85429687 -9.75 6.25 C-8.81414063 5.64800781 -7.87828125 5.04601562 -6.9140625 4.42578125 C-4.61221002 2.94601894 -2.30749196 1.47094667 0 0 Z " fill="#62705F" transform="translate(675,413)"/>
<path d="M0 0 C0.66 0.33 1.32 0.66 2 1 C-5.26 8.26 -12.52 15.52 -20 23 C-20 18.83991091 -18.29799047 17.76711021 -15.5 14.75 C-15.04947266 14.26345947 -14.59894531 13.77691895 -14.13476562 13.27563477 C-10.80730237 9.73169867 -7.31710257 6.46044047 -3.59375 3.33984375 C-1.88454535 1.94203128 -1.88454535 1.94203128 0 0 Z " fill="#AECF50" transform="translate(198,249)"/>
</svg>
