<?xml version="1.0" encoding="UTF-8"?>
<svg version="1.1" xmlns="http://www.w3.org/2000/svg" width="312" height="298">
<path d="M0 0 C1.94140625 1.70703125 1.94140625 1.70703125 3.5625 3.8125 C6.14678961 7.0072068 8.69714526 9.52285894 12 12 C13.8125 13.625 13.8125 13.625 15 15 C15 15.66 15 16.32 15 17 C16.485 17.495 16.485 17.495 18 18 C19.6875 19.5625 19.6875 19.5625 21 21 C21.45375 20.34 21.9075 19.68 22.375 19 C22.91125 18.34 23.4475 17.68 24 17 C24.66 17 25.32 17 26 17 C26.495 15.515 26.495 15.515 27 14 C27.66 14 28.32 14 29 14 C29.20625 13.46375 29.4125 12.9275 29.625 12.375 C31.53250426 9.08021991 34.04819384 6.40636372 37 4 C37.66 4 38.32 4 39 4 C39 3.34 39 2.68 39 2 C40.22265625 0.3671875 40.22265625 0.3671875 42 -1 C52.09083042 -1.88079355 63.34912716 2.80156353 72.90405273 5.54711914 C74.97645803 6.14007508 77.05025844 6.72777046 79.125 7.3125 C79.8876416 7.5276123 80.6502832 7.74272461 81.43603516 7.96435547 C85.83858681 9.18585731 90.2496587 10.3106286 94.703125 11.33203125 C95.64784668 11.54883545 96.59256836 11.76563965 97.56591797 11.98901367 C99.40666853 12.40576625 101.24941726 12.81381069 103.09423828 13.2121582 C103.93712402 13.40253662 104.78000977 13.59291504 105.6484375 13.7890625 C106.39270996 13.95100098 107.13698242 14.11293945 107.90380859 14.27978516 C110.63555731 15.21836642 111.987526 15.8675411 114 18 C115.19737109 21.01759843 115.89629058 24.12561902 116.62109375 27.28515625 C116.84773209 28.21484726 117.07437042 29.14453827 117.30787659 30.10240173 C118.03225116 33.08582323 118.73557781 36.07372448 119.4375 39.0625 C120.13755538 41.98606115 120.84200622 44.90852661 121.54800415 47.83065796 C122.01290736 49.75662746 122.47513315 51.68324525 122.93466187 53.61050415 C124.59408979 60.51687529 126.43271123 67.35739211 128.50523376 74.15187073 C129.80002983 78.56521211 130.58059582 82.41507478 130 87 C128.07226562 89.72241211 128.07226562 89.72241211 125.40625 92.27734375 C124.94013306 92.73355606 124.47401611 93.18976837 123.99377441 93.6598053 C122.51154661 95.10306709 121.0068364 96.51999507 119.5 97.9375 C118.48669044 98.91567243 117.47495242 99.89547565 116.46484375 100.87695312 C113.9915541 103.26779978 111.50344518 105.64081363 109 108 C110.49749315 111.56094028 112.53728358 113.68364618 115.3515625 116.30078125 C116.20234375 117.11353516 117.053125 117.92628906 117.9296875 118.76367188 C119.7248649 120.46128529 121.52959184 122.14885754 123.34375 123.82617188 C129.80938967 130.05106964 129.80938967 130.05106964 130.72265625 134.59765625 C129.89498648 138.494415 128.97393091 142.31649761 127.8125 146.125 C125.8162577 152.95985898 124.04509029 159.81349911 122.4375 166.75 C120.76912515 173.91749478 118.9370801 180.98198459 116.83203125 188.03515625 C116.07129937 190.74593322 115.50907747 193.42077462 115 196.1875 C113.90528832 200.36108828 113.52021372 200.88230499 110 203 C107.81201172 203.72021484 107.81201172 203.72021484 105.4296875 204.2109375 C104.54240967 204.40115479 103.65513184 204.59137207 102.7409668 204.78735352 C101.79519775 204.98127686 100.84942871 205.1752002 99.875 205.375 C92.74731155 206.91009539 85.69541402 208.54766631 78.6875 210.5625 C72.05126802 212.46631269 65.39248591 214.14820208 58.6550293 215.65649414 C55.62267063 216.34300252 52.74697595 217.0937934 49.828125 218.17578125 C46.55571271 219.12948152 45.22686591 219.03216752 42 218 C39.50463867 215.95874023 39.50463867 215.95874023 36.91796875 213.30859375 C36.45892654 212.84389175 35.99988434 212.37918976 35.52693176 211.90040588 C34.07075265 210.42193317 32.62914096 208.93013843 31.1875 207.4375 C30.19949902 206.42942493 29.21057596 205.4222527 28.22070312 204.41601562 C25.80303607 201.95437546 23.39823416 199.48059327 21 197 C17.11825848 200.19940414 13.49915132 203.44540802 10.0625 207.12109375 C9.39476562 207.82814453 8.72703125 208.53519531 8.0390625 209.26367188 C6.66598393 210.72749989 5.30676628 212.2044396 3.9609375 213.69335938 C-1.07494032 218.95769884 -1.07494032 218.95769884 -5.24609375 219.1484375 C-6.48488281 218.76945313 -7.72367187 218.39046875 -9 218 C-10.88481662 217.56842984 -12.77177387 217.14615912 -14.66015625 216.73046875 C-16.7952735 216.22032419 -18.92935233 215.70581858 -21.0625 215.1875 C-22.74520996 214.78156616 -22.74520996 214.78156616 -24.46191406 214.36743164 C-31.15752018 212.73718445 -37.77583169 210.97411202 -44.37890625 209.00390625 C-50.19882761 207.39040054 -56.09013204 206.06766149 -61.98339844 204.74975586 C-62.84868164 204.5513208 -63.71396484 204.35288574 -64.60546875 204.1484375 C-65.38043701 203.97489746 -66.15540527 203.80135742 -66.95385742 203.62255859 C-69 203 -69 203 -72 201 C-72.80859375 199.21484375 -72.80859375 199.21484375 -73.4375 196.9375 C-73.68242188 196.05449219 -73.92734375 195.17148438 -74.1796875 194.26171875 C-75.36610504 189.54429662 -76.48546086 184.81159557 -77.55444336 180.06616211 C-78.49176296 175.9460498 -79.66110011 172.01144908 -81 168 C-81.64957308 165.33620451 -82.27512127 162.67471387 -82.875 160 C-84.41211176 153.25419546 -86.20797639 146.65899889 -88.265625 140.05078125 C-89.02871679 136.88070311 -89.24768008 134.24736109 -89 131 C-86.36058858 126.83785122 -82.75630404 124.13025337 -79 121 C-78.360625 120.195625 -77.72125 119.39125 -77.0625 118.5625 C-74.39692434 115.25072418 -71.28168107 112.68249773 -68 110 C-69.49749315 106.43905972 -71.53728358 104.31635382 -74.3515625 101.69921875 C-75.20234375 100.88646484 -76.053125 100.07371094 -76.9296875 99.23632812 C-78.7248649 97.53871471 -80.52959184 95.85114246 -82.34375 94.17382812 C-88.8268841 87.93208732 -88.8268841 87.93208732 -89.69140625 83.27734375 C-89.01607552 80.07619976 -88.30150686 76.99447619 -87.3125 73.875 C-85.46934751 67.77240677 -83.93430366 61.64838898 -82.5 55.4375 C-80.88187168 48.46366477 -79.04271999 41.67929475 -76.83984375 34.8671875 C-75.73604035 31.09885404 -75.07180519 27.31738987 -74.4921875 23.4375 C-73.92980085 20.65234707 -73.40657579 18.48565035 -72 16 C-69.48046875 14.8125 -69.48046875 14.8125 -66.1875 14 C-64.93195313 13.6803125 -63.67640625 13.360625 -62.3828125 13.03125 C-60.92233678 12.68554331 -59.46136501 12.34192799 -58 12 C-56.30976601 11.59429046 -54.61966786 11.18801473 -52.9296875 10.78125 C-50.22909811 10.13460557 -47.52776297 9.49185154 -44.82421875 8.85766602 C-39.58779212 7.62931594 -34.38074722 6.33737108 -29.1875 4.9375 C-28.01703125 4.62296875 -26.8465625 4.3084375 -25.640625 3.984375 C-23.72892639 3.46747795 -21.8174477 2.94971715 -19.90820312 2.42382812 C-17.75421838 1.83356276 -15.59641785 1.25942342 -13.4375 0.6875 C-12.45463013 0.41184204 -12.45463013 0.41184204 -11.4519043 0.13061523 C-7.30469593 -0.95124196 -4.12092357 -1.26079248 0 0 Z M-21.8125 26.375 C-23.36038396 26.82133033 -24.90855963 27.26665028 -26.45703125 27.7109375 C-27.20807129 27.92717773 -27.95911133 28.14341797 -28.73291016 28.36621094 C-32.13801927 29.31814538 -35.56524639 30.16187312 -39 31 C-39.32625856 34.16039085 -39.32625856 34.16039085 -36.88867188 36.4519043 C-35.92302899 37.41707201 -34.94912397 38.37401783 -33.96875 39.32421875 C-33.45824097 39.83048294 -32.94773193 40.33674713 -32.42175293 40.85835266 C-30.78806593 42.47523405 -29.14426256 44.08138126 -27.5 45.6875 C-26.3912453 46.78121031 -25.28316353 47.87560326 -24.17578125 48.97070312 C-21.45826861 51.65512158 -18.73163639 54.3299581 -16 57 C-14.68 56.34 -13.36 55.68 -12 55 C-12 54.34 -12 53.68 -12 53 C-11.01 52.67 -10.02 52.34 -9 52 C-9 51.34 -9 50.68 -9 50 C-8.01 49.67 -7.02 49.34 -6 49 C-6 48.34 -6 47.68 -6 47 C-5.34 47 -4.68 47 -4 47 C-1.83333333 45.16666667 -1.83333333 45.16666667 0 43 C0 42.34 0 41.68 0 41 C0.99 40.67 1.98 40.34 3 40 C3 39.34 3 38.68 3 38 C3.66 37.67 4.32 37.34 5 37 C2.95234008 34.81742837 0.88896781 32.65486735 -1.1875 30.5 C-1.76564453 29.87996094 -2.34378906 29.25992188 -2.93945312 28.62109375 C-6.15999251 25.20255687 -6.15999251 25.20255687 -10.375 23.4453125 C-14.2405007 24.26212961 -18.02244835 25.26083122 -21.8125 26.375 Z M45.8515625 26.484375 C45.05685547 27.26941406 45.05685547 27.26941406 44.24609375 28.0703125 C43.71113281 28.62460938 43.17617187 29.17890625 42.625 29.75 C42.06683594 30.28882813 41.50867188 30.82765625 40.93359375 31.3828125 C39.13437984 33.14193381 39.13437984 33.14193381 37 36 C37.12893763 38.12953392 37.12893763 38.12953392 38 40 C39.31647119 40.69937532 40.65022151 41.36729133 42 42 C42.33 42.99 42.66 43.98 43 45 C43.66 45 44.32 45 45 45 C45.33 45.99 45.66 46.98 46 48 C46.66 48 47.32 48 48 48 C48 48.66 48 49.32 48 50 C49.6396721 51.36639342 51.31110128 52.6949419 53 54 C54.35147138 55.31494512 55.69112542 56.64264858 57 58 C57 57.34 57 56.68 57 56 C57.99 55.67 58.98 55.34 60 55 C61.4081132 53.61088239 61.4081132 53.61088239 62.8125 51.8125 C67.02306572 46.80903555 71.68084431 42.29209302 76.3762207 37.74926758 C76.97265381 37.1642749 77.56908691 36.57928223 78.18359375 35.9765625 C78.72556396 35.45143066 79.26753418 34.92629883 79.82592773 34.38525391 C81.21552094 33.04835763 81.21552094 33.04835763 81 31 C76.60677739 29.82334772 72.21003315 28.66042902 67.8125 27.5 C65.94368164 26.99919922 65.94368164 26.99919922 64.03710938 26.48828125 C62.83505859 26.17246094 61.63300781 25.85664062 60.39453125 25.53125 C58.73707886 25.09135742 58.73707886 25.09135742 57.04614258 24.64257812 C52.44604428 23.67219592 49.35076893 23.02603351 45.8515625 26.484375 Z M-57 48 C-57.32613281 49.17175781 -57.65226562 50.34351563 -57.98828125 51.55078125 C-58.19888184 52.3072998 -58.40948242 53.06381836 -58.62646484 53.84326172 C-59.08516512 55.49425623 -59.54251434 57.14562667 -59.99853516 58.79736328 C-60.98659594 62.37424192 -61.98374903 65.94499201 -63.03515625 69.50390625 C-63.31230469 70.45136719 -63.58945313 71.39882812 -63.875 72.375 C-64.11992188 73.18710938 -64.36484375 73.99921875 -64.6171875 74.8359375 C-65.05670907 77.32057986 -64.80430393 78.62075412 -64 81 C-62.80594291 82.60244408 -62.80594291 82.60244408 -61.27734375 84.015625 C-60.73916016 84.54414063 -60.20097656 85.07265625 -59.64648438 85.6171875 C-59.08251953 86.15601563 -58.51855469 86.69484375 -57.9375 87.25 C-57.36966797 87.80429688 -56.80183594 88.35859375 -56.21679688 88.9296875 C-54.81787531 90.29334214 -53.40980886 91.64760417 -52 93 C-50.68 92.34 -49.36 91.68 -48 91 C-48 90.34 -48 89.68 -48 89 C-46.515 88.505 -46.515 88.505 -45 88 C-45 87.34 -45 86.68 -45 86 C-43.515 85.505 -43.515 85.505 -42 85 C-42 84.34 -42 83.68 -42 83 C-40.515 82.505 -40.515 82.505 -39 82 C-39 81.34 -39 80.68 -39 80 C-38.01 79.67 -37.02 79.34 -36 79 C-36 78.34 -36 77.68 -36 77 C-35.360625 76.731875 -34.72125 76.46375 -34.0625 76.1875 C-31.66868314 75.11332248 -31.66868314 75.11332248 -31 72 C-31.66 72 -32.32 72 -33 72 C-33 71.34 -33 70.68 -33 70 C-34.61799502 68.36324492 -34.61799502 68.36324492 -36.6875 66.6875 C-40.68209263 63.28574444 -44.57946362 59.94666096 -47.6875 55.6875 C-48.120625 55.130625 -48.55375 54.57375 -49 54 C-49.66 54 -50.32 54 -51 54 C-51.2475 53.38125 -51.495 52.7625 -51.75 52.125 C-53.22047178 49.62519797 -54.41403076 49.16683978 -57 48 Z M97 48 C92.55445658 51.62901503 88.75041092 55.33003633 85.04296875 59.69921875 C80.91878945 64.34384898 76.42641024 68.64562898 72 73 C78.10946058 80.37465422 78.10946058 80.37465422 85 87 C85.66 87 86.32 87 87 87 C87.33 87.99 87.66 88.98 88 90 C88.66 90 89.32 90 90 90 C90.33 90.99 90.66 91.98 91 93 C94.87589818 91.36804287 97.82229921 88.82453501 100.875 86 C101.39835937 85.56816406 101.92171875 85.13632813 102.4609375 84.69140625 C104.22637663 83.15161854 104.22637663 83.15161854 106 80 C105.9368074 76.50167315 104.96468263 73.34596042 104 70 C103.58411335 68.15709616 103.17792184 66.31197875 102.78125 64.46484375 C102.35606854 62.62195601 101.92897848 60.77950759 101.5 58.9375 C101.18095703 57.5153418 101.18095703 57.5153418 100.85546875 56.06445312 C100.64535156 55.16533203 100.43523437 54.26621094 100.21875 53.33984375 C100.03248047 52.52894287 99.84621094 51.71804199 99.65429688 50.88256836 C99.17475594 48.79652895 99.17475594 48.79652895 97 48 Z M18.14233398 54.74414062 C17.35157471 55.54013672 16.56081543 56.33613281 15.74609375 57.15625 C14.89208984 58.01347656 14.03808594 58.87070313 13.15820312 59.75390625 C12.26037109 60.66011719 11.36253906 61.56632812 10.4375 62.5 C9.08495117 63.85931641 9.08495117 63.85931641 7.70507812 65.24609375 C5.46781659 67.49519265 3.23291253 69.74658467 1 72 C2.45745424 75.36335594 4.31117854 77.54534005 6.9140625 80.109375 C8.05488281 81.24052734 8.05488281 81.24052734 9.21875 82.39453125 C10.0128125 83.17183594 10.806875 83.94914062 11.625 84.75 C12.42679688 85.54277344 13.22859375 86.33554688 14.0546875 87.15234375 C16.03202846 89.10614493 18.01388909 91.05512103 20 93 C24.67546048 89.10567183 29.06557538 85.0429029 33.3125 80.6875 C38.73329426 75.13335287 38.73329426 75.13335287 41 74 C41 73.34 41 72.68 41 72 C39.51638306 70.49950064 39.51638306 70.49950064 37.5625 68.9375 C32.15963587 64.35179504 27.21214061 59.33767254 22.30078125 54.234375 C20.25368786 52.29178787 20.27716756 52.73977066 18.14233398 54.74414062 Z M-17.97119141 90.74414062 C-19.1494751 91.93813477 -19.1494751 91.93813477 -20.3515625 93.15625 C-21.20234375 94.01347656 -22.053125 94.87070313 -22.9296875 95.75390625 C-23.81914063 96.66011719 -24.70859375 97.56632812 -25.625 98.5 C-26.5221875 99.40621094 -27.419375 100.31242187 -28.34375 101.24609375 C-30.56701538 103.49301089 -32.78549657 105.74445216 -35 108 C-33.54254576 111.36335594 -31.68882146 113.54534005 -29.0859375 116.109375 C-27.94511719 117.24052734 -27.94511719 117.24052734 -26.78125 118.39453125 C-25.9871875 119.17183594 -25.193125 119.94914062 -24.375 120.75 C-23.57320312 121.54277344 -22.77140625 122.33554688 -21.9453125 123.15234375 C-19.96797154 125.10614493 -17.98611091 127.05512103 -16 129 C-14.82780457 128.21654285 -13.66236332 127.42297164 -12.5 126.625 C-11.8503125 126.18414062 -11.200625 125.74328125 -10.53125 125.2890625 C-10.0259375 124.86367187 -9.520625 124.43828125 -9 124 C-9 123.34 -9 122.68 -9 122 C-8.34 122 -7.68 122 -7 122 C-5.29714205 120.27836601 -5.29714205 120.27836601 -3.5625 118.125 C-1.41599116 115.53806278 0.16776562 113.88815626 3 112 C3 111.34 3 110.68 3 110 C3.66 110 4.32 110 5 110 C4.20882096 108.00016466 4.20882096 108.00016466 3 106 C2.01 105.67 1.02 105.34 0 105 C-0.495 103.515 -0.495 103.515 -1 102 C-1.66 102 -2.32 102 -3 102 C-3.33 101.01 -3.66 100.02 -4 99 C-4.66 99 -5.32 99 -6 99 C-6.33 98.01 -6.66 97.02 -7 96 C-7.66 96 -8.32 96 -9 96 C-9.33 95.01 -9.66 94.02 -10 93 C-10.66 93 -11.32 93 -12 93 C-12.66 91.68 -13.32 90.36 -14 89 C-16.18903221 88.77911402 -16.18903221 88.77911402 -17.97119141 90.74414062 Z M55 89 C54.62230469 89.44988281 54.24460938 89.89976562 53.85546875 90.36328125 C48.54876152 96.56479626 42.81386608 102.2807538 37 108 C38.45745424 111.36335594 40.31117854 113.54534005 42.9140625 116.109375 C44.05488281 117.24052734 44.05488281 117.24052734 45.21875 118.39453125 C46.0128125 119.17183594 46.806875 119.94914062 47.625 120.75 C48.42679688 121.54277344 49.22859375 122.33554688 50.0546875 123.15234375 C52.03202846 125.10614493 54.01388909 127.05512103 56 129 C61.06623768 124.76183463 65.80038069 120.32591037 70.4375 115.625 C71.07365234 114.98433594 71.70980469 114.34367187 72.36523438 113.68359375 C73.91250332 112.12469121 75.45736492 110.56348584 77 109 C76.22011719 108.05898437 75.44023437 107.11796875 74.63671875 106.1484375 C73.97869263 105.35445557 73.97869263 105.35445557 73.30737305 104.54443359 C71.63616389 102.57019099 69.92666868 100.72735813 68 99 C67.34 99 66.68 99 66 99 C65.67 98.01 65.34 97.02 65 96 C64.34 96 63.68 96 63 96 C62.67 95.01 62.34 94.02 62 93 C61.34 93 60.68 93 60 93 C59.67 92.01 59.34 91.02 59 90 C56.98491642 89.26676204 56.98491642 89.26676204 55 89 Z M92 124 C89.1453424 126.80530847 86.29722769 129.61707696 83.45507812 132.43505859 C82.48681462 133.39324956 81.51676574 134.34963982 80.54492188 135.30419922 C79.1502903 136.6746382 77.76253479 138.05206367 76.375 139.4296875 C75.53710938 140.25710449 74.69921875 141.08452148 73.8359375 141.93701172 C71.7783991 143.78873506 71.7783991 143.78873506 72 146 C72.66 146 73.32 146 74 146 C74.26167969 146.59941406 74.52335938 147.19882813 74.79296875 147.81640625 C76.08220607 150.14871583 77.2515156 151.27370745 79.3125 152.9375 C85.58666298 158.22588876 91.24244162 164.16345073 97 170 C97.99 169.505 97.99 169.505 99 169 C99.71897938 166.9292175 99.71897938 166.9292175 100.21875 164.40625 C100.53392578 162.983125 100.53392578 162.983125 100.85546875 161.53125 C101.06816406 160.5309375 101.28085938 159.530625 101.5 158.5 C101.71269531 157.530625 101.92539063 156.56125 102.14453125 155.5625 C102.56669017 153.63559058 102.98213501 151.70719711 103.390625 149.77734375 C103.78698669 147.97084912 104.21264165 146.17045032 104.671875 144.37890625 C104.97351563 143.18587891 104.97351563 143.18587891 105.28125 141.96875 C105.46751953 141.27201172 105.65378906 140.57527344 105.84570312 139.85742188 C106.22205796 137.6596028 106.22205796 137.6596028 104 135 C103.34 135 102.68 135 102 135 C101.67 134.01 101.34 133.02 101 132 C100.34 132 99.68 132 99 132 C99 131.34 99 130.68 99 130 C97.16666667 127.83333333 97.16666667 127.83333333 95 126 C94.34 126 93.68 126 93 126 C92.67 125.34 92.34 124.68 92 124 Z M-60.57983398 132.75488281 C-63.87314409 135.98474626 -63.87314409 135.98474626 -65.25683594 140.20800781 C-65.01205318 142.78007189 -64.03763194 144.62777074 -63 147 C-62.2411977 149.87534713 -61.63006199 152.78161329 -61 155.6875 C-59.89323359 160.55575832 -58.6635983 165.2839959 -57 170 C-55.515 169.505 -55.515 169.505 -54 169 C-54 168.34 -54 167.68 -54 167 C-52.515 166.505 -52.515 166.505 -51 166 C-51 165.34 -51 164.68 -51 164 C-50.34 164 -49.68 164 -49 164 C-46.83333333 162.16666667 -46.83333333 162.16666667 -45 160 C-45 159.34 -45 158.68 -45 158 C-44.34 158 -43.68 158 -43 158 C-40.83333333 156.16666667 -40.83333333 156.16666667 -39 154 C-39 153.34 -39 152.68 -39 152 C-38.01 151.67 -37.02 151.34 -36 151 C-34.2912354 149.62485459 -34.2912354 149.62485459 -33 148 C-33 147.34 -33 146.68 -33 146 C-32.34 146 -31.68 146 -31 146 C-32.45241736 142.66765426 -34.2850086 140.45774394 -36.84375 137.890625 C-37.59527344 137.13652344 -38.34679687 136.38242188 -39.12109375 135.60546875 C-39.90613281 134.82816406 -40.69117187 134.05085937 -41.5 133.25 C-42.28503906 132.45722656 -43.07007812 131.66445312 -43.87890625 130.84765625 C-44.63042969 130.09871094 -45.38195312 129.34976563 -46.15625 128.578125 C-46.84525391 127.89137695 -47.53425781 127.20462891 -48.24414062 126.49707031 C-52.81884125 122.59661644 -57.32391232 129.52111619 -60.57983398 132.75488281 Z M13 131 C11.16751803 132.99588801 9.39960907 135.03355795 7.64453125 137.09765625 C5.5426894 139.529003 3.30634883 141.76354053 1 144 C2.45745424 147.36335594 4.31117854 149.54534005 6.9140625 152.109375 C8.05488281 153.24052734 8.05488281 153.24052734 9.21875 154.39453125 C10.0128125 155.17183594 10.806875 155.94914062 11.625 156.75 C12.42679688 157.54277344 13.22859375 158.33554688 14.0546875 159.15234375 C16.03202846 161.10614493 18.01388909 163.05512103 20 165 C24.67546048 161.10567183 29.06557538 157.0429029 33.3125 152.6875 C38.73329426 147.13335287 38.73329426 147.13335287 41 146 C39.55922954 142.63820226 37.75249979 140.40843732 35 138 C34.34 138 33.68 138 33 138 C32.7628125 137.43796875 32.525625 136.8759375 32.28125 136.296875 C30.71052303 133.48105958 28.78528536 131.52044584 26.5 129.25 C25.7059375 128.45078125 24.911875 127.6515625 24.09375 126.828125 C19.57869643 122.88587673 16.5146794 127.64152858 13 131 Z M-16 160 C-16.2475 160.61875 -16.495 161.2375 -16.75 161.875 C-18 164 -18 164 -19.703125 164.73046875 C-23.15389402 166.63778156 -25.40969915 169.50417664 -28 172.4375 C-31.17311989 176.00725988 -34.16515716 179.13308624 -38 182 C-38 182.66 -38 183.32 -38 184 C-38.99 184.33 -39.98 184.66 -41 185 C-38.16137416 187.35523077 -35.88206185 188.51997648 -32.296875 189.3515625 C-31.39839844 189.56296875 -30.49992187 189.774375 -29.57421875 189.9921875 C-28.17623047 190.30542969 -28.17623047 190.30542969 -26.75 190.625 C-25.83347656 190.8415625 -24.91695312 191.058125 -23.97265625 191.28125 C-21.32200509 191.89381132 -18.66437298 192.45074501 -16 193 C-15.2579834 193.18449707 -14.5159668 193.36899414 -13.75146484 193.55908203 C-11.4421308 194.10764513 -11.4421308 194.10764513 -8 194 C-5.55240204 192.21490976 -4.02724339 190.86614883 -2.125 188.625 C2.94683258 183.02658371 2.94683258 183.02658371 5 182 C3.5155686 178.54883098 1.55666933 176.31140759 -1.09765625 173.671875 C-1.89880859 172.87265625 -2.69996094 172.0734375 -3.52539062 171.25 C-4.36263672 170.425 -5.19988281 169.6 -6.0625 168.75 C-6.90361328 167.90953125 -7.74472656 167.0690625 -8.61132812 166.203125 C-11.87398607 162.24589022 -11.87398607 162.24589022 -16 160 Z M47.4375 168.375 C46.63119141 169.1690625 45.82488281 169.963125 44.99414062 170.78125 C43.85041992 171.92207031 43.85041992 171.92207031 42.68359375 173.0859375 C41.97775146 173.7876709 41.27190918 174.4894043 40.54467773 175.21240234 C38.78205856 176.85846093 38.78205856 176.85846093 39 179 C38.34 179 37.68 179 37 179 C37.4640275 183.33092333 40.25819685 185.80911857 43.1875 188.75 C43.65736328 189.25660156 44.12722656 189.76320312 44.61132812 190.28515625 C46.930949 192.63325815 48.52722377 193.92054733 51.8125 194.47265625 C55.92696395 193.86254579 59.82492742 192.85730448 63.8125 191.6875 C64.60769043 191.4603833 65.40288086 191.2332666 66.22216797 190.99926758 C71.53046278 189.46963909 76.78810809 187.83381382 82 186 C80.38405168 183.95880212 78.7143618 181.95927063 77 180 C76.34 180 75.68 180 75 180 C74.505 178.515 74.505 178.515 74 177 C73.34 177 72.68 177 72 177 C71.505 175.515 71.505 175.515 71 174 C70.34 174 69.68 174 69 174 C68.77441406 173.44828125 68.54882812 172.8965625 68.31640625 172.328125 C66.60446306 169.30047473 64.41342989 167.18674251 61.9375 164.75 C61.03902344 163.85796875 60.14054687 162.9659375 59.21484375 162.046875 C54.56206309 157.74695072 51.03876402 164.77662856 47.4375 168.375 Z " fill="#181818" transform="translate(137,48)"/>
<path d="M0 0 C3 1 3 1 3.9140625 2.8203125 C5.37506941 7.5565437 6.33705469 12.0752634 7 17 C7.309375 17.75796875 7.61875 18.5159375 7.9375 19.296875 C10.14028443 24.90101775 11.07725772 30.03223704 10 36 C8.32112992 38.84531106 6.27136256 41.11167748 3.9375 43.4375 C3.36507568 44.01113281 2.79265137 44.58476562 2.20288086 45.17578125 C-0.74547918 47.83961771 -2.16377925 48.98382161 -6.23046875 49.0625 C-9.22099389 47.91521814 -10.32817794 47.07604095 -12.25 44.5625 C-15.84296371 40.0632031 -19.90241481 36.2667724 -24.15625 32.39453125 C-26 30 -26 30 -25.96484375 27.40625 C-24.95697518 24.89269923 -24.01736948 23.53721757 -22.0625 21.6875 C-21.53785156 21.17574219 -21.01320312 20.66398437 -20.47265625 20.13671875 C-19 19 -19 19 -17 19 C-16.67 18.01 -16.34 17.02 -16 16 C-15.34 16 -14.68 16 -14 16 C-13.7525 15.42765625 -13.505 14.8553125 -13.25 14.265625 C-11.80683801 11.64989389 -10.11783778 9.85226544 -8 7.75 C-7.29875 7.04359375 -6.5975 6.3371875 -5.875 5.609375 C-4 4 -4 4 -2 4 C-1.34 2.68 -0.68 1.36 0 0 Z M0 3 C-4.44554342 6.62901503 -8.24958908 10.33003633 -11.95703125 14.69921875 C-16.08121055 19.34384898 -20.57358976 23.64562898 -25 28 C-18.89053942 35.37465422 -18.89053942 35.37465422 -12 42 C-11.34 42 -10.68 42 -10 42 C-9.67 42.99 -9.34 43.98 -9 45 C-8.34 45 -7.68 45 -7 45 C-6.67 45.99 -6.34 46.98 -6 48 C-2.12410182 46.36804287 0.82229921 43.82453501 3.875 41 C4.39835937 40.56816406 4.92171875 40.13632813 5.4609375 39.69140625 C7.22637663 38.15161854 7.22637663 38.15161854 9 35 C8.9368074 31.50167315 7.96468263 28.34596042 7 25 C6.58411335 23.15709616 6.17792184 21.31197875 5.78125 19.46484375 C5.35606854 17.62195601 4.92897848 15.77950759 4.5 13.9375 C4.18095703 12.5153418 4.18095703 12.5153418 3.85546875 11.06445312 C3.64535156 10.16533203 3.43523437 9.26621094 3.21875 8.33984375 C3.03248047 7.52894287 2.84621094 6.71804199 2.65429688 5.88256836 C2.17475594 3.79652895 2.17475594 3.79652895 0 3 Z " fill="#C2C2C2" transform="translate(234,93)"/>
<path d="M0 0 C10.59941737 0.708256 21.3936769 2.29903338 31 7 C32.6642135 7.67276716 34.32986582 8.34206835 36 9 C34.87994369 12.36016893 33.62788203 13.69064913 31 16 C30.34 16 29.68 16 29 16 C29 16.66 29 17.32 29 18 C28.01 18.66 27.02 19.32 26 20 C25.505 21.485 25.505 21.485 25 23 C22.4375 24.1875 22.4375 24.1875 20 25 C20 25.66 20 26.32 20 27 C18.54588192 28.22278111 17.08788691 29.44157582 15.6015625 30.625 C13.40798642 32.50826532 11.71889197 34.68610696 10 37 C8.3125 36.875 8.3125 36.875 6 36 C5.195625 35.030625 4.39125 34.06125 3.5625 33.0625 C1.32579065 29.89034364 1.32579065 29.89034364 -1.5625 29 C-5.05509327 27.56714122 -6.02156472 25.15313123 -8 22 C-8.928125 21.154375 -9.85625 20.30875 -10.8125 19.4375 C-13 17 -13 17 -13 14.375 C-11.96457415 11.91586361 -11.11590587 10.60808846 -9 9 C-8.34 9 -7.68 9 -7 9 C-6.67 8.01 -6.34 7.02 -6 6 C-5.34 6 -4.68 6 -4 6 C-3.67 5.01 -3.34 4.02 -3 3 C-2.34 3 -1.68 3 -1 3 C-0.67 2.01 -0.34 1.02 0 0 Z M-2.1484375 4.484375 C-2.94314453 5.26941406 -2.94314453 5.26941406 -3.75390625 6.0703125 C-4.28886719 6.62460938 -4.82382813 7.17890625 -5.375 7.75 C-5.93316406 8.28882812 -6.49132812 8.82765625 -7.06640625 9.3828125 C-8.86562016 11.14193381 -8.86562016 11.14193381 -11 14 C-10.87106237 16.12953392 -10.87106237 16.12953392 -10 18 C-8.68352881 18.69937532 -7.34977849 19.36729133 -6 20 C-5.67 20.99 -5.34 21.98 -5 23 C-4.34 23 -3.68 23 -3 23 C-2.67 23.99 -2.34 24.98 -2 26 C-1.34 26 -0.68 26 0 26 C0 26.66 0 27.32 0 28 C1.6396721 29.36639342 3.31110128 30.6949419 5 32 C6.35147138 33.31494512 7.69112542 34.64264858 9 36 C9 35.34 9 34.68 9 34 C9.99 33.67 10.98 33.34 12 33 C13.4081132 31.61088239 13.4081132 31.61088239 14.8125 29.8125 C19.02306572 24.80903555 23.68084431 20.29209302 28.3762207 15.74926758 C28.97265381 15.1642749 29.56908691 14.57928223 30.18359375 13.9765625 C30.72556396 13.45143066 31.26753418 12.92629883 31.82592773 12.38525391 C33.21552094 11.04835763 33.21552094 11.04835763 33 9 C28.60677739 7.82334772 24.21003315 6.66042902 19.8125 5.5 C17.94368164 4.99919922 17.94368164 4.99919922 16.03710938 4.48828125 C14.83505859 4.17246094 13.63300781 3.85664062 12.39453125 3.53125 C10.73707886 3.09135742 10.73707886 3.09135742 9.04614258 2.64257812 C4.44604428 1.67219592 1.35076893 1.02603351 -2.1484375 4.484375 Z " fill="#C2C2C2" transform="translate(185,70)"/>
<path d="M0 0 C3.48181028 0.89277187 4.2955241 2.74863236 6.4375 5.625 C7.74856796 6.8166332 9.08406695 7.98171182 10.4375 9.125 C13.50748676 11.74017391 15.9572405 14.43609492 18.4375 17.625 C19.18 18.16125 19.9225 18.6975 20.6875 19.25 C21.265 19.70375 21.8425 20.1575 22.4375 20.625 C22.4375 21.615 22.4375 22.605 22.4375 23.625 C21.633125 23.893125 20.82875 24.16125 20 24.4375 C19.154375 24.829375 18.30875 25.22125 17.4375 25.625 C16.9425 27.11 16.9425 27.11 16.4375 28.625 C15.7775 28.625 15.1175 28.625 14.4375 28.625 C14.4375 29.285 14.4375 29.945 14.4375 30.625 C12.5625 32.75 12.5625 32.75 10.4375 34.625 C9.7775 34.625 9.1175 34.625 8.4375 34.625 C8.4375 35.285 8.4375 35.945 8.4375 36.625 C6.78364767 37.97419532 5.115798 39.30633728 3.4375 40.625 C2.7775 41.615 2.1175 42.605 1.4375 43.625 C-2.26944893 43.07341898 -3.66592371 41.74273346 -6 38.875 C-8.71965149 35.62185611 -11.52132695 32.58614218 -14.5625 29.625 C-16.89583333 27.29166667 -19.22916667 24.95833333 -21.5625 22.625 C-21.1875 20.5 -21.1875 20.5 -20.5625 18.625 C-19.9025 18.625 -19.2425 18.625 -18.5625 18.625 C-18.2325 17.635 -17.9025 16.645 -17.5625 15.625 C-16.9025 15.625 -16.2425 15.625 -15.5625 15.625 C-15.315 15.00625 -15.0675 14.3875 -14.8125 13.75 C-13.32509631 11.22141373 -12.12571991 10.90660996 -9.5625 9.625 C-8.87763275 8.30092331 -8.21379797 6.96590759 -7.5625 5.625 C-3.56319735 0.86907252 -3.56319735 0.86907252 0 0 Z M-2.42016602 3.36914062 C-3.21092529 4.16513672 -4.00168457 4.96113281 -4.81640625 5.78125 C-5.67041016 6.63847656 -6.52441406 7.49570313 -7.40429688 8.37890625 C-8.30212891 9.28511719 -9.19996094 10.19132812 -10.125 11.125 C-11.47754883 12.48431641 -11.47754883 12.48431641 -12.85742188 13.87109375 C-15.09468341 16.12019265 -17.32958747 18.37158467 -19.5625 20.625 C-18.10504576 23.98835594 -16.25132146 26.17034005 -13.6484375 28.734375 C-12.50761719 29.86552734 -12.50761719 29.86552734 -11.34375 31.01953125 C-10.5496875 31.79683594 -9.755625 32.57414062 -8.9375 33.375 C-8.13570312 34.16777344 -7.33390625 34.96054688 -6.5078125 35.77734375 C-4.53047154 37.73114493 -2.54861091 39.68012103 -0.5625 41.625 C4.11296048 37.73067183 8.50307538 33.6679029 12.75 29.3125 C18.17079426 23.75835287 18.17079426 23.75835287 20.4375 22.625 C20.4375 21.965 20.4375 21.305 20.4375 20.625 C18.95388306 19.12450064 18.95388306 19.12450064 17 17.5625 C11.59713587 12.97679504 6.64964061 7.96267254 1.73828125 2.859375 C-0.30881214 0.91678787 -0.28533244 1.36477066 -2.42016602 3.36914062 Z " fill="#C7C7C7" transform="translate(157.5625,99.375)"/>
<path d="M0 0 C1.234375 1.2578125 1.234375 1.2578125 2.75 3.125 C6.96829613 8.13478879 11.64267962 12.6451009 16.37597656 17.16259766 C16.97249023 17.74444824 17.56900391 18.32629883 18.18359375 18.92578125 C18.72556396 19.44567627 19.26753418 19.96557129 19.82592773 20.5012207 C21 22 21 22 21 25 C20.34 25 19.68 25 19 25 C18.505 26.485 18.505 26.485 18 28 C12.53488372 33 12.53488372 33 10 33 C9.690625 34.3921875 9.690625 34.3921875 9.375 35.8125 C7.59791414 39.93210814 5.96345676 40.05566272 2 42 C0.08051219 44.03742245 -1.66031449 46.15281504 -3.38671875 48.35546875 C-3.91910156 48.89816406 -4.45148438 49.44085938 -5 50 C-5.99 50 -6.98 50 -8 50 C-8.41572266 48.60974609 -8.41572266 48.60974609 -8.83984375 47.19140625 C-9.20207031 45.99386719 -9.56429687 44.79632813 -9.9375 43.5625 C-10.47697266 41.77005859 -10.47697266 41.77005859 -11.02734375 39.94140625 C-11.70889142 37.14132455 -11.70889142 37.14132455 -13 36 C-13.57002729 33.43930747 -14.08524383 30.89059674 -14.5625 28.3125 C-14.70107422 27.60416016 -14.83964844 26.89582031 -14.98242188 26.16601562 C-15.75354024 22.05211815 -16.15235642 18.20636206 -16 14 C-15.34 14 -14.68 14 -14 14 C-13.67 13.01 -13.34 12.02 -13 11 C-12.34 11 -11.68 11 -11 11 C-10.67 10.01 -10.34 9.02 -10 8 C-9.34 8 -8.68 8 -8 8 C-7.7525 7.4225 -7.505 6.845 -7.25 6.25 C-5.58207452 3.24773413 -3.67725381 0 0 0 Z M-10.57983398 10.75488281 C-13.87314409 13.98474626 -13.87314409 13.98474626 -15.25683594 18.20800781 C-15.01205318 20.78007189 -14.03763194 22.62777074 -13 25 C-12.2411977 27.87534713 -11.63006199 30.78161329 -11 33.6875 C-9.89323359 38.55575832 -8.6635983 43.2839959 -7 48 C-5.515 47.505 -5.515 47.505 -4 47 C-4 46.34 -4 45.68 -4 45 C-2.515 44.505 -2.515 44.505 -1 44 C-1 43.34 -1 42.68 -1 42 C-0.34 42 0.32 42 1 42 C3.16666667 40.16666667 3.16666667 40.16666667 5 38 C5 37.34 5 36.68 5 36 C5.66 36 6.32 36 7 36 C9.16666667 34.16666667 9.16666667 34.16666667 11 32 C11 31.34 11 30.68 11 30 C11.99 29.67 12.98 29.34 14 29 C15.7087646 27.62485459 15.7087646 27.62485459 17 26 C17 25.34 17 24.68 17 24 C17.66 24 18.32 24 19 24 C17.54758264 20.66765426 15.7149914 18.45774394 13.15625 15.890625 C12.40472656 15.13652344 11.65320313 14.38242188 10.87890625 13.60546875 C10.09386719 12.82816406 9.30882813 12.05085937 8.5 11.25 C7.71496094 10.45722656 6.92992188 9.66445312 6.12109375 8.84765625 C5.36957031 8.09871094 4.61804688 7.34976563 3.84375 6.578125 C3.15474609 5.89137695 2.46574219 5.20462891 1.75585938 4.49707031 C-2.81884125 0.59661644 -7.32391232 7.52111619 -10.57983398 10.75488281 Z " fill="#C0C0C0" transform="translate(87,170)"/>
<path d="M0 0 C0.99 0.33 1.98 0.66 3 1 C3 1.66 3 2.32 3 3 C3.86818359 3.37705078 3.86818359 3.37705078 4.75390625 3.76171875 C7.28283677 5.15592914 8.9343046 6.73790358 10.9375 8.8125 C11.63359375 9.52664062 12.3296875 10.24078125 13.046875 10.9765625 C14.01367188 11.97816406 14.01367188 11.97816406 15 13 C15.886875 13.886875 16.77375 14.77375 17.6875 15.6875 C19.32294984 17.32294984 20.94687163 18.96996606 22.5625 20.625 C24.86317194 23.00705582 24.86317194 23.00705582 27.3125 24.5625 C28.1478125 25.2740625 28.1478125 25.2740625 29 26 C29 30 29 30 27.70703125 31.46484375 C27.08183594 31.95082031 26.45664063 32.43679687 25.8125 32.9375 C21.62405743 36.37881498 17.81116403 40.09094622 14 43.9375 C13.4119458 44.52974365 12.8238916 45.1219873 12.21801758 45.73217773 C10.80992986 47.15272457 9.40466253 48.57606618 8 50 C4.21090048 48.25364969 1.91947504 45.99068175 -1 43 C-2.3303125 41.948125 -2.3303125 41.948125 -3.6875 40.875 C-6 39 -6 39 -8 36 C-7.79496856 33.59088054 -7.44468038 31.36885811 -7 29 C-6.85175781 28.03835937 -6.70351562 27.07671875 -6.55078125 26.0859375 C-5.73859943 20.84898911 -4.74835408 16.01194837 -3 11 C-2.835 9.80375 -2.67 8.6075 -2.5 7.375 C-2.05940269 4.40096816 -1.52461833 2.54103055 0 0 Z M1 3 C0.67386719 4.17175781 0.34773438 5.34351562 0.01171875 6.55078125 C-0.19888184 7.3072998 -0.40948242 8.06381836 -0.62646484 8.84326172 C-1.08516512 10.49425623 -1.54251434 12.14562667 -1.99853516 13.79736328 C-2.98659594 17.37424192 -3.98374903 20.94499201 -5.03515625 24.50390625 C-5.31230469 25.45136719 -5.58945313 26.39882812 -5.875 27.375 C-6.11992188 28.18710938 -6.36484375 28.99921875 -6.6171875 29.8359375 C-7.05670907 32.32057986 -6.80430393 33.62075412 -6 36 C-4.80594291 37.60244408 -4.80594291 37.60244408 -3.27734375 39.015625 C-2.73916016 39.54414063 -2.20097656 40.07265625 -1.64648438 40.6171875 C-1.08251953 41.15601563 -0.51855469 41.69484375 0.0625 42.25 C0.63033203 42.80429688 1.19816406 43.35859375 1.78320312 43.9296875 C3.18212469 45.29334214 4.59019114 46.64760417 6 48 C7.32 47.34 8.64 46.68 10 46 C10 45.34 10 44.68 10 44 C11.485 43.505 11.485 43.505 13 43 C13 42.34 13 41.68 13 41 C14.485 40.505 14.485 40.505 16 40 C16 39.34 16 38.68 16 38 C17.485 37.505 17.485 37.505 19 37 C19 36.34 19 35.68 19 35 C19.99 34.67 20.98 34.34 22 34 C22 33.34 22 32.68 22 32 C22.639375 31.731875 23.27875 31.46375 23.9375 31.1875 C26.33131686 30.11332248 26.33131686 30.11332248 27 27 C26.34 27 25.68 27 25 27 C25 26.34 25 25.68 25 25 C23.38200498 23.36324492 23.38200498 23.36324492 21.3125 21.6875 C17.31790737 18.28574444 13.42053638 14.94666096 10.3125 10.6875 C9.879375 10.130625 9.44625 9.57375 9 9 C8.34 9 7.68 9 7 9 C6.7525 8.38125 6.505 7.7625 6.25 7.125 C4.77952822 4.62519797 3.58596924 4.16683978 1 3 Z " fill="#C4C4C4" transform="translate(79,93)"/>
<path d="M0 0 C3.5247574 0.52592659 4.78973284 1.91103013 7.30419922 4.40722656 C8.14982422 5.24640625 8.99544922 6.08558594 9.86669922 6.95019531 C10.73552734 7.83835938 11.60435547 8.72652344 12.49951172 9.64160156 C13.39154297 10.51429688 14.28357422 11.38699219 15.20263672 12.28613281 C16.45947266 13.55263672 16.45947266 13.55263672 17.74169922 14.84472656 C18.5111084 15.61977539 19.28051758 16.39482422 20.07324219 17.19335938 C21.62451172 19.39160156 21.62451172 19.39160156 21.47387695 21.55297852 C20.33469552 24.01896741 18.79055287 25.47536635 16.81201172 27.32910156 C13.81767969 30.2002321 11.19428868 33.12996158 8.62451172 36.39160156 C7.63451172 36.88660156 7.63451172 36.88660156 6.62451172 37.39160156 C6.35638672 38.03097656 6.08826172 38.67035156 5.81201172 39.32910156 C4.23209431 42.07316865 2.57299112 42.4605028 -0.37548828 43.39160156 C-10.37548828 33.39160156 -10.37548828 33.39160156 -12.36376953 31.36816406 C-13.06888672 30.65402344 -13.77400391 29.93988281 -14.50048828 29.20410156 C-15.16306641 28.52992188 -15.82564453 27.85574219 -16.50830078 27.16113281 C-18.45492145 25.21606798 -18.45492145 25.21606798 -21.37548828 23.39160156 C-20.90717066 18.76593801 -19.24151171 16.76634097 -15.93798828 13.57910156 C-15.13490234 12.78890625 -14.33181641 11.99871094 -13.50439453 11.18457031 C-11.37548828 9.39160156 -11.37548828 9.39160156 -9.37548828 9.39160156 C-9.14861328 8.83472656 -8.92173828 8.27785156 -8.68798828 7.70410156 C-6.61355897 4.04915468 -4.3258125 0.71311441 0 0 Z M-7.37548828 7.39160156 C-9.20797025 9.38748957 -10.97587921 11.42515951 -12.73095703 13.48925781 C-14.83279888 15.92060456 -17.06913945 18.15514209 -19.37548828 20.39160156 C-17.91803404 23.7549575 -16.06430975 25.93694161 -13.46142578 28.50097656 C-12.32060547 29.63212891 -12.32060547 29.63212891 -11.15673828 30.78613281 C-10.36267578 31.5634375 -9.56861328 32.34074219 -8.75048828 33.14160156 C-7.94869141 33.934375 -7.14689453 34.72714844 -6.32080078 35.54394531 C-4.34345982 37.4977465 -2.36159919 39.44672259 -0.37548828 41.39160156 C4.2999722 37.4972734 8.6900871 33.43450446 12.93701172 29.07910156 C18.35780597 23.52495443 18.35780597 23.52495443 20.62451172 22.39160156 C19.18374126 19.02980382 17.37701151 16.80003888 14.62451172 14.39160156 C13.96451172 14.39160156 13.30451172 14.39160156 12.62451172 14.39160156 C12.38732422 13.82957031 12.15013672 13.26753906 11.90576172 12.68847656 C10.33503475 9.87266115 8.40979707 7.9120474 6.12451172 5.64160156 C5.33044922 4.84238281 4.53638672 4.04316406 3.71826172 3.21972656 C-0.79679185 -0.72252171 -3.86080888 4.03313014 -7.37548828 7.39160156 Z " fill="#CBCBCB" transform="translate(157.37548828125,171.6083984375)"/>
<path d="M0 0 C4.69954132 2.29894178 8.18163288 6.63891972 11.83276367 10.30078125 C12.72930664 11.16896484 13.62584961 12.03714844 14.54956055 12.93164062 C15.39196289 13.77146484 16.23436523 14.61128906 17.10229492 15.4765625 C17.87806885 16.24524658 18.65384277 17.01393066 19.453125 17.8059082 C21.02026367 19.98828125 21.02026367 19.98828125 20.85595703 22.14746094 C19.43347435 25.28082916 17.15595983 27.50969691 14.83666992 30.01171875 C12.8570963 32.10216716 12.8570963 32.10216716 10.70776367 35.05078125 C6.98738543 37.7329144 4.42922503 37.06968105 0.03198242 36.3828125 C-0.63188477 36.25261719 -1.29575195 36.12242187 -1.97973633 35.98828125 C-1.97973633 35.32828125 -1.97973633 34.66828125 -1.97973633 33.98828125 C-2.51598633 33.97410156 -3.05223633 33.95992187 -3.60473633 33.9453125 C-12.15868151 33.42475991 -19.91694836 30.69921864 -27.97973633 27.98828125 C-26.39961619 24.4894438 -25.37100317 23.68391467 -21.97973633 21.98828125 C-21.6908252 21.39764893 -21.40191406 20.8070166 -21.10424805 20.19848633 C-18.79228449 15.65436863 -14.66596446 12.26208845 -11.10473633 8.67578125 C-10.28875977 7.82693359 -9.4727832 6.97808594 -8.63208008 6.10351562 C-7.84188477 5.30623047 -7.05168945 4.50894531 -6.23754883 3.6875 C-5.51712402 2.95362061 -4.79669922 2.21974121 -4.05444336 1.46362305 C-1.97973633 -0.01171875 -1.97973633 -0.01171875 0 0 Z M-0.97973633 0.98828125 C-1.22723633 1.60703125 -1.47473633 2.22578125 -1.72973633 2.86328125 C-2.97973633 4.98828125 -2.97973633 4.98828125 -4.68286133 5.71875 C-8.13363034 7.62606281 -10.38943548 10.49245789 -12.97973633 13.42578125 C-16.15285622 16.99554113 -19.14489349 20.12136749 -22.97973633 22.98828125 C-22.97973633 23.64828125 -22.97973633 24.30828125 -22.97973633 24.98828125 C-23.96973633 25.31828125 -24.95973633 25.64828125 -25.97973633 25.98828125 C-23.14111048 28.34351202 -20.86179818 29.50825773 -17.27661133 30.33984375 C-16.37813477 30.55125 -15.4796582 30.76265625 -14.55395508 30.98046875 C-13.1559668 31.29371094 -13.1559668 31.29371094 -11.72973633 31.61328125 C-10.81321289 31.82984375 -9.89668945 32.04640625 -8.95239258 32.26953125 C-6.30174142 32.88209257 -3.64410931 33.43902626 -0.97973633 33.98828125 C-0.23771973 34.17277832 0.50429687 34.35727539 1.26879883 34.54736328 C3.57813287 35.09592638 3.57813287 35.09592638 7.02026367 34.98828125 C9.46786163 33.20319101 10.99302028 31.85443008 12.89526367 29.61328125 C17.96709625 24.01486496 17.96709625 24.01486496 20.02026367 22.98828125 C18.53583228 19.53711223 16.576933 17.29968884 13.92260742 14.66015625 C13.12145508 13.8609375 12.32030273 13.06171875 11.49487305 12.23828125 C10.65762695 11.41328125 9.82038086 10.58828125 8.95776367 9.73828125 C8.11665039 8.8978125 7.27553711 8.05734375 6.40893555 7.19140625 C3.1462776 3.23417147 3.1462776 3.23417147 -0.97973633 0.98828125 Z " fill="#BDBDBD" transform="translate(121.979736328125,207.01171875)"/>
<path d="M0 0 C1.94140625 1.70703125 1.94140625 1.70703125 3.5625 3.8125 C6.14678961 7.0072068 8.69714526 9.52285894 12 12 C13.8125 13.625 13.8125 13.625 15 15 C15 15.66 15 16.32 15 17 C15.99 17.33 16.98 17.66 18 18 C19.6875 19.5625 19.6875 19.5625 21 21 C21.45375 20.34 21.9075 19.68 22.375 19 C22.91125 18.34 23.4475 17.68 24 17 C24.66 17 25.32 17 26 17 C26.495 15.515 26.495 15.515 27 14 C27.66 14 28.32 14 29 14 C28.875 16.25 28.875 16.25 28 19 C23.26315789 23 23.26315789 23 19.9375 23 C15.22260255 20.56650454 12.21797384 17.12302898 9 13 C6.36574776 10.22710291 3.66568597 7.70205627 0.6875 5.3125 C-0.199375 4.549375 -1.08625 3.78625 -2 3 C-2 2.34 -2 1.68 -2 1 C-2.58378418 1.17128418 -3.16756836 1.34256836 -3.76904297 1.51904297 C-6.46977207 2.30873296 -9.17235625 3.09188894 -11.875 3.875 C-12.7928125 4.14441406 -13.710625 4.41382813 -14.65625 4.69140625 C-20.72875459 6.44473504 -26.78834721 7.84210501 -33 9 C-34.06992188 9.22042969 -35.13984375 9.44085938 -36.2421875 9.66796875 C-37.11101562 9.83941406 -37.97984375 10.01085938 -38.875 10.1875 C-39.75929688 10.36667969 -40.64359375 10.54585937 -41.5546875 10.73046875 C-44.02476239 11.0027294 -45.65704055 10.76827275 -48 10 C-37.78361335 7.08471795 -27.53366211 4.2934059 -17.25 1.625 C-15.71569336 1.21290283 -15.71569336 1.21290283 -14.15039062 0.79248047 C-4.60239736 -1.64830045 -4.60239736 -1.64830045 0 0 Z " fill="#B8B8B8" transform="translate(137,48)"/>
<path d="M0 0 C2.94703191 2.94703191 2.92588837 5.20895159 3.31054688 9.31469727 C2.92163993 13.92990982 1.70890546 15.11229894 -1.59375 18.27734375 C-2.05986694 18.73355606 -2.52598389 19.18976837 -3.00622559 19.6598053 C-4.48845339 21.10306709 -5.9931636 22.51999507 -7.5 23.9375 C-8.51330956 24.91567243 -9.52504758 25.89547565 -10.53515625 26.87695312 C-13.0084459 29.26779978 -15.49655482 31.64081363 -18 34 C-16.50250685 37.56094028 -14.46271642 39.68364618 -11.6484375 42.30078125 C-10.79765625 43.11353516 -9.946875 43.92628906 -9.0703125 44.76367188 C-7.2751351 46.46128529 -5.47040816 48.14885754 -3.65625 49.82617188 C2.80938967 56.05106964 2.80938967 56.05106964 3.72265625 60.59765625 C2.89499706 64.4943652 1.97457665 68.31670758 0.8125 72.125 C-1.53129999 80.11065534 -3.50398671 88.1437408 -5.29956055 96.27001953 C-5.59020386 97.54401611 -5.59020386 97.54401611 -5.88671875 98.84375 C-6.05389404 99.59849609 -6.22106934 100.35324219 -6.39331055 101.13085938 C-7 103 -7 103 -9 105 C-8.34 100.05 -7.68 95.1 -7 90 C-6.34 90 -5.68 90 -5 90 C-4.95101563 89.27554688 -4.90203125 88.55109375 -4.8515625 87.8046875 C-4.44348789 82.52786067 -3.83252989 77.9885536 -2 73 C-1.41348668 70.96510168 -0.85339473 68.9224965 -0.3125 66.875 C-0.04050781 65.86179687 0.23148437 64.84859375 0.51171875 63.8046875 C1.02288976 60.86852121 1.0524584 59.73601224 0 57 C-1.99094517 54.6924303 -1.99094517 54.6924303 -4.5078125 52.41015625 C-5.41144531 51.54326172 -6.31507813 50.67636719 -7.24609375 49.78320312 C-9.16755062 47.96733513 -11.0946653 46.15743555 -13.02734375 44.35351562 C-13.92839844 43.48533203 -14.82945312 42.61714844 -15.7578125 41.72265625 C-16.5945752 40.93640869 -17.43133789 40.15016113 -18.29345703 39.34008789 C-20 37 -20 37 -20.046875 34.48242188 C-18.71916962 31.33407573 -17.05977606 29.80887038 -14.4921875 27.55859375 C-13.58855469 26.72650391 -12.68492187 25.89441406 -11.75390625 25.03710938 C-9.84383892 23.31234708 -7.91672626 21.60626524 -5.97265625 19.91992188 C-0.70846508 15.17996637 -0.70846508 15.17996637 1.39355469 8.67236328 C1.1452104 5.68477274 0.72812647 2.90528115 0 0 Z " fill="#BABABA" transform="translate(264,122)"/>
<path d="M0 0 C2.47184893 2.09156448 4.47650547 4.37048126 6.54296875 6.85546875 C7.06503906 7.48066406 7.58710938 8.10585937 8.125 8.75 C8.60195312 9.34296875 9.07890625 9.9359375 9.5703125 10.546875 C11.04731699 12.26825585 11.04731699 12.26825585 14 13 C14.32421875 15.6484375 14.32421875 15.6484375 14 19 C12.31056343 21.15987513 10.81010888 22.80945817 8.8125 24.625 C8.32974609 25.0890625 7.84699219 25.553125 7.34960938 26.03125 C2.17890009 30.94515896 -2.40565333 34.4139817 -9 37 C-11.31 34.69 -13.62 32.38 -16 30 C-15.67 29.34 -15.34 28.68 -15 28 C-13.02 29.98 -11.04 31.96 -9 34 C-5.26613864 32.75537955 -4.35194152 31.08692325 -2 28 C-0.375 26.1875 -0.375 26.1875 1 25 C1.66 25 2.32 25 3 25 C3.66 23.68 4.32 22.36 5 21 C5.66 21 6.32 21 7 21 C7 20.34 7 19.68 7 19 C8.29233607 17.62689293 9.62437146 16.28965176 11 15 C9.16922791 12.95278195 7.31538225 10.94072361 5.4375 8.9375 C4.92380859 8.35677734 4.41011719 7.77605469 3.88085938 7.17773438 C2.32059264 5.53993886 0.92420624 4.19276815 -1 3 C-4.62353898 2.95207555 -4.62353898 2.95207555 -8 4 C-9.47855858 4.19223635 -10.95761462 4.38075969 -12.4375 4.5625 C-14.2009375 4.7790625 -14.2009375 4.7790625 -16 5 C-15.34 4.34 -14.68 3.68 -14 3 C-13.01 3 -12.02 3 -11 3 C-11 2.34 -11 1.68 -11 1 C-3.07894737 -0.47368421 -3.07894737 -0.47368421 0 0 Z " fill="#8A8A8A" transform="translate(130,70)"/>
<path d="M0 0 C1.234375 1.2578125 1.234375 1.2578125 2.75 3.125 C6.38219986 7.36893878 10.17287744 11.43047414 14.0625 15.4375 C14.65192383 16.06479004 15.24134766 16.69208008 15.84863281 17.33837891 C19.39484025 20.95289687 21.69507635 22.8142873 27 23 C27 22.34 27 21.68 27 21 C32.28 20.34 37.56 19.68 43 19 C40.19232924 21.80767076 36.93224584 22.26381826 33.1875 23.1875 C32.11918945 23.47270508 32.11918945 23.47270508 31.02929688 23.76367188 C26.9534998 24.78544894 24.00266373 25.30282184 20 24 C17.50463867 21.95874023 17.50463867 21.95874023 14.91796875 19.30859375 C14.45892654 18.84389175 13.99988434 18.37918976 13.52693176 17.90040588 C12.07075265 16.42193317 10.62914096 14.93013843 9.1875 13.4375 C8.19949902 12.42942493 7.21057596 11.4222527 6.22070312 10.41601562 C3.80303607 7.95437546 1.39823416 5.48059327 -1 3 C-6.06623768 7.23816537 -10.80038069 11.67408963 -15.4375 16.375 C-16.07365234 17.01566406 -16.70980469 17.65632813 -17.36523438 18.31640625 C-18.91250332 19.87530879 -20.45736492 21.43651416 -22 23 C-22 20 -22 20 -20.19580078 17.82348633 C-19.37063965 17.00130615 -18.54547852 16.17912598 -17.6953125 15.33203125 C-16.80199219 14.43935547 -15.90867188 13.54667969 -14.98828125 12.62695312 C-14.5185791 12.16554932 -14.04887695 11.70414551 -13.56494141 11.22875977 C-12.12871194 9.81615089 -10.70629161 8.39066681 -9.28515625 6.96289062 C-2.26672408 0 -2.26672408 0 0 0 Z " fill="#BDBDBD" transform="translate(159,242)"/>
<path d="M0 0 C3.411557 1.19390449 5.5710282 3.91551255 8.01293945 6.47631836 C8.78154297 7.26522461 8.78154297 7.26522461 9.56567383 8.07006836 C10.58543412 9.11703954 11.60239653 10.16674364 12.61645508 11.21923828 C14.7424567 13.41532396 16.91056127 15.56864443 19.07543945 17.72631836 C20.02290039 18.69118164 20.02290039 18.69118164 20.98950195 19.67553711 C21.55411133 20.24916992 22.1187207 20.82280273 22.70043945 21.41381836 C23.27020508 21.99518555 23.8399707 22.57655273 24.42700195 23.17553711 C26.1992692 24.92883734 26.1992692 24.92883734 29.07543945 26.72631836 C28.58043945 28.21131836 28.58043945 28.21131836 28.07543945 29.72631836 C21.80543945 30.38631836 15.53543945 31.04631836 9.07543945 31.72631836 C12.09034502 29.71638131 14.29043216 29.00008495 17.76293945 28.10131836 C18.75680664 27.84092773 19.75067383 27.58053711 20.7746582 27.31225586 C21.53391602 27.11889648 22.29317383 26.92553711 23.07543945 26.72631836 C23.07543945 26.06631836 23.07543945 25.40631836 23.07543945 24.72631836 C21.41328678 23.38736204 19.74580338 22.05501694 18.07543945 20.72631836 C16.7215701 19.07629008 15.38865803 17.40887966 14.07543945 15.72631836 C12.43240992 14.03634513 10.76072633 12.37415442 9.07543945 10.72631836 C7.46992191 9.12350371 5.86584943 7.51924073 4.26293945 5.91381836 C3.47274414 5.12362305 2.68254883 4.33342773 1.8684082 3.51928711 C1.27672852 2.92760742 0.68504883 2.33592773 0.07543945 1.72631836 C-0.39506836 2.13624023 -0.86557617 2.54616211 -1.3503418 2.96850586 C-2.28426758 3.77674805 -2.28426758 3.77674805 -3.23706055 4.60131836 C-3.85194336 5.13499023 -4.46682617 5.66866211 -5.1003418 6.21850586 C-6.92456055 7.72631836 -6.92456055 7.72631836 -9.92456055 9.72631836 C-8.4584925 5.91454143 -4.60852748 -0.65535447 0 0 Z " fill="#BDBDBD" transform="translate(193.924560546875,207.273681640625)"/>
<path d="M0 0 C0.66 0.33 1.32 0.66 2 1 C0.35 2.65 -1.3 4.3 -3 6 C-1.5735422 9.2586636 0.16704162 11.4024854 2.6953125 13.890625 C3.41074219 14.59960938 4.12617188 15.30859375 4.86328125 16.0390625 C5.60964844 16.76867187 6.35601562 17.49828125 7.125 18.25 C7.87910156 18.99507812 8.63320312 19.74015625 9.41015625 20.5078125 C11.26900772 22.3431342 13.13237005 24.1736191 15 26 C18.95374187 22.66883385 22.81041857 19.31571444 26.4375 15.625 C27.45650391 14.59246094 27.45650391 14.59246094 28.49609375 13.5390625 C28.99238281 13.03117187 29.48867187 12.52328125 30 12 C30.495 12.99 30.495 12.99 31 14 C29.38405168 16.04119788 27.7143618 18.04072937 26 20 C25.34 20 24.68 20 24 20 C24 20.66 24 21.32 24 22 C22.34614767 23.34919532 20.678298 24.68133728 19 26 C18.34 26.99 17.68 27.98 17 29 C13.29305107 28.44841898 11.89657629 27.11773346 9.5625 24.25 C6.84284851 20.99685611 4.04117305 17.96114218 1 15 C-1.33333333 12.66666667 -3.66666667 10.33333333 -6 8 C-5.625 5.875 -5.625 5.875 -5 4 C-4.34 4 -3.68 4 -3 4 C-2.67 3.01 -2.34 2.02 -2 1 C-1.34 0.67 -0.68 0.34 0 0 Z " fill="#D3D3D3" transform="translate(142,114)"/>
<path d="M0 0 C2.75074596 0.57910441 3.72879196 1.24729426 5.375 3.5 C5.375 4.16 5.375 4.82 5.375 5.5 C3.375 5.5 3.375 5.5 1.875 4.0625 C1.38 3.546875 0.885 3.03125 0.375 2.5 C-0.285 2.17 -0.945 1.84 -1.625 1.5 C-1.8832959 2.08426758 -2.1415918 2.66853516 -2.40771484 3.27050781 C-3.72173136 5.67716622 -5.14980015 7.25319337 -7.1015625 9.171875 C-8.10703125 10.16767578 -8.10703125 10.16767578 -9.1328125 11.18359375 C-9.83148438 11.86550781 -10.53015625 12.54742187 -11.25 13.25 C-11.95640625 13.94738281 -12.6628125 14.64476562 -13.390625 15.36328125 C-15.13098703 17.08012488 -16.87584981 18.79211832 -18.625 20.5 C-16.92913874 24.13303084 -14.88699512 26.44549046 -12 29.25 C-11.18273437 30.04921875 -10.36546875 30.8484375 -9.5234375 31.671875 C-8.89695313 32.27515625 -8.27046875 32.8784375 -7.625 33.5 C-12.23842543 33.5 -14.34967288 30.50795348 -17.625 27.5 C-18.45 26.819375 -19.275 26.13875 -20.125 25.4375 C-21.625 23.5 -21.625 23.5 -21.49609375 21.1796875 C-20.3907711 17.77945727 -18.7498014 16.15960839 -16.1875 13.6875 C-15.38441406 12.89730469 -14.58132812 12.10710937 -13.75390625 11.29296875 C-11.625 9.5 -11.625 9.5 -9.625 9.5 C-9.398125 8.943125 -9.17125 8.38625 -8.9375 7.8125 C-6.76531466 3.9853163 -4.46342792 0.85017675 0 0 Z " fill="#C8C8C8" transform="translate(193.625,135.5)"/>
<path d="M0 0 C2.24755232 0.88984725 3.40928853 1.87684504 4.9140625 3.7578125 C4.9140625 4.4178125 4.9140625 5.0778125 4.9140625 5.7578125 C4.2540625 5.7578125 3.5940625 5.7578125 2.9140625 5.7578125 C2.2540625 4.7678125 1.5940625 3.7778125 0.9140625 2.7578125 C-2.3446011 4.1842703 -4.4884229 5.92485412 -6.9765625 8.453125 C-7.68554688 9.16855469 -8.39453125 9.88398438 -9.125 10.62109375 C-10.21941406 11.74064453 -10.21941406 11.74064453 -11.3359375 12.8828125 C-12.08101562 13.63691406 -12.82609375 14.39101562 -13.59375 15.16796875 C-15.4290717 17.02682022 -17.2595566 18.89018255 -19.0859375 20.7578125 C-17.39007624 24.39084334 -15.34793262 26.70330296 -12.4609375 29.5078125 C-11.64367187 30.30703125 -10.82640625 31.10625 -9.984375 31.9296875 C-9.35789062 32.53296875 -8.73140625 33.13625 -8.0859375 33.7578125 C-11.0859375 33.7578125 -11.0859375 33.7578125 -13.0234375 32.078125 C-13.7040625 31.35367188 -14.3846875 30.62921875 -15.0859375 29.8828125 C-17.3813615 27.45696669 -19.28843894 25.62281154 -22.0859375 23.7578125 C-21.81075982 19.07979191 -19.75399864 17.01142497 -16.55859375 13.89453125 C-15.0859375 12.7578125 -15.0859375 12.7578125 -13.0859375 12.7578125 C-12.7559375 11.7678125 -12.4259375 10.7778125 -12.0859375 9.7578125 C-11.4259375 9.7578125 -10.7659375 9.7578125 -10.0859375 9.7578125 C-9.8796875 9.2215625 -9.6734375 8.6853125 -9.4609375 8.1328125 C-7.44618683 4.65278861 -4.43587009 -0.51502611 0 0 Z " fill="#C0C0C0" transform="translate(122.0859375,135.2421875)"/>
<path d="M0 0 C4.94876417 1.19970041 7.24452201 4.27439216 10.34765625 8.04296875 C12.0359124 10.14193188 12.0359124 10.14193188 14.5 12.1875 C16 14 16 14 15.8125 16.41015625 C14.8673521 19.42281518 13.95479801 20.32123014 11.5 22.25 C6.68523175 26.2059177 2.36385065 30.55868455 -2 35 C-2.99889197 36.00110681 -3.99842147 37.00158102 -5 38 C-6.17539996 37.07347299 -7.34010577 36.13336613 -8.5 35.1875 C-9.1496875 34.66542969 -9.799375 34.14335937 -10.46875 33.60546875 C-12 32 -12 32 -12 29 C-9.69 30.98 -7.38 32.96 -5 35 C1.27 28.73 7.54 22.46 14 16 C12.68 14.68 11.36 13.36 10 12 C10 11.34 10 10.68 10 10 C9.01 9.67 8.02 9.34 7 9 C5.62517293 7.36739286 4.29352333 5.69774938 3 4 C2.4225 3.4225 1.845 2.845 1.25 2.25 C0.63125 1.63125 0.63125 1.63125 0 1 C0 0.67 0 0.34 0 0 Z " fill="#DFDFDF" transform="translate(199,141)"/>
<path d="M0 0 C6.90767437 0.36823999 12.6381142 1.23918163 19 4 C17.87994369 7.36016893 16.62788203 8.69064913 14 11 C13.34 11 12.68 11 12 11 C12 11.66 12 12.32 12 13 C11.01 13.66 10.02 14.32 9 15 C8.67 15.99 8.34 16.98 8 18 C5.4375 19.1875 5.4375 19.1875 3 20 C3 20.66 3 21.32 3 22 C1.54588192 23.22278111 0.08788691 24.44157582 -1.3984375 25.625 C-3.59201358 27.50826532 -5.28110803 29.68610696 -7 32 C-8.32 31.67 -9.64 31.34 -11 31 C-10.67 30.34 -10.34 29.68 -10 29 C-9.34 29 -8.68 29 -8 29 C-6.85183578 27.91976152 -5.71488915 26.82610014 -4.62304688 25.68896484 C-2.65268346 23.63857764 -0.63184355 21.64353234 1.390625 19.64453125 C3.01047605 18.03391388 4.6302662 16.42323528 6.25 14.8125 C7.07757813 13.99330078 7.90515625 13.17410156 8.7578125 12.33007812 C9.93730469 11.15541992 9.93730469 11.15541992 11.140625 9.95703125 C11.85766602 9.24522705 12.57470703 8.53342285 13.31347656 7.80004883 C15.07095171 6.09575224 15.07095171 6.09575224 16 4 C14.64455078 3.81824219 14.64455078 3.81824219 13.26171875 3.6328125 C11.49248047 3.38144531 11.49248047 3.38144531 9.6875 3.125 C8.51574219 2.96257812 7.34398437 2.80015625 6.13671875 2.6328125 C3 2 3 2 0 0 Z " fill="#D1D1D1" transform="translate(202,75)"/>
<path d="M0 0 C0.66 0.33 1.32 0.66 2 1 C1.50628906 1.48210937 1.01257813 1.96421875 0.50390625 2.4609375 C-0.45708984 3.40839844 -0.45708984 3.40839844 -1.4375 4.375 C-2.07558594 5.00148437 -2.71367187 5.62796875 -3.37109375 6.2734375 C-5.07882176 7.91723061 -5.07882176 7.91723061 -6 10 C-6.66 10 -7.32 10 -8 10 C-5.92230087 13.71347496 -3.63428585 16.74356759 -0.6875 19.8125 C0.05113281 20.60269531 0.78976563 21.39289063 1.55078125 22.20703125 C4.6277589 24.45955556 6.26177526 24.41812367 10 24 C11.19625 23.649375 12.3925 23.29875 13.625 22.9375 C16.78226662 22.06048149 18.0388546 21.81554184 21 23 C15.49952681 26.5141912 9.49472398 27.4779667 3 27 C0.5625 24.8125 0.5625 24.8125 -1 22 C-2.64639965 20.64172029 -4.31295807 19.30745749 -6 18 C-8.375 16.0625 -8.375 16.0625 -10 14 C-9.77301741 9.33511648 -7.74447121 7.30816297 -4.4375 4.1875 C-3.61121094 3.39730469 -2.78492188 2.60710937 -1.93359375 1.79296875 C-1.29550781 1.20128906 -0.65742188 0.60960937 0 0 Z " fill="#C4C4C4" transform="translate(182,217)"/>
<path d="M0 0 C0.66 0.33 1.32 0.66 2 1 C1.13375 1.639375 0.2675 2.27875 -0.625 2.9375 C-3.46046187 5.85567132 -3.46046187 5.85567132 -2.5625 9.75 C-2.04842338 11.50199674 -1.52615214 13.25159178 -1 15 C-0.27921989 17.88811593 0.38920356 20.78800653 1.0625 23.6875 C1.23644287 24.41227539 1.41038574 25.13705078 1.58959961 25.88378906 C2.54998706 29.90624798 3.37496977 33.90830725 4 38 C7.52381687 35.45395403 7.52381687 35.45395403 10 32 C10.66 32 11.32 32 12 32 C10.55873214 35.36295835 8.79407345 37.62927102 6 40 C5.01 40 4.02 40 3 40 C2.58427734 38.60974609 2.58427734 38.60974609 2.16015625 37.19140625 C1.79792969 35.99386719 1.43570313 34.79632813 1.0625 33.5625 C0.52302734 31.77005859 0.52302734 31.77005859 -0.02734375 29.94140625 C-0.70889142 27.14132455 -0.70889142 27.14132455 -2 26 C-2.57002729 23.43930747 -3.08524383 20.89059674 -3.5625 18.3125 C-3.70107422 17.60416016 -3.83964844 16.89582031 -3.98242188 16.16601562 C-4.75354024 12.05211815 -5.15235642 8.20636206 -5 4 C-4.34 4 -3.68 4 -3 4 C-2.67 3.01 -2.34 2.02 -2 1 C-1.34 0.67 -0.68 0.34 0 0 Z " fill="#B9B9B9" transform="translate(76,180)"/>
<path d="M0 0 C-2.6575944 1.03350893 -5.31818409 2.03242556 -8 3 C-8.68964844 3.25136719 -9.37929687 3.50273438 -10.08984375 3.76171875 C-15.91399952 5.69628016 -21.83253739 6.76087081 -27.875 7.75 C-28.70813721 7.88986328 -29.54127441 8.02972656 -30.3996582 8.17382812 C-31.19331787 8.29693359 -31.98697754 8.42003906 -32.8046875 8.546875 C-33.87178955 8.71461426 -33.87178955 8.71461426 -34.96044922 8.88574219 C-37.17900352 9.01002797 -38.88390066 8.64333225 -41 8 C-4.51351351 -2.25675676 -4.51351351 -2.25675676 0 0 Z " fill="#797979" transform="translate(130,50)"/>
<path d="M0 0 C1.92400379 1.61200318 3.36794658 3.12119049 5 5 C5.70253906 5.72445312 6.40507812 6.44890625 7.12890625 7.1953125 C7.87011719 7.97648437 8.61132812 8.75765625 9.375 9.5625 C10.08398438 10.30628906 10.79296875 11.05007812 11.5234375 11.81640625 C13 14 13 14 12.84765625 16.13671875 C11.68883614 18.68398691 10.12037416 20.20089465 8 22 C7.34 22 6.68 22 6 22 C5.67 22.99 5.34 23.98 5 25 C4.34 25 3.68 25 3 25 C3.66 23.68 4.32 22.36 5 21 C5.66 21 6.32 21 7 21 C7 20.34 7 19.68 7 19 C8.29233607 17.62689293 9.62437146 16.28965176 11 15 C9.16922791 12.95278195 7.31538225 10.94072361 5.4375 8.9375 C4.92380859 8.35677734 4.41011719 7.77605469 3.88085938 7.17773438 C2.32059264 5.53993886 0.92420624 4.19276815 -1 3 C-4.62353898 2.95207555 -4.62353898 2.95207555 -8 4 C-9.47855858 4.19223635 -10.95761462 4.38075969 -12.4375 4.5625 C-14.2009375 4.7790625 -14.2009375 4.7790625 -16 5 C-15.34 4.34 -14.68 3.68 -14 3 C-13.01 3 -12.02 3 -11 3 C-11 2.34 -11 1.68 -11 1 C-3.07894737 -0.47368421 -3.07894737 -0.47368421 0 0 Z " fill="#C3C3C3" transform="translate(130,70)"/>
<path d="M0 0 C0.99 0 1.98 0 3 0 C1.86818851 17.99189985 1.86818851 17.99189985 -2.6015625 22.6796875 C-5.92622651 24.50987713 -9.39518621 25.33916549 -13.0625 26.1875 C-13.78244141 26.36474609 -14.50238281 26.54199219 -15.24414062 26.72460938 C-18.22916795 27.44245717 -20.9195409 28 -24 28 C-24 27.34 -24 26.68 -24 26 C-22.02 26 -20.04 26 -18 26 C-18 25.34 -18 24.68 -18 24 C-17.16855469 23.87882812 -16.33710938 23.75765625 -15.48046875 23.6328125 C-14.39378906 23.46523437 -13.30710938 23.29765625 -12.1875 23.125 C-11.10855469 22.96257812 -10.02960938 22.80015625 -8.91796875 22.6328125 C-5.82678207 22.14867662 -5.82678207 22.14867662 -3 20 C-2.31070146 17.88877317 -2.31070146 17.88877317 -2.05078125 15.4296875 C-1.86225586 14.08583984 -1.86225586 14.08583984 -1.66992188 12.71484375 C-1.55197266 11.77769531 -1.43402344 10.84054688 -1.3125 9.875 C-1.18294922 8.93011719 -1.05339844 7.98523438 -0.91992188 7.01171875 C-0.60138894 4.67581054 -0.29529519 2.33894047 0 0 Z " fill="#C1C1C1" transform="translate(252,227)"/>
<path d="M0 0 C5.91979647 0.79454495 11.90835841 1.92818683 17.5625 3.875 C18.0575 4.865 18.0575 4.865 18.5625 5.875 C16.43689563 5.56663768 14.31202935 5.25318386 12.1875 4.9375 C11.00414062 4.76347656 9.82078125 4.58945312 8.6015625 4.41015625 C5.5625 3.875 5.5625 3.875 3.5625 2.875 C-1.19685134 2.33869144 -1.19685134 2.33869144 -5.25 4.375 C-5.641875 4.87 -6.03375 5.365 -6.4375 5.875 C-7.0975 5.875 -7.7575 5.875 -8.4375 5.875 C-8.4375 6.535 -8.4375 7.195 -8.4375 7.875 C-10.3125 10 -10.3125 10 -12.4375 11.875 C-13.0975 11.875 -13.7575 11.875 -14.4375 11.875 C-14.7675 12.865 -15.0975 13.855 -15.4375 14.875 C-16.0975 14.875 -16.7575 14.875 -17.4375 14.875 C-15.84657948 10.73860664 -12.83275082 7.64286752 -9.4375 4.875 C-8.7775 4.875 -8.1175 4.875 -7.4375 4.875 C-7.4375 4.215 -7.4375 3.555 -7.4375 2.875 C-5.15489089 -0.1733406 -3.70173566 -0.47411393 0 0 Z " fill="#CDCDCD" transform="translate(183.4375,47.125)"/>
<path d="M0 0 C-4.62 1.32 -9.24 2.64 -14 4 C-9.01595832 10.03331362 -3.58084697 15.5184171 2 21 C-2.04863987 21 -3.01557142 19.70680732 -6 17 C-7.54623007 15.27834013 -9.0337921 13.52142285 -10.50390625 11.734375 C-12.15176966 9.75522833 -12.15176966 9.75522833 -14.9375 7.3125 C-15.618125 6.549375 -16.29875 5.78625 -17 5 C-16.62890625 2.85546875 -16.62890625 2.85546875 -16 1 C-14.0852312 0.63571223 -12.16807707 0.28394694 -10.25 -0.0625 C-9.18265625 -0.25972656 -8.1153125 -0.45695312 -7.015625 -0.66015625 C-4 -1 -4 -1 0 0 Z " fill="#D3D3D3" transform="translate(112,76)"/>
<path d="M0 0 C4.36316557 4.36316557 4.60120072 10.20840504 5.4375 16.0625 C6.19573459 20.2280905 6.19573459 20.2280905 8 24 C10.52034757 24.99788881 12.63395381 25.64269959 15.25 26.1875 C19.91589771 27.26459819 24.47662466 28.40558043 29 30 C24.25890784 31.4994679 20.61135775 30.20341381 15.9375 28.9375 C14.71450195 28.64842773 14.71450195 28.64842773 13.46679688 28.35351562 C9.50608542 27.28929817 7.52526444 26.73131329 5.078125 23.32421875 C3.84716096 19.52874631 2.73771138 15.75584775 1.8125 11.875 C1.63525391 11.17246094 1.45800781 10.46992188 1.27539062 9.74609375 C0.44800299 6.36626319 0 3.50253505 0 0 Z " fill="#C7C7C7" transform="translate(59,224)"/>
<path d="M0 0 C6.3986197 0.51188958 12.22045839 2.12651793 18.3671875 3.9453125 C23.54162289 5.44756794 28.76355675 6.73404669 34 8 C30.89351499 9.035495 29.65883131 8.98292615 26.5078125 8.51171875 C25.63769531 8.38216797 24.76757812 8.25261719 23.87109375 8.11914062 C22.96488281 7.97669922 22.05867188 7.83425781 21.125 7.6875 C20.22652344 7.55666016 19.32804687 7.42582031 18.40234375 7.29101562 C14.02441518 6.62171635 10.0327129 5.93199007 6 4 C6 3.34 6 2.68 6 2 C3.03 1.505 3.03 1.505 0 1 C0 0.67 0 0.34 0 0 Z " fill="#A5A5A5" transform="translate(204,53)"/>
<path d="M0 0 C0.66 0.33 1.32 0.66 2 1 C1.38125 1.7425 0.7625 2.485 0.125 3.25 C-2.0028935 5.7763634 -2.0028935 5.7763634 -2.9375 8.125 C-4.42983004 10.75852361 -6.33378445 11.66689222 -9 13 C-9.66 13 -10.32 13 -11 13 C-11 13.66 -11 14.32 -11 15 C-12.62626404 16.38232443 -14.2925002 17.71937515 -16 19 C-17.17539996 18.07347299 -18.34010577 17.13336613 -19.5 16.1875 C-20.1496875 15.66542969 -20.799375 15.14335937 -21.46875 14.60546875 C-23 13 -23 13 -23 10 C-20.69 11.98 -18.38 13.96 -16 16 C-15.071875 15.01 -15.071875 15.01 -14.125 14 C-12 12 -12 12 -10 12 C-10 11.34 -10 10.68 -10 10 C-9.34 10 -8.68 10 -8 10 C-7.34 8.68 -6.68 7.36 -6 6 C-5.34 6 -4.68 6 -4 6 C-3.566875 5.071875 -3.566875 5.071875 -3.125 4.125 C-2 2 -2 2 0 0 Z " fill="#D4D4D4" transform="translate(138,160)"/>
<path d="M0 0 C2.41853265 7.04680375 0.02480728 16.3667576 -3 22.9375 C-3.34546875 23.62585938 -3.6909375 24.31421875 -4.046875 25.0234375 C-5.44785258 27.92874346 -6.2036571 30.8809903 -7 34 C-7.95731 30.9749677 -8.01241731 29.12571084 -7.109375 26.09375 C-6.89563232 25.35495605 -6.68188965 24.61616211 -6.46166992 23.85498047 C-6.22681885 23.07783691 -5.99196777 22.30069336 -5.75 21.5 C-5.28131618 19.88837974 -4.81387193 18.27639849 -4.34765625 16.6640625 C-4.1170752 15.87418945 -3.88649414 15.08431641 -3.64892578 14.27050781 C-2.29927182 9.54824225 -1.15131768 4.77375624 0 0 Z " fill="#AFAFAF" transform="translate(58,91)"/>
<path d="M0 0 C3.31002696 1.43753955 5.43889464 3.22483544 7.9375 5.8125 C8.98164062 6.88371094 8.98164062 6.88371094 10.046875 7.9765625 C11.01367188 8.97816406 11.01367188 8.97816406 12 10 C12.886875 10.886875 13.77375 11.77375 14.6875 12.6875 C15.450625 13.450625 16.21375 14.21375 17 15 C17.886875 15.845625 18.77375 16.69125 19.6875 17.5625 C21.71171046 19.69612724 22.90335323 21.30823065 24 24 C23.34 24 22.68 24 22 24 C22 23.34 22 22.68 22 22 C21.443125 21.773125 20.88625 21.54625 20.3125 21.3125 C17.33840412 19.62449964 15.27991135 17.53323483 13 15 C13 14.34 13 13.68 13 13 C12.401875 12.731875 11.80375 12.46375 11.1875 12.1875 C9.00152146 11.00082594 7.58667406 9.90400887 6 8 C6 7.34 6 6.68 6 6 C5.34 6 4.68 6 4 6 C2.61061923 4.03852126 1.2739589 2.03833424 0 0 Z " fill="#C5C5C5" transform="translate(82,96)"/>
<path d="M0 0 C5.77455971 3.42059906 10.10552131 7.946191 14.75 12.75 C16.26099484 14.31178458 17.77639229 15.86932587 19.296875 17.421875 C19.96041992 18.10862305 20.62396484 18.79537109 21.30761719 19.50292969 C22.8730835 21.22085485 22.8730835 21.22085485 25 21 C25 21.99 25 22.98 25 24 C18.56847373 23.28538597 14.61374111 16.43946917 10.63671875 11.8671875 C6.94816018 7.52569236 6.94816018 7.52569236 2 5 C0.8125 2.4375 0.8125 2.4375 0 0 Z " fill="#D1D1D1" transform="translate(211,196)"/>
<path d="M0 0 C1.32 0.66 2.64 1.32 4 2 C2.73515607 16.67884665 2.73515607 16.67884665 -2 21 C-1.47557284 15.49351486 -0.7052156 10.29801577 0.6953125 4.9453125 C1.18533207 2.79063269 1.18533207 2.79063269 0 0 Z " fill="#9A9A9A" transform="translate(241,183)"/>
<path d="M0 0 C0.99 0.33 1.98 0.66 3 1 C3 1.66 3 2.32 3 3 C2.34 3 1.68 3 1 3 C0.86335938 3.86238281 0.72671875 4.72476563 0.5859375 5.61328125 C0.02822713 8.83684716 -0.62443457 12.00364988 -1.375 15.1875 C-1.60960938 16.21230469 -1.84421875 17.23710938 -2.0859375 18.29296875 C-3.00595601 21.01763895 -3.79958579 22.21139516 -6 24 C-5.44858675 19.40488962 -4.45860603 15.37581809 -3 11 C-2.835 9.80375 -2.67 8.6075 -2.5 7.375 C-2.05940269 4.40096816 -1.52461833 2.54103055 0 0 Z " fill="#B4B4B4" transform="translate(79,93)"/>
<path d="M0 0 C4.94876417 1.19970041 7.24452201 4.27439216 10.34765625 8.04296875 C12.0359124 10.14193188 12.0359124 10.14193188 14.5 12.1875 C16 14 16 14 15.75 16.75 C15.5025 17.4925 15.255 18.235 15 19 C14.5978125 18.1028125 14.5978125 18.1028125 14.1875 17.1875 C13.1106021 14.95672092 13.1106021 14.95672092 11.375 13.375 C10.92125 12.92125 10.4675 12.4675 10 12 C10 11.34 10 10.68 10 10 C9.01 9.67 8.02 9.34 7 9 C5.62517293 7.36739286 4.29352333 5.69774938 3 4 C2.4225 3.4225 1.845 2.845 1.25 2.25 C0.8375 1.8375 0.425 1.425 0 1 C0 0.67 0 0.34 0 0 Z " fill="#BABABA" transform="translate(199,141)"/>
<path d="M0 0 C8.09989092 0.54123695 16.19459933 1.73111441 24 4 C24.33 4.66 24.66 5.32 25 6 C16.26046032 4.98074847 7.59367299 3.94183957 -1 2 C-0.67 1.34 -0.34 0.68 0 0 Z " fill="#A6A6A6" transform="translate(185,70)"/>
<path d="M0 0 C4.38249366 1.33909529 6.57949251 3.08994944 9 7 C9 10.00093628 8.02767579 10.96786037 6.0625 13.25 C4 15 4 15 2 15 C1.67 15.99 1.34 16.98 1 18 C0.34 18 -0.32 18 -1 18 C-0.34 16.68 0.32 15.36 1 14 C1.66 14 2.32 14 3 14 C3 13.34 3 12.68 3 12 C4.29233607 10.62689293 5.62437146 9.28965176 7 8 C6.4946875 7.50628906 5.989375 7.01257813 5.46875 6.50390625 C4.49421875 5.54291016 4.49421875 5.54291016 3.5 4.5625 C2.8503125 3.92441406 2.200625 3.28632812 1.53125 2.62890625 C0 1 0 1 0 0 Z " fill="#D3D3D3" transform="translate(134,77)"/>
<path d="M0 0 C0.66 0 1.32 0 2 0 C1.875 2.25 1.875 2.25 1 5 C-3.77818182 9.03490909 -3.77818182 9.03490909 -7.1875 8.9375 C-9.24866332 7.87138104 -10.55049671 6.81187911 -12 5 C-12 4.34 -12 3.68 -12 3 C-9.00667261 3.9977758 -8.05233685 4.7522025 -6 7 C-5.54625 6.34 -5.0925 5.68 -4.625 5 C-4.08875 4.34 -3.5525 3.68 -3 3 C-2.34 3 -1.68 3 -1 3 C-0.67 2.01 -0.34 1.02 0 0 Z " fill="#C1C1C1" transform="translate(164,62)"/>
<path d="M0 0 C0.99 0.495 0.99 0.495 2 1 C2.5625 3.546875 2.5625 3.546875 3 6.75 C3.56291562 10.83113823 4.45635825 14.19366969 6 18 C5.625 20.3125 5.625 20.3125 5 22 C4.34 21.67 3.68 21.34 3 21 C2.49755859 18.95874023 2.49755859 18.95874023 2.1484375 16.30859375 C2.01953125 15.36435547 1.890625 14.42011719 1.7578125 13.44726562 C1.63148438 12.45404297 1.50515625 11.46082031 1.375 10.4375 C1.2409375 9.44041016 1.106875 8.44332031 0.96875 7.41601562 C0.63770112 4.94497221 0.31517856 2.47310948 0 0 Z " fill="#787878" transform="translate(237,97)"/>
<path d="M0 0 C-7.58739171 3.07677695 -14.88602288 4.92380059 -23 6 C-23 5.34 -23 4.68 -23 4 C-20.77155786 3.3516711 -18.5422154 2.70643631 -16.3125 2.0625 C-14.45044922 1.52302734 -14.45044922 1.52302734 -12.55078125 0.97265625 C-4.05978261 -1.35326087 -4.05978261 -1.35326087 0 0 Z " fill="#C2C2C2" transform="translate(88,60)"/>
<path d="M0 0 C0.33 0.99 0.66 1.98 1 3 C-2.63 6.63 -6.26 10.26 -10 14 C-10.99 13.67 -11.98 13.34 -13 13 C-11.71034824 11.62437146 -10.37310707 10.29233607 -9 9 C-8.34 9 -7.68 9 -7 9 C-6.773125 8.443125 -6.54625 7.88625 -6.3125 7.3125 C-4.64103234 4.36753316 -2.44723648 2.31843456 0 0 Z " fill="#B5B5B5" transform="translate(155,100)"/>
<path d="M0 0 C-1 1 -1 1 -4.0625 1.0625 C-5.031875 1.041875 -6.00125 1.02125 -7 1 C-7 1.66 -7 2.32 -7 3 C-8.74784829 3.36463732 -10.49840502 3.7163078 -12.25 4.0625 C-13.71179688 4.35833984 -13.71179688 4.35833984 -15.203125 4.66015625 C-17.91719577 4.98993859 -19.42565453 4.73518293 -22 4 C-19.08644159 3.13372595 -16.16995672 2.28168994 -13.25 1.4375 C-12.425 1.19064453 -11.6 0.94378906 -10.75 0.68945312 C-9.95078125 0.46064453 -9.1515625 0.23183594 -8.328125 -0.00390625 C-7.5949707 -0.21861572 -6.86181641 -0.4333252 -6.10644531 -0.65454102 C-3.76130184 -1.03914672 -2.24174192 -0.72878764 0 0 Z " fill="#C3C3C3" transform="translate(111,54)"/>
<path d="M0 0 C-2.8937133 0.84137043 -5.78959397 1.6733036 -8.6875 2.5 C-9.50412109 2.73847656 -10.32074219 2.97695313 -11.16210938 3.22265625 C-15.19171125 4.36464868 -18.76504847 5.34500623 -23 5 C-18.45689714 1.97126476 -14.24001378 0.70666896 -8.875 -0.1875 C-7.32425781 -0.45626953 -7.32425781 -0.45626953 -5.7421875 -0.73046875 C-3 -1 -3 -1 0 0 Z " fill="#B5B5B5" transform="translate(225,256)"/>
<path d="M0 0 C0.66 0.33 1.32 0.66 2 1 C-2.29 5.29 -6.58 9.58 -11 14 C-11.33 13.01 -11.66 12.02 -12 11 C-10.88121617 9.82737096 -9.75476949 8.66204862 -8.625 7.5 C-7.68527344 6.52546875 -7.68527344 6.52546875 -6.7265625 5.53125 C-5 4 -5 4 -3 4 C-2.67 3.01 -2.34 2.02 -2 1 C-1.34 0.67 -0.68 0.34 0 0 Z " fill="#CFCFCF" transform="translate(220,108)"/>
<path d="M0 0 C0.99 0 1.98 0 3 0 C2.85904936 1.6254308 2.71207913 3.25034051 2.5625 4.875 C2.48128906 5.77992188 2.40007812 6.68484375 2.31640625 7.6171875 C2 10 2 10 1 12 C0.34 12 -0.32 12 -1 12 C-1.08159574 7.83861737 -0.98248524 4.0527516 0 0 Z " fill="#838383" transform="translate(252,227)"/>
<path d="M0 0 C2.59637377 0.72121494 3.66652755 1.45814296 5.25 3.625 C5.25 4.285 5.25 4.945 5.25 5.625 C3.25 5.625 3.25 5.625 1.75 4.1875 C1.255 3.671875 0.76 3.15625 0.25 2.625 C-0.41 2.295 -1.07 1.965 -1.75 1.625 C-2.018125 2.223125 -2.28625 2.82125 -2.5625 3.4375 C-3.73493467 5.59724808 -4.94369282 6.98290256 -6.75 8.625 C-7.74 8.295 -8.73 7.965 -9.75 7.625 C-3.75595152 0.85362534 -3.75595152 0.85362534 0 0 Z " fill="#C3C3C3" transform="translate(193.75,135.375)"/>
<path d="M0 0 C2.22775337 3.34163006 3.12738864 6.54712825 4.125 10.375 C4.30675781 11.035 4.48851562 11.695 4.67578125 12.375 C5.63494694 15.99530961 6.21694345 19.25410979 6 23 C0.76497767 17.76497767 0.59270604 7.11247247 0 0 Z " fill="#C0C0C0" transform="translate(258,98)"/>
<path d="M0 0 C-5.66221678 3.61752739 -11.40232633 3.69040043 -18 4 C-18.33 3.34 -18.66 2.68 -19 2 C-18.33613281 1.86722656 -17.67226562 1.73445312 -16.98828125 1.59765625 C-15.66376953 1.33275391 -15.66376953 1.33275391 -14.3125 1.0625 C-11.65625 0.53125 -11.65625 0.53125 -9 0 C-8.113125 -0.1959375 -7.22625 -0.391875 -6.3125 -0.59375 C-3.84830201 -1.02664965 -2.35132939 -0.78377646 0 0 Z " fill="#AAAAAA" transform="translate(203,240)"/>
<path d="M0 0 C0.66 0.33 1.32 0.66 2 1 C1.67 1.99 1.34 2.98 1 4 C-8.405 4.99 -8.405 4.99 -18 6 C-14.46939899 3.64626599 -11.41404244 3.34221585 -7.3125 2.875 C-6.61060547 2.78863281 -5.90871094 2.70226562 -5.18554688 2.61328125 C-3.45788855 2.40173125 -1.7290434 2.199914 0 2 C0 1.34 0 0.68 0 0 Z " fill="#8C8C8C" transform="translate(221,233)"/>
<path d="M0 0 C0.99 0.33 1.98 0.66 3 1 C-0.3 4.3 -3.6 7.6 -7 11 C-7.66 10.67 -8.32 10.34 -9 10 C-7.8758824 8.70756532 -6.75067408 7.41607925 -5.625 6.125 C-4.99851562 5.40570313 -4.37203125 4.68640625 -3.7265625 3.9453125 C-2.52573166 2.5923402 -1.2791655 1.2791655 0 0 Z " fill="#CCCCCC" transform="translate(108,219)"/>
<path d="M0 0 C0.66 0.33 1.32 0.66 2 1 C1.13375 1.598125 0.2675 2.19625 -0.625 2.8125 C-3.30414875 5.71005987 -3.30414875 5.71005987 -2.88671875 8.78125 C-2.36052977 11.55895508 -1.74939494 14.27449357 -1 17 C-3 16 -3 16 -4.125 13.3125 C-4.98889074 10.0420565 -5.16013991 7.36293818 -5 4 C-4.34 4 -3.68 4 -3 4 C-2.67 3.01 -2.34 2.02 -2 1 C-1.34 0.67 -0.68 0.34 0 0 Z " fill="#CFCFCF" transform="translate(76,180)"/>
<path d="M0 0 C0.33 0.66 0.66 1.32 1 2 C-0.61594832 4.04119788 -2.2856382 6.04072937 -4 8 C-4.66 8 -5.32 8 -6 8 C-6 8.66 -6 9.32 -6 10 C-7.62626404 11.38232443 -9.2925002 12.71937515 -11 14 C-11.66 13.67 -12.32 13.34 -13 13 C-8.71 8.71 -4.42 4.42 0 0 Z " fill="#E1E1E1" transform="translate(172,126)"/>
<path d="M0 0 C0.66 0.33 1.32 0.66 2 1 C1.38125 1.7425 0.7625 2.485 0.125 3.25 C-2.01567294 5.79541492 -2.01567294 5.79541492 -3 8.25 C-4 10 -4 10 -6.125 10.75 C-7.053125 10.87375 -7.053125 10.87375 -8 11 C-7.6875 9.0625 -7.6875 9.0625 -7 7 C-6.01 6.67 -5.02 6.34 -4 6 C-2.90833725 4.06669397 -2.90833725 4.06669397 -2 2 C-1.34 1.34 -0.68 0.68 0 0 Z " fill="#B9B9B9" transform="translate(138,160)"/>
<path d="M0 0 C0.66 0.33 1.32 0.66 2 1 C0.35 2.65 -1.3 4.3 -3 6 C-2.649375 6.598125 -2.29875 7.19625 -1.9375 7.8125 C-1 10 -1 10 -2 13 C-4.0625 10.75 -4.0625 10.75 -6 8 C-5.75 5.6875 -5.75 5.6875 -5 4 C-4.34 4 -3.68 4 -3 4 C-2.67 3.01 -2.34 2.02 -2 1 C-1.34 0.67 -0.68 0.34 0 0 Z " fill="#C9C9C9" transform="translate(142,114)"/>
<path d="M0 0 C0.99 0.33 1.98 0.66 3 1 C3.66 5.95 4.32 10.9 5 16 C2.14176576 13.14176576 2.24468212 10.2169058 1.66015625 6.3125 C1.16853934 3.64449072 1.16853934 3.64449072 -2 2 C-1.34 1.34 -0.68 0.68 0 0 Z " fill="#BCBCBC" transform="translate(234,93)"/>
<path d="M0 0 C0.66 0.33 1.32 0.66 2 1 C-1.72346836 5.42094803 -5.29521038 9.57833482 -10 13 C-10.66 12.67 -11.32 12.34 -12 12 C-8.04 8.04 -4.08 4.08 0 0 Z " fill="#D9D9D9" transform="translate(140,230)"/>
<path d="M0 0 C0.51949219 0.45632812 1.03898438 0.91265625 1.57421875 1.3828125 C3.6615309 3.10359109 5.64753623 4.66070454 8 6 C10.97514011 5.58184478 10.97514011 5.58184478 13 4 C12.67 4.99 12.34 5.98 12 7 C9.4375 8.1875 9.4375 8.1875 7 9 C3.99234114 6.15063897 1.72154788 3.76488042 0 0 Z " fill="#B1B1B1" transform="translate(150,206)"/>
<path d="M0 0 C6.55925943 0.38979206 11.94526627 1.42113193 18 4 C13.93714243 5.63129887 10.79897816 4.29968777 6.75 3.0625 C5.48671875 2.68222656 4.2234375 2.30195313 2.921875 1.91015625 C1.95765625 1.60980469 0.9934375 1.30945313 0 1 C0 0.67 0 0.34 0 0 Z " fill="#515151" transform="translate(79,251)"/>
<path d="M0 0 C0 0.66 0 1.32 0 2 C-0.66 2 -1.32 2 -2 2 C-2.2475 2.5775 -2.495 3.155 -2.75 3.75 C-4.16683317 6.3002997 -5.87627537 8.01785701 -8 10 C-8.99 9.67 -9.98 9.34 -11 9 C-10.01 8.67 -9.02 8.34 -8 8 C-7.31513275 6.67592331 -6.65129797 5.34090759 -6 4 C-2.44444444 0 -2.44444444 0 0 0 Z " fill="#AFAFAF" transform="translate(87,170)"/>
<path d="M0 0 C4.52615993 3.67832017 8.39424999 7.41086363 12 12 C7.15604338 9.95063374 2.95798563 6.95951606 0.625 2.1875 C0.41875 1.465625 0.2125 0.74375 0 0 Z " fill="#D6D6D6" transform="translate(174,158)"/>
<path d="M0 0 C2.475 0.99 2.475 0.99 5 2 C5 2.66 5 3.32 5 4 C5.61875 4.2475 6.2375 4.495 6.875 4.75 C9.35068687 6.20628639 9.95125002 7.37812506 11 10 C7.125 8.25 7.125 8.25 6 6 C4.7625 5.566875 4.7625 5.566875 3.5 5.125 C1 4 1 4 0.1875 1.875 C0.125625 1.25625 0.06375 0.6375 0 0 Z " fill="#AFAFAF" transform="translate(180,94)"/>
<path d="M0 0 C0.99 0.33 1.98 0.66 3 1 C2.21625 1.7425 1.4325 2.485 0.625 3.25 C-1.56504531 5.54433318 -2.82731386 7.12158858 -4 10 C-4.8125 7.8125 -4.8125 7.8125 -5 5 C-2.5625 2.1875 -2.5625 2.1875 0 0 Z " fill="#C2C2C2" transform="translate(141,186)"/>
<path d="M0 0 C4.19795804 4.19795804 4.42576654 9.35337097 5 15 C4.34 15 3.68 15 3 15 C2.49363393 13.25183142 1.99515381 11.50137737 1.5 9.75 C1.2215625 8.77546875 0.943125 7.8009375 0.65625 6.796875 C0 4 0 4 0 0 Z " fill="#B5B5B5" transform="translate(59,224)"/>
<path d="M0 0 C4.25742137 0.47304682 6.25705098 2.8863822 9 6 C9.33 6.99 9.66 7.98 10 9 C9.34 9 8.68 9 8 9 C8 8.34 8 7.68 8 7 C7.4225 6.773125 6.845 6.54625 6.25 6.3125 C3.4336339 4.66961977 1.91922886 2.60466773 0 0 Z " fill="#D6D6D6" transform="translate(96,111)"/>
<path d="M0 0 C4.4062186 1.34634457 6.43077702 3.19374374 9 7 C9 7.66 9 8.32 9 9 C7 9 7 9 5.375 7.625 C4 6 4 6 4 4 C3.01 3.67 2.02 3.34 1 3 C0.67 2.01 0.34 1.02 0 0 Z " fill="#B8B8B8" transform="translate(232,174)"/>
<path d="M0 0 C1.32 0 2.64 0 4 0 C3.375 1.875 3.375 1.875 2 4 C-1.125 5.25 -1.125 5.25 -4 6 C-3.34 4.68 -2.68 3.36 -2 2 C-1.34 2 -0.68 2 0 2 C0 1.34 0 0.68 0 0 Z " fill="#999999" transform="translate(92,206)"/>
<path d="M0 0 C0.33 0.99 0.66 1.98 1 3 C-3.625 7.875 -3.625 7.875 -7 9 C-5.44499019 5.18315774 -2.96404505 2.80804268 0 0 Z " fill="#4B4B4B" transform="translate(203,169)"/>
<path d="M0 0 C0.33 0.66 0.66 1.32 1 2 C-3.43076923 7.78461538 -3.43076923 7.78461538 -6.3125 8.875 C-6.869375 8.91625 -7.42625 8.9575 -8 9 C-7.67 8.34 -7.34 7.68 -7 7 C-6.34 7 -5.68 7 -5 7 C-4.67 6.01 -4.34 5.02 -4 4 C-3.34 4 -2.68 4 -2 4 C-1.34 2.68 -0.68 1.36 0 0 Z " fill="#484848" transform="translate(171,201)"/>
<path d="M0 0 C0.33 0.99 0.66 1.98 1 3 C-0.65 4.32 -2.3 5.64 -4 7 C-4.66 6.67 -5.32 6.34 -6 6 C-5.34 5.01 -4.68 4.02 -4 3 C-3.34 3 -2.68 3 -2 3 C-2 2.34 -2 1.68 -2 1 C-1.34 0.67 -0.68 0.34 0 0 Z " fill="#3E3E3E" transform="translate(177,52)"/>
<path d="M0 0 C1.15227823 0.76116551 2.2966386 1.53432693 3.4375 2.3125 C4.07558594 2.74175781 4.71367187 3.17101562 5.37109375 3.61328125 C7 5 7 5 8 8 C4.82461668 7.65978036 3.97723135 6.97533396 1.75 4.5625 C0 2 0 2 0 0 Z " fill="#D4D4D4" transform="translate(228,212)"/>
<path d="M0 0 C0.66 0 1.32 0 2 0 C2.36923077 5.53846154 2.36923077 5.53846154 0.5 7.875 C-0.2425 8.431875 -0.2425 8.431875 -1 9 C-1.99 8.67 -2.98 8.34 -4 8 C-3.34 7.4225 -2.68 6.845 -2 6.25 C0.44290923 4.00346023 0.44290923 4.00346023 0 0 Z " fill="#3C3C3C" transform="translate(142,83)"/>
<path d="M0 0 C1.41805831 0.28482368 2.83440379 0.57818144 4.25 0.875 C5.03890625 1.03742187 5.8278125 1.19984375 6.640625 1.3671875 C8.96831144 1.99150075 10.89031952 2.84838542 13 4 C7.73946963 4.31563182 4.55426184 3.66590937 0 1 C0 0.67 0 0.34 0 0 Z " fill="#555555" transform="translate(197,52)"/>
<path d="M0 0 C0.99 0.33 1.98 0.66 3 1 C2.67 1.66 2.34 2.32 2 3 C3.65 3.33 5.3 3.66 7 4 C7 4.33 7 4.66 7 5 C5.02 5.33 3.04 5.66 1 6 C0 1.125 0 1.125 0 0 Z " fill="#363636" transform="translate(92,232)"/>
<path d="M0 0 C0.33 0.66 0.66 1.32 1 2 C-0.65 3.98 -2.3 5.96 -4 8 C-4.66 7.67 -5.32 7.34 -6 7 C-4.02 4.69 -2.04 2.38 0 0 Z " fill="#454545" transform="translate(141,231)"/>
<path d="M0 0 C0.99 0.33 1.98 0.66 3 1 C2.42655063 3.86724686 2.1385485 4.8614515 0 7 C-0.99 6.67 -1.98 6.34 -3 6 C-2.505 5.566875 -2.01 5.13375 -1.5 4.6875 C0.33218192 3.00259517 0.33218192 3.00259517 0 0 Z " fill="#2B2B2B" transform="translate(71,155)"/>
<path d="M0 0 C1.32 0 2.64 0 4 0 C4 0.66 4 1.32 4 2 C4.99 2.33 5.98 2.66 7 3 C7.6875 5.0625 7.6875 5.0625 8 7 C7.34 7 6.68 7 6 7 C4.62517293 5.36739286 3.29352333 3.69774938 2 2 C1.34 1.34 0.68 0.68 0 0 Z " fill="#363636" transform="translate(121,134)"/>
<path d="M0 0 C5.75 3.625 5.75 3.625 8 7 C5.125 6.3125 5.125 6.3125 2 5 C0.625 2.375 0.625 2.375 0 0 Z " fill="#BFBFBF" transform="translate(211,196)"/>
<path d="M0 0 C0.66 0.66 1.32 1.32 2 2 C0.71937515 3.7074998 -0.61767557 5.37373596 -2 7 C-2.66 7 -3.32 7 -4 7 C-3.6875 5.0625 -3.6875 5.0625 -3 3 C-2.01 2.67 -1.02 2.34 0 2 C0 1.34 0 0.68 0 0 Z " fill="#323232" transform="translate(219,105)"/>
<path d="M0 0 C0.66 0 1.32 0 2 0 C1.75 2.375 1.75 2.375 1 5 C-1.0625 6.3125 -1.0625 6.3125 -3 7 C-2.01 4.69 -1.02 2.38 0 0 Z " fill="#808080" transform="translate(164,62)"/>
</svg>
