<?xml version="1.0" encoding="UTF-8"?>
<svg version="1.1" xmlns="http://www.w3.org/2000/svg" width="271" height="224">
<path d="M0 0 C-0.10699219 0.556875 -0.21398437 1.11375 -0.32421875 1.6875 C-1.26608108 7.68301074 -0.76417505 11.61768179 2 17 C2.31066406 17.68578125 2.62132812 18.3715625 2.94140625 19.078125 C11.8793763 35.47915254 35.4192346 44.24160875 52.3125 49.375 C72.62411717 55.23265023 98.4437245 59.3266213 118 49 C122.35102032 46.13017809 124.88756396 43.03391649 126.6875 38.125 C127.44466605 32.97627084 126.9912468 28.08013985 126 23 C126.99 22.505 126.99 22.505 128 22 C139.84692235 26.73054191 151.30018408 36.6940926 157.375 48 C160.56211713 55.83388033 160.26916743 65.45073071 157.5 73.375 C152.78647718 83.2439384 144.8987119 89.65449934 135 94 C93.65840508 107.88193364 46.35096042 94.60752872 8.50048828 76.3996582 C-9.94704063 67.21939474 -32.27052989 53.54278232 -40.3359375 33.51953125 C-42.06335888 26.9654913 -42.40768285 19.66057989 -39.125 13.5625 C-32.50848425 4.77754631 -21.75496357 2.19487354 -11.4140625 0.6015625 C-7.60134048 0.13288903 -3.84521 -0.12403903 0 0 Z " fill="#F8F8F8" transform="translate(75,87)"/>
<path d="M0 0 C7.99493655 2.52069655 15.76378607 5.40792993 23.4921875 8.66015625 C24.78697021 9.19854126 24.78697021 9.19854126 26.10791016 9.74780273 C33.27033828 12.84233015 41.81608651 16.80749865 46.5546875 23.22265625 C47.63047682 25.97787651 48.31833837 28.78362064 48.9921875 31.66015625 C49.19610107 32.48692871 49.40001465 33.31370117 49.61010742 34.16552734 C50.04336699 35.93129562 50.47035182 37.69861331 50.89160156 39.46728516 C51.56395343 42.26115966 52.27068686 45.04454758 52.984375 47.828125 C53.44632266 49.66771538 53.90728538 51.50755342 54.3671875 53.34765625 C54.58624756 54.19900146 54.80530762 55.05034668 55.03100586 55.92749023 C56.63618199 62.52741031 57.69177773 68.93772891 55.4296875 75.47265625 C51.38609606 81.40325702 46.39907281 84.44239434 39.5546875 86.22265625 C14.56118447 90.61175922 -12.11017204 84.62471614 -34.4453125 73.22265625 C-35.36570312 72.77277344 -36.28609375 72.32289062 -37.234375 71.859375 C-47.2951113 66.71303295 -60.51116751 58.79069771 -65.4453125 48.22265625 C-65.75362486 43.17213353 -65.08781585 39.36147616 -63.36328125 34.625 C-62.92564453 33.41134766 -62.48800781 32.19769531 -62.03710938 30.94726562 C-61.69087524 30.01370239 -61.69087524 30.01370239 -61.33764648 29.0612793 C-60.63472346 27.16531063 -59.94785551 25.26412948 -59.26367188 23.36132812 C-53.49259135 7.51402524 -53.49259135 7.51402524 -47.4453125 2.22265625 C-39.82994141 -0.31580078 -34.74117524 2.07598956 -27.62890625 5.2265625 C-23.99652206 6.36307534 -22.073264 6.29908142 -18.4453125 5.22265625 C-16.33302293 3.79735432 -14.5574179 2.20491696 -12.66796875 0.5 C-8.53095687 -1.87750946 -4.49372153 -1.01388955 0 0 Z " fill="#F9F9F9" transform="translate(143.4453125,34.77734375)"/>
</svg>
